<?xml version="1.0" encoding="utf-8"?>
<!-- Generator: Adobe Illustrator 24.0.3, SVG Export Plug-In . SVG Version: 6.00 Build 0)  -->
<svg version="1.1" id="Artboard" xmlns="http://www.w3.org/2000/svg" xmlns:xlink="http://www.w3.org/1999/xlink" x="0px" y="0px"
	 viewBox="0 0 1125 2436" style="enable-background:new 0 0 1125 2436;" xml:space="preserve">
<style type="text/css">
	.st0{fill-rule:evenodd;clip-rule:evenodd;fill:#361B51;}
	.st1{fill-rule:evenodd;clip-rule:evenodd;fill:#662D90;}
	.st2{fill-rule:evenodd;clip-rule:evenodd;fill:#CF9810;}
	.st3{fill-rule:evenodd;clip-rule:evenodd;fill:#F2C01D;}
	.st4{fill-rule:evenodd;clip-rule:evenodd;fill:#9A6D03;}
	.st5{fill-rule:evenodd;clip-rule:evenodd;fill:#FFFFFF;}
	.st6{fill-rule:evenodd;clip-rule:evenodd;fill:#C9C8C3;}
	.st7{fill-rule:evenodd;clip-rule:evenodd;fill:#C88F64;}
	.st8{fill-rule:evenodd;clip-rule:evenodd;fill:#99623D;}
	.st9{fill-rule:evenodd;clip-rule:evenodd;fill:#262424;}
	.st10{fill-rule:evenodd;clip-rule:evenodd;fill:#FCC58C;}
	.st11{fill-rule:evenodd;clip-rule:evenodd;}
	.st12{fill-rule:evenodd;clip-rule:evenodd;fill:#4C4847;}
	.st13{fill-rule:evenodd;clip-rule:evenodd;fill:#7E4F33;}
</style>
<g>
	<g>
		<path class="st0" d="M625.5,1704.8c0,0-20.8-28.4-39.4-70.1c-18.5-41.7,107,7.6,107,7.6l-19,42.1L625.5,1704.8z"/>
		<path class="st1" d="M902.2,1603.8l-56.7-78.9c0,0-41.3,33.3-38.3,62.3C810.1,1616.3,864.9,1612.5,902.2,1603.8z"/>
		<path class="st2" d="M526.7,769.4c0,0,50.9,96.9,84.8,175.2c47.7,53.9,140.5,99.3,162.9,119.8c0,0,249.4,253,341.6,433.1
			c-71.6-19.1-219.9,26.9-274.2,75.5c-42.3,38,42.6,21.2,60.4,30.8c-9,38.1-169.9,88.3-210.1,97.1c-25.5,5.6-49.6,8.1-66.5,3.9
			c-5.6-22.9,77.7-58.7,30.2-53.9c-190.9,19.3-208.2,186.1-319.1,184c3.7-93.5-0.3-334.2-19.3-429.1
			c-35.1-73.2-148.5-156.1-163.4-225.4c-12.3-83.1-30.8-213.6-31.4-341.7c94.4-45.7,167.4-98.1,313.8-120.5L526.7,769.4z"/>
		<path class="st3" d="M865.2,1555.7c-8.9,5.7-16.8,11.5-23.3,17.3c-1.3,1.2-2.5,2.3-3.6,3.4c-17.7-33-88.7-165.7-112.4-208.4
			c-23.7-42.7-60.3-113.2-47.3-100.9c14,13.1,78.4,85.8,98.7,116.9C804.1,1425.4,847.3,1510.5,865.2,1555.7z"/>
		<path class="st3" d="M670.4,1653.3c0.3-2.6-3.7-3.6-14.7-2.5c-9.3,0.9-18.2,2.3-26.8,3.9c-3.9-37.8-19.3-181.5-32.9-252.8
			c-15.7-82.5,104.5,167.8,129.9,217.5C756.1,1678.3,670.2,1655.5,670.4,1653.3z"/>
		<path class="st4" d="M526.7,769.4c0,0,50.9,96.9,84.8,175.2c0,0-48.7-39.8-56.3-51.2c-7.6-11.4,7.6,68.2,9.7,75
			c2.1,6.7,43.8,63.6,51.4,90.6c7.6,27,20.2,123,21.1,164.3c0.8,41.3,28.1,98.1,36.4,110.3c8.3,12.1-8.6,40.5-25.4,40.5
			c-16.8,0-109.5-160.1-109.5-160.1L448,1066l30.6-323.9L526.7,769.4z"/>
		<path class="st4" d="M774.4,1064.5c0,0,249.4,253,341.6,433.1c-49.7-13.3-136.4,4.8-202.9,33.4
			C889,1366.8,774.4,1064.5,774.4,1064.5z"/>
		<path class="st4" d="M539.1,1689.2c-89.2,55.1-119.9,147.3-202.5,145.7c3.7-93.5-0.3-334.2-19.3-429.1
			c-18.9-39.3-60.3-81.4-96.9-122.7l-11.9-21.5c-2.4-4.4-35.4-43.8-39.6-63.2c-4.2-19.4-14.3-266.2-14.3-266.2l124.3-22.3
			c0,0,206.4,228,229.9,310.6c8.8,30.8,19,106.3,19.9,158c0.6,31.9-4.9,159-6.8,173C519,1573.9,532.9,1653,539.1,1689.2z"/>
		<path class="st4" d="M831,1592.7c7.4,11.4,57.9,3.9,71.1,11.1c-9,38.1-169.9,88.3-210.1,97.1c-25.5,5.6-49.6,8.1-66.5,3.9
			c-4.5-18.2,47.6-44.7,44.8-52.3c0,0-53-190.6-69-236.9c-16-46.3-98.6-200.5-109.5-218.2c-11-17.7-53.1-191.3-53.1-191.3
			s85.9,83.4,147.4,202.2c0,0,122,172.1,128.7,188.1c6.7,15.9,114.3,193.3,116,196.1C830.9,1592.6,831,1592.7,831,1592.7z"/>
		<path class="st1" d="M774.4,1064.5c0,0,192.1,318.9,230.8,575c39.3-30.4,106.9-69.4,110.8-142
			C1033.9,1347.8,905.9,1162.2,774.4,1064.5z"/>
		<path class="st0" d="M878.1,1261.9c52.1,110.9,108.1,251.8,127.1,377.6c17.9-13.8,41.7-29.5,62.7-49.3
			C1051.5,1545.4,993.7,1402.9,878.1,1261.9z"/>
	</g>
	<g>
		<path class="st5" d="M476.4,704.1c0,0,20.9,4.4,42.2,11.9c27.6,9.8,38.7,18.2,40,51.8c1,25.3-2.2,74.3-14.9,95.8
			c0,0,6.9,86.6,11,107.7c55.2,91,54.4,104.2,56.6,171.5c1.2,37.5,0.8,79.6,0.8,94.7c0,0-1.7,32-3.4,43.9
			c-4.6,34.2-49.2-16.1-50.8-30.8c0,0,0.3-37.6-3.8-53c0,0-5-25-35.4-68.9c-30.3-43.9-31.7-39-46.9-77.1c0,0-6.7-20.8-8-39.1
			c0,0-48.6-49.3-59.6-150.3C393.4,761.3,432,698.3,476.4,704.1z"/>
		<path class="st6" d="M504.8,773c29.6,27.9,11.5,55.7,21,85.8c0,0-6.9,10.6-9.2,27.8c-2.3,17.2,3.5,33.3-1.9,53.7
			c-5.4,20.4-14.1,42.1-14.4,47c-0.3,4.9,9.7,16,14.3,18.4c4.6,2.4,17.2,1.9,24.5-4.1c0,0,6.4-2.4-8.2,12.5
			c-14.6,14.9-14.5,24.2-11.4,45.9c3.1,21.7,18.8,48.2,29.6,70.6c10.8,22.3,22.5,48,23.7,121.7c0,0-18.6,0.8-32.9,14.2
			c5.5-7,12.4-14.3,18-16c0,0,0.3-37.6-3.8-53c0,0-5-25-35.4-68.9c-30.3-43.9-31.7-39-46.9-77.1c0,0-6.7-20.8-8-39.1
			c0,0-48.6-49.3-59.6-150.3C396.9,793.8,498.5,765.6,504.8,773z"/>
		<path class="st1" d="M589.5,1033.1c20.1,41,20.2,61.5,21.8,109.6c1.2,37.5,0.8,79.6,0.8,94.7c0,0-1.7,32-3.4,43.9
			c-1.6,12-2.1,32.7,0.9,50.9c0,0,1.4,8.5-0.5,11c0,0-7.9,4.5-15.9,8.1c-8,3.6-22.3,14.3-31.2,18.4c0,0-8-0.5-12-5.3
			c-1.1-1.3-4-9.9-4.2-12c0,0-8.6,0.4-13.6-4.1c-8.6-16.6-1.6-30.3-4.3-45.5c-1.1-6-2.4-15.9,2.5-22.8c0,0,16.4-26.2,27.6-29.4
			c0,0,0.3-37.6-3.8-53c0,0-5-25-35.4-68.9c-21.4-31-28.4-37.6-35.9-52.2C517.8,1043.4,566.9,1035.1,589.5,1033.1z"/>
		<path class="st0" d="M539.8,1266.6c5.5-7,12.4-14.4,18-16c0,0,0.3-37.6-3.8-53c0,0-5-25-35.4-68.9c-21.4-31-28.4-37.6-35.9-52.2
			c10.9-10.3,23.2-18.2,35.6-24.3c0.3,2.5,0.6,5.1,1,7.9c3.1,21.7,18.8,48.2,29.6,70.6c10.8,22.3,22.5,48,23.7,121.7
			C572.7,1252.4,554.1,1253.2,539.8,1266.6z"/>
		<path class="st2" d="M501.9,1105c14.1-10.9,50.8-34.9,101.4-37.5c-3-10.4-7.4-21.4-13.8-34.4c-22.7,2-71.8,10.2-106.7,43.3
			C487.9,1086.3,492.8,1092.5,501.9,1105z"/>
		<path class="st2" d="M682.7,2085.7c0.2,4.6,0.4,18.1,0.7,18.8c0,0-41.9,21.6-69.2,22.3c-27.3,0.7-60.2-3.9-92.1-13.1
			c-31.9-9.3-55.1-17.7-97.8-26.3c0,0-0.1-6.6-0.3-18.9l7.8-3.9C497.6,2062.2,620.3,2047.3,682.7,2085.7z"/>
		<path class="st5" d="M484.6,1151.8c0,0,24.9,77.4,36.7,179.7c11.8,102.2-14.1,183.8-31.4,219.4c0,0-0.8,25.3,1.2,33.7
			c2,8.4,6.8,17.4,5.5,50.8c0,0,8.9,25.9,14.1,92.2c5.2,66.2,7.9,217.3,7.9,217.3s8.8,28.9,15.7,51.9c0,0,7.7,12.8,18.1,19.2
			c10.3,6.4,35,23,61.2,32.5c26.2,9.5,60.2,20.2,66.3,38.3c0,0-40.9,21.1-67.6,21.8c-26.7,0.7-58.7-3.8-89.9-12.8
			c-31.1-9-53.8-17.2-95.5-25.6c0,0,0.2-32,18.5-87.9c0,0,2.4-28.9-2.4-50.9c-4.8-22-38.6-100-50.2-129.5
			c-11.6-29.5-39.4-117.9,7.6-191.1c0,0,1.6-12.9-2.3-28.2c-3.9-15.4-6.3-26.5-7.7-52.8c-1.4-26.3-35.4-125.5-45.4-159
			C335.1,1337.3,312.2,1173.1,484.6,1151.8z"/>
		<path class="st6" d="M519,1312.7c0.8,6.1,1.6,12.4,2.3,18.7c11.8,102.2-14.1,183.8-31.4,219.4c0,0-0.8,25.3,1.2,33.7
			c2,8.4,6.8,17.4,5.5,50.8c0,0,8.4,24.5,13.7,86.7c-3.3-0.5-5.6-3.2-5.9-9.4c-1-24.6-12.2-70.8-12.2-70.8
			c-7,13.2-12.5,18.9-16.4,19c-3.9,0.1,2-3.6,6.6-16.7c4.6-13.1,8.3-31.1,6.4-39.1c-2-8-4.9-13.9-5.1-20.9c-0.2-7,0.5-22.8-3.2-30.5
			c-3.7-7.6-2.3-6.6,4.4-21.9c6.6-15.3,16-39.2,27.3-90.8C520.5,1403.1,519.9,1342.3,519,1312.7z"/>
		<path class="st6" d="M634.1,2104.9c-7.6,2.1-15.1,3.5-21.7,3.7c-26.7,0.7-58.7-3.8-89.9-12.8c-31.1-9-53.8-17.2-95.5-25.6
			c0,0,0.2-32,18.5-87.9c0,0,2.4-28.9-2.4-50.9c-4.8-22-38.6-100-50.2-129.5c-11.6-29.5-39.4-117.9,7.6-191.1c0,0,1.6-12.9-2.3-28.2
			c-3.9-15.4-6.3-26.5-7.7-52.8c-1.4-26.3-36.8-130.3-45.4-159c-8.5-28.6-20.7-104.5,34.1-167.6l20.5,68.8c0,0-12.2,31.6-16.6,52
			c-4.4,20.5-7.4,27.6-6.4,37.4c0,0,12.3,46.9,18.6,62.9c6.4,16,6.1,32.5,7.4,43.4c1.3,10.9,4.3,16.4,7,12.1
			c2.7-4.3,11.1-31.5,14.1-40.4c2.9-8.9,2.7,24.9-0.9,47.1c-3.6,22.2-2.6,56.4-2.2,73.3c0.4,16.8,4,45.9,7.9,46.2
			c3.9,0.3,19.8-7.2,19.9-3.3c0.1,3.9-23.5,29.7-35,58.5c-11.6,28.7-12.1,82.3-1.2,123.1c10.9,40.8,35.2,103.9,41.6,122.4
			c6.4,18.4,12.2,50.6,9.9,69.3c-2.3,18.7-5.5,40.3,9.4,57.5c0,0,21.2,33.5,25.3,41.5c4.1,8,57.8,23.1,81.8,26.7
			C599.1,2104.3,618.5,2105.2,634.1,2104.9z"/>
		<path class="st1" d="M508.3,1700.8c0.9,8.1,1.7,16.9,2.5,26.7c5.2,66.2,7.9,217.3,7.9,217.3s8.8,28.9,15.7,51.9
			c0,0,7.7,12.8,18.1,19.2c10.3,6.4,35,23,61.2,32.5c26.2,9.5,60.2,20.2,66.3,38.3c0,0-40.9,21.1-67.6,21.8
			c-26.7,0.7-58.7-3.8-89.9-12.8c-31.1-9-53.8-17.2-95.5-25.6c0,0,0.2-32,18.5-87.9c0,0,2.4-28.9-2.4-50.9
			c-4.8-22-38.6-100-50.2-129.5c-6.5-16.5-18-51.2-18.7-91.5C402.2,1729,491.3,1719.4,508.3,1700.8z"/>
		<path class="st0" d="M634.1,2104.9c-7.6,2.1-15.1,3.5-21.7,3.7c-26.7,0.7-58.7-3.8-89.9-12.8c-31.1-9-53.8-17.2-95.5-25.6
			c0,0,0.2-32,18.5-87.9c0,0,2.4-28.9-2.4-50.9c-4.8-22-38.6-100-50.2-129.5c-6.5-16.5-18-51.2-18.7-91.5c7,4.7,17.8,7.6,30.4,9
			c-0.1,21.7,2.5,44.8,7.8,64.8c10.9,40.8,35.2,103.9,41.6,122.4c6.4,18.4,12.2,50.6,9.9,69.3c-2.3,18.7-5.5,40.3,9.4,57.5
			c0,0,21.2,33.5,25.3,41.5c4.1,8,57.8,23.1,81.8,26.7C599.1,2104.3,618.5,2105.2,634.1,2104.9z"/>
		<path class="st2" d="M378.5,1751.2c37.9,11.5,102.6,7.5,133.1-11.9c-0.3-4.2-0.6-8.2-0.8-11.9c-0.8-9.8-1.6-18.6-2.5-26.7
			c-16.9,18.6-106,28.2-134.1,9.5C374.4,1724.9,376.1,1738.7,378.5,1751.2z"/>
		<path class="st3" d="M446.9,1756.9c16.5-1.3,32.5-4.2,46-8.9c-0.2-9.8-0.8-24.3-2.2-37.4c-13.3,4.7-31.5,8-49.9,9.2
			C441.3,1729,442.7,1744.2,446.9,1756.9z"/>
		<path class="st4" d="M384.6,1752.9c5.7,1.4,11.9,2.5,18.4,3.2c-2-10.7-3.1-24-2.7-37.4c-7.6-1.1-14.4-2.8-19.9-5.2
			C380.5,1722.7,382.7,1740.7,384.6,1752.9z"/>
		<path class="st4" d="M524.8,1090.2c-6.7,3.7-12.3,7.3-16.8,10.4c-7.5-8.7-13.4-17-19.3-29.4c8.1-6.8,16.8-12.3,25.6-16.9
			C516.6,1063,521,1081.6,524.8,1090.2z"/>
		<path class="st0" d="M545.7,1352.4c0,0,7.3-3.3,6.2-15.7c-1-12.5,1.2-19.9,3.1-24.1c1.3-2.3,2-3.4,4-6.8
			c6.7,9.5,14.8,8.2,21.3,13.6c-10.1-2.2-16.1-2.3-15.4-0.6c1.5,3.6,4.6,8.1,6.4,10.8c0.6,1,9.8,2.1,16.1,5.3c4,2-14.7-2.6-15.6-2.3
			c-1.4,0.5-3.3,0.9-6.8,3.4c-1.8,1.3-5.6,14.4-6.1,14c-0.4-0.3,2.4-13.6,2.2-15.2c-0.2-1.1-0.2-1.9-0.3-2.6c-0.1-0.5-4-2.2-4.3-2.7
			c-0.3-0.5,5.6,1,7.5,0.9c2-0.2,2.8-2.4,2.5-3c-1.7-3.6-4.2-9.5-4.9-9.3c-2.4,0.6-3.8,2.3-4.1,2.9c-4.6,11-1.1,23.9-2.6,25.5
			c-2.9,3.2-6.2,7.2-8,10.8C546.4,1355.1,545.8,1353.2,545.7,1352.4z"/>
		<path class="st5" d="M268,530.2c-5,27.7-9.5,61.8-12.3,81.1c-21.8,13.3-69.9,43.9-112.7,83.2c0,0-59.7,39.3-58.3,109.5
			c1.4,70.2,36.5,114.4,65.3,141.8c28.8,27.4,54.8,53.4,57.6,79.3c2.8,26,2.5,93,1.1,114.1l-1.2,11.8c0,0,51.6,1.8,89.9,32.3
			c38.3,30.5,64.6,78.3,64.6,78.3s9.5,11.2,18.6,16.5c0,0,21.4,0.4,36.5-7.7c15.1-8.1,51.3-47.7,67.8-118.7c0,0-5.6-30.2-6.7-49.5
			c-1.1-19.3,0.9-91.1,2.3-101.3c0,0,6.3-24.2,12.3-34.8c6-10.5,13-34.1,14-43.2c1.1-9.1,0-53.4-1.4-64.2c0,0,9.7-8.3,11.4-34.9
			c1.8-26.7,6.3-69.9-21.8-113.7c0,0-33.9-21.9-56.3-36.3c-22.5-14.4-43.5-32.6-43.5-32.6s2.1-68.1,2.5-82.1
			C397.8,545,304.8,533,268,530.2z"/>
		<path class="st6" d="M477.7,702c0,0,23.5,1.4,44.8,8.9c27.6,9.8,40.7,24.1,42,57.7c0.1,2.4-0.3,70.7-20.9,95
			c8.1-18.6,11.4-39.9,12.1-48.4c3.4-37.8,3.7-57.6-6-74.3c-12.9-22.3-41.2-28.3-60.4-29.7c-4.2-0.3-14.5-5.1-14.4-7.3
			C475.4,702.3,477.2,702,477.7,702z"/>
		<path class="st6" d="M113.4,901.9c11.3,18.1,24.5,32.5,36.6,44c28.8,27.4,54.8,53.4,57.6,79.3c2.8,26,2.5,93,1.1,114.1l-1.2,11.8
			c0,0,21.8,0.7,47.5,9.6c3.6-37.2,9.9-173.5,8.9-180.4c-1.1-7-8.8-14-26-32.6c-17.2-18.6-29.1-33-29.1-33
			c-0.4-19,17.6-44.6,21.1-46c3.5-1.4,18.3,3.9,18.3,3.9c21.1,4.6,67.1,6,100,1.4c20.6-2.9,37.8-4,52.1-3.9
			c17,0.2,30.7,2.2,52.4,5.6c8.7,1.4,17.3,2.1,24,1.7c16-1.1,28.6-18.6,28.6-18.6s9.7-8.3,11.4-34.9l0.1-2
			c-4,13.6-8.6,24.3-17.3,33.7c-8.8,9.4-25.1,14.7-44.9,12.5c-28.6-3.3-56-4.8-85-3.8c-5.6,0.2-12.8,0.5-21.4,1.1
			c-11.3,0.8-24.4,1.3-38,1.2c-36.9-0.4-60.9-6.5-60.9-6.5c-47-14-77.9-58.3-77.9-58.3L113.4,901.9z"/>
		<path class="st7" d="M268,530.2c-5,27.7-9.5,61.8-12.3,81.1c25.1,71.2,114.2,90.4,139.4,29.8c0,0,2.1-68.1,2.5-82.1
			C397.8,545,304.8,533,268,530.2z"/>
		<path class="st8" d="M268,530.2c-1.6,9-3.2,18.6-4.7,28.2c1.1,1.1,2.6,2.3,4.4,2.9c0,0,0,7.2,0.4,10.1c0.2,1.5,0.9,3,2.2,5.3
			c0.5,1-5.2-3.6-9-5.4c1.2,3.9,12.9,12,12.9,12s24.5,38.9,35.6,50.9c-0.2,2.8,30.5,26.1,30.6,26.1c0.2,0,19.5-19.8,20.4-23.7
			l17.5-26.2c6-3.3,12.7-5.6,17.9-9.9c-2.8,0.8-14.9,5.2-14.3,4.4c3.8-5.7,11.5-19,15.1-30.6c0.2-6.7,0.3-12.1,0.4-15.1
			C397.8,545,304.8,533,268,530.2z"/>
		<path class="st2" d="M261.4,571.2c-2.3,15.4-4.2,29.9-5.7,40.1c0,0,44.8,36.2,84.8,48.9c0,0,27.6-4.4,54.5-19
			c0,0,0.6-20.1,1.2-40.8c-12,5.7-24.6,11-37.5,15.3c-5.8,2-13.2,38.8-18.2,44.5c-6.8-12.9-9.6-43-15-45.5
			C306,605.9,283.9,592,261.4,571.2z"/>
		<path class="st3" d="M263.9,617.6c6.3,4.7,15.9,11.5,27.1,18.5c-0.5-10.7-1.1-27.6-0.9-41.7c-7.1-5-14.4-10.6-21.8-16.9
			C266.9,587,264.6,603.9,263.9,617.6z"/>
		<path class="st3" d="M364.6,654.1c7.2-2.3,15.4-5.4,23.8-9.5c1.3-14.4,2.3-33.3,2.7-41.8c-5.7,2.6-11.6,5.1-17.5,7.5
			C369.8,629.6,366.2,646.7,364.6,654.1z"/>
		<path class="st4" d="M380.1,607.6c-7,2.9-14.2,5.7-21.4,8.1c-3.2,1.1-7,13-10.5,24.4c8-1.1,12.7-3.6,12.7-3.6
			S372.2,618.9,380.1,607.6L380.1,607.6z M334.1,640.2c-2.9-12-5.2-24-8.6-25.5c-16-7.3-33.8-18-52.2-33.1
			c7.4,11.8,26.6,41.9,37.4,53.3C310.7,634.9,321.2,639,334.1,640.2z"/>
		<path class="st9" d="M267.3,511.2c0,0-1.9-31.8,1.9-52.5c3.9-20.7,16.7-22.5,16.7-22.5s18.3-3.7,27.7-9.7
			c9.5-6,33.3-10.4,48.3-5.8c14.9,4.6,23.2,10.4,31.2,15.6c8.1,5.3,16.9,14.4,18.3,17c1.4,2.6,0.2,28.1-1.9,41.2
			c-2.1,13.2-2.8,22.8-3.3,29.5C405.6,530.9,315.6,566,267.3,511.2z"/>
		<path class="st7" d="M398.5,523.3c0,0,7-4.4,10.7-1.6c3.7,2.8,1.9,16.1,0.5,23.3c-1.4,7.2-12.1,25.3-17.7,20.5
			C386.4,560.8,398.5,523.3,398.5,523.3z"/>
		<path class="st7" d="M278,514.8c-4.7-3.6-16.7-14.9-19.6-5.9c-2.5,7.8-0.8,22.8,0.5,29.9c1.7,9.2,6.1,22,14.1,15.5
			C283.5,545.7,278,514.8,278,514.8z"/>
		<path class="st8" d="M408.2,531.1c0,0-0.5-4.7-2.2-5.2c-1.7-0.4-4.8,4.9-5.7,7.3c-0.9,2.5-0.9,2.6-0.4,4.8
			c0.5,2.2,0.5,5.1-0.1,7.7c-0.6,2.5-2.1,4.5-2.8,6.4c-0.6,1.9-0.6,5.5,0.4,6.5c0,0,0-5.2,1.8-7c1.8-1.8,3.1-2.5,4.4-5.9
			c1.3-3.4,0.8-6.7-0.8-9.3c-1-1.7-0.3-3.1,0.5-4.3C405,529.9,405.8,527.6,408.2,531.1z"/>
		<path class="st8" d="M267.8,527.1c0.4-2.8,4.3-5.7,3-8.4c-0.8-1.6-1.7-3.2-2.6-4.3c-2.5-2.9-5.5-4-6.5-2.1c0,0-0.6,1.6-0.6,3.6
			c0,0,1.2-2.6,3.2-1.4c2,1.3,3.2,5,3.1,5.6c-0.2,0.6-3.5,2.1-3.6,6.2c0,4.1,0.5,6.7,2.1,9c1.6,2.3,3,2.3,3.6,3.7
			c0.7,1.4,0.1,5.7-1.2,6.8c-0.5,0.4,1.3,0.9,2.4-1.5c0.5-1.2,0.8-2.3,0.6-5.7C271.1,533.8,267.8,534.4,267.8,527.1z"/>
		<path class="st10" d="M396.4,469.5c1.5,29.1,3.8,15.6,5.8,52.7c-0.5,2.4-1.3,4.2-2.7,7.9c2.7,6.9,2.5,13.9-1.8,20.9
			c-0.5,5.8-0.9,12-1.2,15.3c-6.4,24-20.8,36.1-37.4,58.8c-4.7,1.8-27.2,3.2-46.3-1.1c-20.9-28.2-33.7-38-41.4-54.4
			c-1.2-9.7-0.5-11.8,1.8-31.5c-3.5-12.1-0.3-17.6,3.1-20.4c4.9-30.6,12.8-31.2,15.3-54.4c27.5-5.3,28.7,16,57.6,16.3
			C372.2,479.8,377.1,469,396.4,469.5z"/>
		<path class="st7" d="M396.4,469.5c1.5,29.1,3.8,15.6,5.8,52.7c-0.5,2.4-1.3,4.2-2.7,7.9c2.7,6.9,2.5,13.9-1.8,20.9
			c-0.5,5.8-0.9,12-1.2,15.3c-6.4,24-20.8,36.1-37.4,58.8c0,0,10.8-20.1,15.1-35.1c1.4-4.8,3.5-9.8,5.5-14.5
			c3.5-8.1,6.6-13.5,8.2-15.4c3.6-4.1,8.4-11.2,7.7-22.1l-0.8-6.8c0,0,2.2-12.8,2.1-20.1c-0.1-7-3.2-26.5-1.8-41.6
			C395.6,469.5,396,469.5,396.4,469.5z"/>
		<path class="st7" d="M396.9,511.1l-28.4,5.4l-10.3,4.9c0,0-2.6,6.2-2.9,12.8c0,0-0.1,1.2,1.3,0c1.4-1.2,2.9-1.8,4.7-2.1
			c1.8-0.4,4.2,0.5,8.8,1.5c4.6,1,10-0.4,13.6-2.7c3.7-2.3,11.2-1.5,11.9,7.3l2.9-10.1C398.5,527.9,399.7,512.2,396.9,511.1z"/>
		<path class="st7" d="M312.8,624.1c-20.9-28.2-33.7-38-41.4-54.4c-1.2-9.7-0.5-11.8,1.8-31.5c-3.5-12.1-0.3-17.6,3.1-20.4
			c4.9-30.6,12.8-31.2,15.3-54.4c2.2-0.4,4.2-0.7,6.1-0.8c0.3,3.5-0.1,7.3-0.4,15.7c-0.5,11.9-4.7,21.6-4.7,21.6
			c-6.7,12.1-6.1,27.4-6.1,27.4c-1.2,3.4-3.8,11.8,0.8,22.3c4.6,10.5,7.7,22.5,12.6,41.8C304.6,610.7,312.8,624.1,312.8,624.1z"/>
		<path class="st7" d="M336.7,560.9c0,0-1.7-1.2-4.4-1.7c-2.7-0.5-2.1-2.6-2-4.5c0.2-1.9-3.9,3.1-2.4,6.8c1.5,3.7,4,2.7,6.2,3.9
			c2.3,1.1,4.5,4.9,7.4,5.6c2.9,0.7,4.6-0.4,8-2.6c3.4-2.2,5-1.7,7.6-2.6c2.6-1,2.4-6.5,1.3-7.5c-1.1-1.1,1,3.8-1.7,4.1
			c-1.3,0.2-0.9-0.1-3.6,0c-2.2,0.1-0.9-3.4-3-6.7c-0.3-3.2,0-10.8,2.3-16.1c0.9-2.1,2.3-3.7,3.7-4.8c2.8-2.3,3.7-12.3,3.4-13.4
			c-0.4-1.1-10.6,6.1-11.3,11.9c-0.6,4.8-1,14.4-1,19.9c-1.4-1-3.9-1.7-5.5-1.4c-1.7,0.3,3.2,1.9,4.5,4.2c1.3,2.3,1,6.5-0.6,7.3
			C343.9,564,339.8,564.2,336.7,560.9z"/>
		<path class="st7" d="M294.8,492.7c0,0-2,6.4,4.8,9.5c6.8,3.2,21.1,10.2,21.1,10.2c3,2.5,8.9,4.9,9,7.4c0,0,2.8,3.8,5.7,8.3
			c1.7,2.7,1.3,7.5,1.3,9.7c0,2.3-0.3,1.9-1.8-1.3c-1-2.3-4.4-3.5-7.3-4.6c-7-2.8-6.1-3.5-14.4-3.5c-9.3,0-11.1-1.9-14.5-4.2
			c-3.3-2.3-9.9-2.6-12.4,3.1c-2.5,5.7-3.3-5.7-3.3-12.9c0-7.2,8.6-22.6,8.6-22.6L294.8,492.7z"/>
		<g>
			<path class="st5" d="M383.2,528.8c0,0-5.7,3-10.7,2.9c-5.1-0.1-7.9-1.4-12-1.2c0,0,2.8-3.6,4.5-4.4
				C366.7,525.4,382.3,526.3,383.2,528.8z"/>
			<path class="st11" d="M356.3,532.8c0,0,3.7-5.2,8-8c8.5-2,18.9,1.8,27.4,3c-3.4,0.5-5.6,1.2-8.4,1c-4.3-1.3-14-2.6-17.1-1.9
				c-1.4,0.3-2.7,1.6-3.9,2.9C361,531,356.3,532.8,356.3,532.8z"/>
			<path class="st1" d="M375.7,531.4c-1.1,0.2-2.1,0.3-3.2,0.3c-1.5,0-2.8-0.2-4-0.3c-2.4-1.7-3.2-4.7-3.2-4.7s1-0.4,2.3-0.7
				c3,0,8,0.3,11.5,1.1C378.3,528.8,377.2,530.4,375.7,531.4z"/>
			<path class="st7" d="M359.9,536.2c0,0,3.3,2.3,10,3.5c6.7,1.2,11,0.1,11,0.1C373.9,538.7,366.4,536.9,359.9,536.2z"/>
			<path class="st12" d="M358.2,521.4c0.4-2.8,1.7-5.8,4.6-8.2c0,0,11.1-0.6,18.8-2.2c7.7-1.5,15.4,0.1,15.4,0.1s-1.7,2.4-10,4.8
				C378.5,518.4,369.2,520.3,358.2,521.4z"/>
		</g>
		<g>
			<path class="st5" d="M300.6,522.1c0,0,5.1,3.9,10.1,4.6c5,0.7,8-0.1,12,0.7c0,0-2.2-4-3.7-5C317.5,521.4,301.9,519.7,300.6,522.1
				z"/>
			<path class="st11" d="M326.6,530.4c0,0-2.8-5.8-6.6-9.2c-8-3.4-19-1.3-27.5-1.5c3.3,1,5.4,2.1,8.2,2.4c4.5-0.6,14.3-0.3,17.2,0.9
				c1.3,0.5,2.4,2.1,3.4,3.5C322.2,527.8,326.6,530.4,326.6,530.4z"/>
			<path class="st1" d="M307.6,525.9c1,0.4,2.1,0.6,3.1,0.8c1.5,0.2,2.8,0.3,4,0.3c2.7-1.2,3.9-4.2,3.9-4.2s-0.9-0.6-2.2-1.1
				c-3-0.5-7.9-1-11.5-0.8C305.4,522.8,306.3,524.6,307.6,525.9z"/>
			<path class="st7" d="M322.4,533.1c0,0-3.6,1.7-10.4,1.8c-6.8,0.1-10.9-1.7-10.9-1.7C308.2,533.3,315.9,532.7,322.4,533.1z"/>
		</g>
		<path class="st7" d="M322.2,589.1c1.3,3.2,3.8,5.8,6.7,7.1c3,1.3,6.3,0.5,12.5,0.9c2.5,0.1,5.2,0.9,7.5,0.5
			c3.3-0.7,6.1-3.4,7.5-7.3l-19.4,0L322.2,589.1z"/>
		<path class="st12" d="M329.7,519.8c0.3-2.8-0.2-6-2.4-9.1c0,0-10.6-3.3-17.7-6.6c-7.1-3.3-14.9-3.6-14.9-3.6s1.1,2.7,8.6,7.1
			C310.7,512,319.3,516.1,329.7,519.8z"/>
		<path class="st10" d="M362.2,586.3c0,0-0.2,1.8-4,3.7c-3,1.5-4,4-11,4.7c-4.8,0.5-11.7,0-16.4-1c-7.6-1.7-8.2-4.4-11-6.4
			c-3.5-2.4-3.5-4.2-3.5-4.2c3,0.2,9-1.2,13.3-1.7c2.5-0.3,17.3,0.8,19.7,1.4C353.4,583.8,359.2,586.1,362.2,586.3z"/>
		<path class="st7" d="M316.3,583.1c1.3,0.7,3,1,5.7,0.7c5.1-0.6,10.1-1.4,15.2-0.5c1.4,0.2,2.1,0.7,4.1,0.4c6.1-1,10.6,1.9,16,2.8
			c2.4,0.4,4.8-0.1,4.8-0.1c-2.1-0.6-3-1.2-4.6-2.7c-1.5-1.5-7.4-6.4-10.3-7.3c-2.9-0.9-5.5,0.3-6,0.8c-0.9,1.2-2.3,1.1-3.1-0.2
			c-0.4-0.6-2.7-2.2-5.8-1.7c-3,0.5-9.5,4.5-11.2,5.7C319.4,582.4,318.6,582.7,316.3,583.1z"/>
		<path class="st13" d="M316.3,583.1c1.3,0.7,3,1,5.7,0.7c5.1-0.6,10.1-1.4,15.2-0.5c1.4,0.2,2.1,0.7,4.1,0.4c6.1-1,10.6,1.9,16,2.8
			c2.4,0.4,4.8-0.1,4.8-0.1c-3.5,0.2-9.5-1.9-13.8-3.1c-4.9-1.3-6.1-0.1-8.5-0.2c-1.3,0-1.9-0.3-3.3-0.6c-1.2-0.3-3.2-0.9-6-0.5
			c-1.2,0.2-4.2,0.6-6.1,0.9C321.1,583.2,318.3,583.6,316.3,583.1z"/>
		<path class="st13" d="M336.5,563.1c0,0-2.1-2.3-5.8-2.4C327,560.6,331.6,563.3,336.5,563.1z"/>
		<path class="st13" d="M349.4,564.6c0,0,2.5-1.8,6.1-1.2C359.1,564,354.1,565.8,349.4,564.6z"/>
		<path class="st5" d="M191.3,692.2c0,0-49.2-1-84.2,8.8c-35,9.7-44.9,23-47.4,31.2c-2.5,8.2-6.7,33.3-3.6,59.6
			c0,0-1.4,5.7-10.6,15.5c-9.3,9.8-19.6,15.6-17.3,50.7c2.3,35.1,7.5,53.5,8.1,67.3c0,0-3.4,27.9-6.2,31.9c0,0-7.8,10.8-8.3,33.3
			c0,0-4.2,20.4-7.1,29.7c-2.9,9.3-10.2,36.8-7.7,58.5c2.4,21.7,10.9,44.4,31.2,104.3c0,0,31.5,96.9,38.1,118.9
			c6.6,22,12.3,39.6,16.1,53.3c0,0,0.5,12.4,3.5,19c0,0,6.3,4.7,17.7,12.1c3.5,2.3,7.6,6.1,12.1,8.1c0,0,10.1,2.4,15.7-1.2
			c0,0,18.3,4.2,20.6-5.8c0,0,15.4,2.5,21.1-6.5c5.6,2.3,19.2-3.5,15.7-20.2c-0.2-1.1-5.2-14-5.6-15.3c2.2-5.1,0.3-12.3-0.6-19.2
			c-1-7.7-1.4-14.9-3.8-16.6c0,0-7.6-6.3-19.2-14.7c-11.6-8.4-17.1-10.6-24.1-10.8c0,0-12.7-18.2-18.4-35.2c0,0-7.7-26-6.1-61.8
			c1.6-35.8,5.7-84.1,6.4-104.8c0.7-20.7-10.6-62.2-16.6-74.3c0,0,0.6-13.5,10.5-30.3c9.9-16.8,34.9-54.1,44.7-87.8
			c9.9-33.7,10.4-77,10.4-77L191.3,692.2z"/>
		<path class="st6" d="M126.6,1096.2c0.3-5.4,0.6-10.1,0.7-13.9c0.7-20.7-10.6-62.2-16.6-74.3c0,0,0.6-13.5,10.5-30.3
			c6.5-11.1,19.7-31.3,30.8-53.5c-5.1,7.3-19.3,30.8-28.8,42.6c-7.1,8.8-17.6,30.9-21.6,42.9c6,7.8,8.3,12.5,12.6,24.5
			c3.5,9.7,7.2,24.4,9.8,46.8C124.6,1087.1,125.5,1092.1,126.6,1096.2z"/>
		<path class="st6" d="M175.4,697.5c-2.5-1.8-4.9-3.4-7.4-4.9c-17.4,0.8-41.4,2.9-60.9,8.3c-35,9.7-44.9,23-47.4,31.2
			c-2.5,8.2-6.7,33.3-3.6,59.6c0,0-1.4,5.7-10.6,15.5c-9.3,9.8-19.6,15.6-17.3,50.7c2.3,35.1,7.5,53.5,8.1,67.3
			c0,0-3.4,27.9-6.2,31.9c0,0-7.8,10.8-8.3,33.3c0,0-4.2,20.4-7.1,29.7c-2.9,9.3-10.1,36.8-7.7,58.5c2.4,21.7,10.9,44.4,31.2,104.3
			c0,0,31.5,96.9,38.1,118.9c6.6,22,12.3,39.6,16.1,53.3c-3.2-35.7-8.3-76-21.3-114.8c-12.9-38.8-37.2-137.9-39.7-154.3
			c-2.5-16.4,1.2-39.7,2.8-54.4c1.6-14.7-0.2-34.9,1.9-40.9c2.1-6,5.5-2,7.6-2.7c2.2-0.7,1.7-9.5,1.7-18.4c0-8.8,3.8-21.3,3.8-21.3
			s4.8-23.6,4.6-63.4c-0.2-39.8,7.9-51.5,7.9-51.5c14.5-17.5,20.5-28.4,20.5-28.4c-8.3-41.9-22.2-83.2,25.6-98.4
			C128.2,700.3,154.5,695.2,175.4,697.5z"/>
		<path class="st1" d="M255.7,611.3c0,0,44.8,36.2,84.8,48.9c0,0,27.6-4.4,54.5-19c0,0,21.1,18.3,43.5,32.6
			c17.8,11.4,42.9,27.6,52.4,33.8c0,0-27.1,61.6-89.5,139.4C350.6,812.1,247.4,740.8,143,694.5C185.8,655.2,233.9,624.7,255.7,611.3
			z"/>
		<path class="st0" d="M389.2,644.2c1.9-1,3.9-2,5.8-3c0,0,21.1,18.3,43.5,32.6c17.8,11.4,42.9,27.6,52.4,33.8c0,0-0.6,1.3-1.7,3.6
			c-4.1-1-10.6-0.2-15-0.7c-0.8-0.1-1.8-0.7-0.4-1.2c3.7-1.2,6.5-3.3,4.1-4.6C426.1,675.9,392.2,647.5,389.2,644.2z"/>
		<path class="st0" d="M255.7,611.3c0,0,2,1.6,5.6,4.3c-5.8,3.8-31.7,21-49.2,33.3c-19.8,13.9-53.5,40.2-56.5,42.7
			c-3,2.5,2.2,0.7,13.3,2c11.1,1.2,13.1,3.1-2.1,3.4c-9.6,0.2-14,0.6-16.5,0.8c-2.4-1.1-4.8-2.2-7.2-3.3
			C185.8,655.2,233.9,624.7,255.7,611.3z"/>
		<g>
			<path class="st2" d="M34.2,2111.3l-5.5,4.6l0,20c0,0,11.3,22.7,53.5,37.9c0,0,12.7,4,31.3,3c27.5-1.6,54.9-11.1,68.2-36.6
				l-0.3-20.4c-5.6-4.4-8.9-3.4-8.8-5.8c0.5-11.9,2.2-14.5,8.3-22l0.3-23.5l-12.4-5.3C168.7,2063.3,62.8,2100.6,34.2,2111.3z"/>
			<path class="st5" d="M207.4,1151.1c0,0-13.1,35.4-17.9,63.4c-4.7,28,0,74.4,0,74.4s-24.6,38.9-32.3,302.8
				c0,0-21.5,35.2-29.9,49.5c-8.3,14.2-37,43.9-44.3,77.5c-7.3,33.6-4.9,83.6,8.8,180.1c0,0,2.7,24.6,0.4,91.6
				c0,0-10.9,17.1-12.6,23.6c0,0,0.9,28.5,0.2,35.1c-0.7,6.7-9.3,19.5-28.1,40.4c-18.8,20.9-19.2,20-21.7,27.2
				c0,0,10.7,24.5,54.8,40.8c0,0,21.9,4.1,43.3,1c21.5-3.1,48-25.3,51.2-36.3c0,0-0.3-10.4-13.4-25.2c0,0-0.9-6.1,3.4-10.6
				c4.3-4.5,9.3-8.8,9.6-16.8c0,0-3.9-9.7-7.8-14.9c0,0,1.2-7.4,0.4-9.5c-0.8-2.1-4.1-3.8-4.1-3.8s0.5-30.1,0.5-42.4
				c0.1-12.3-2-78.5,2.5-112.8c4.5-34.3,45.5-113.4,58.4-145.5c12.9-32.1,16.7-87.1,8.7-130.5c0,0-0.7-8.6,19.4-32.5
				c20.1-23.9,42.8-72.2,56-101.1c13.2-28.9,49.6-136,65.2-195.2C393.8,1222.1,259.1,1102.3,207.4,1151.1z"/>
			<path class="st6" d="M343.1,1394.5c-11.4,29.1-43.4,107.2-74.1,151.1c-38.2,54.8-40.1,58.6-36.8,72.3c2,8.5,4.8,46.1-0.5,83.9
				c-3.5,25.2-15.9,62.7-22.4,82.2c8-17.4,15.2-33,19.5-43.5c12.9-32.1,16.7-87.1,8.7-130.5c0,0-0.7-8.6,19.4-32.5
				c20.1-23.9,42.8-72.2,56-101.1C319.2,1462.7,330.9,1430.6,343.1,1394.5z"/>
			<path class="st6" d="M207.4,1151.1c0,0-13.1,35.4-17.9,63.4c-4.7,28,0,74.4,0,74.4s-24.6,38.9-32.3,302.8
				c0,0-21.5,35.2-29.9,49.5c-8.3,14.2-37,43.9-44.3,77.5c-7.3,33.6-4.9,83.6,8.8,180.1c0,0,2.7,24.6,0.4,91.6
				c0,0-10.9,17.1-12.6,23.6c0,0,0.9,28.5,0.2,35.1c-0.7,6.7-9.3,19.5-28.1,40.4c-18.8,20.9-19.2,20-21.7,27.2
				c0,0,8.7,19.9,42.7,35.8c-5.2-9.8-4.4-23.2-1.7-31.8c4.1-12.9,29.5-57.4,31.8-65.8c2.3-8.4-3.1-21.8,2.1-38.6
				c5.2-16.8,7.8-22.7,7.5-27.9c-0.3-5.3,2-60.9-0.9-95.3c-2.9-34.5-7.4-92.1,0.5-138.3c7.9-46.2,30.7-83,36.4-88.9
				c5.7-5.9,15.4,2.6,22.7,7.4c7.3,4.9,19.9,7.7,28.7,3.7c12.5-5.7,18.3-20,25.6-36.8c2.7-6.1,9,2.9,9.2,16.8
				c3.4-6.1,2.6-25.3,2.4-28.4c-0.7-11.6-2.5-11.7-1.5-19.7c1.5-11.8,4.8-19.9-0.9-10.8c-4.9,7.8-12.2,13.6-14.9,19.8
				c-3.1,7.2-1.5,14.7-4.1,24.3c-4.9,17.8-17,27.4-22.5,30c-5.5,2.5-14.6,2.4-21.9-12.7c-7.3-15.1,6.5-36,16.7-47.1
				c10.2-11-2-7.4-8.8-7c-6.9,0.4,5.7-16.5,9-45.9c3.4-29.4,20.3-109.2,31.8-160.2c11.5-51,18.8-105.7,23.2-154.8
				c4.4-49.1,11.6-82.7,11.6-82.7c-1.2-7.3-2.9-14.2-4.8-20.8C233.4,1137.9,218.5,1140.6,207.4,1151.1z"/>
			<path class="st1" d="M83.7,1716.1c-0.2,0.8-0.4,1.7-0.6,2.5c-7.3,33.6-4.9,83.6,8.8,180.1c0,0,2.7,24.6,0.4,91.6
				c0,0-10.9,17.1-12.6,23.6c0,0,0.9,28.5,0.2,35.1c-0.7,6.7-9.3,19.5-28.1,40.4c-18.8,20.9-19.2,20-21.7,27.2
				c0,0,10.7,24.5,54.8,40.8c0,0,21.9,4.1,43.3,1c21.5-3.1,48-25.3,51.2-36.3c0,0-0.3-10.4-13.4-25.2c0,0-0.9-6.1,3.4-10.6
				c4.3-4.5,9.3-8.8,9.6-16.8c0,0-3.9-9.7-7.8-14.9c0,0,1.2-7.4,0.4-9.5c-0.8-2.1-4.1-3.8-4.1-3.8s0.5-30.1,0.5-42.4
				c0.1-12.3-2-78.5,2.5-112.8c4.5-34.3,45.5-113.4,58.4-145.5c0.7-1.7,1.3-3.4,1.9-5.1C192,1760.4,100,1741.9,83.7,1716.1z"/>
			<path class="st0" d="M83.7,1716.1c-0.2,0.8-0.4,1.7-0.6,2.5c-7.3,33.6-4.9,83.6,8.8,180.1c0,0,2.7,24.6,0.4,91.6
				c0,0-10.9,17.1-12.6,23.6c0,0,0.9,28.5,0.2,35.1c-0.7,6.7-9.3,19.5-28.1,40.4c-18.8,20.9-19.2,20-21.7,27.2
				c0,0,8.7,19.9,42.7,35.8c-5.2-9.8-4.4-23.2-1.7-31.8c4.1-12.9,29.5-57.4,31.8-65.8c2.3-8.4-3.1-21.8,2.1-38.6
				c5.2-16.8,7.8-22.7,7.5-27.9c-0.3-5.3,2-60.9-0.9-95.3c-2.9-34.5-7.4-92.1,0.5-138.3c1.1-6.2,2.4-12.2,3.9-18
				C100.6,1731.1,88.6,1723.9,83.7,1716.1z"/>
			<path class="st2" d="M79.1,1756c26.9,28.7,96,33.5,133,22c0.8-1.7,2.8-6.1,3.5-7.7c5.4-11.7,10-22,13.1-29.7
				c0.7-1.7,1.3-3.4,1.9-5.1c-38.7,25-130.6,6.5-147-19.4c-0.2,0.8-0.4,1.7-0.6,2.5c-1.8,8.2-3,17.5-3.6,28.2
				C79.4,1748,79.2,1754.7,79.1,1756z"/>
			<path class="st3" d="M150.2,1783c13,1.2,26,1,37.9-0.3c6-12.4,13-28.3,17-37.7c-15,2.9-32.4,2.9-49.2,0.8
				C152,1762.8,150.6,1775.5,150.2,1783z"/>
			<path class="st4" d="M82.4,1759.2c6.3,5.7,14.4,10.3,23.5,13.9c0.1-13.5,1.2-21.7,5.6-38.2c-9.9-4-18.2-8.6-23.5-13.8
				C84.7,1732,83.8,1746,82.4,1759.2z"/>
		</g>
		<path class="st0" d="M212.1,704c0,0,33.7,2.5,65.6,3.2c31.9,0.7,44.6,2.1,54.4,4.9c9.8,2.8,42.1,13.3,47.7,15.4
			c5.6,2.1,15.1,0.7,26.3-4.6c15.5-7.3,32.5-6.7,49.2-7.6c11.2-0.6,19.9-1.9,1.1-2.6c-27.4-1.1-38.1-1.8-46.2,0
			c-8.1,1.8-15.4,8.1-24.9,8.1c-9.5,0-25.3-11.2-44.6-15.8c-19.3-4.6-56.9-4.9-73-4.9C251.8,700.1,188.3,700.5,212.1,704z"/>
		<path class="st2" d="M209.6,1106.7c31,1.5,138.6,6.4,192.9,5.2c36.8-0.8,61.6-2.6,75.9-4c1.6,19,6.3,43.9,6.3,43.9
			c0.4,1.2,0.7,2.5,1,3.7c-0.3,0-2.5,0.3-2.8,0.3c-15.4,1.4-45,3.7-82,4.2c-55.1,0.8-126.8-0.6-193.5-9.5l1.2-11.1
			C209.1,1132.4,209.4,1120.5,209.6,1106.7z"/>
		<path class="st4" d="M220.8,1107.2c8.9,0.4,20.4,0.9,33.3,1.5l-3.2,46.5c-10.8-0.9-21.7-2.1-32.4-3.3L220.8,1107.2z"/>
		<path class="st3" d="M457.4,1109.6c0.3,12.1,0.9,33,1.4,48c-14.1,0.9-31.8,1.8-52,2.2l-0.7-48
			C427.3,1111.3,444.2,1110.5,457.4,1109.6L457.4,1109.6z M395.6,1160c-5.7,0.1-11.6,0.1-17.7,0.1l-1.5-48.1c6.4,0,12.6,0,18.2,0
			L395.6,1160z"/>
		<path class="st3" d="M580.5,1034.1c4,7.4,11.5,21.8,15.9,33.9c-14.9,1.4-28.5,4.5-40.5,8.5c-5-6.5-14.6-19.6-21.1-31.3
			C552,1038.9,568.3,1035.7,580.5,1034.1z"/>
		<path class="st12" d="M327.6,462.8c12,6.5,22.3,10.5,37.2,7.6c7.6-1.5,13.4-3.3,18.3-5c-8-2.7-9.4-5.9-29-11.1
			c20.4,2.3,21.8,6.1,36.9,8.5c3.9-1.2,7.9-2.1,12.1-1.9c0,0-2.9-21.2-33.8-31.3c-30.9-10.2-44.1,1.7-44.1,1.7s27.4,3.9,40.4,12.1
			c0,0-34.9-7.9-48.4-7c-19,1.2-28.2,2.6-33.5,22.1C296.4,456.9,316.1,456.6,327.6,462.8z"/>
		<path class="st6" d="M361.9,1261.6c0,0,9.5,11.2,18.6,16.5c0,0,21.4,0.4,36.5-7.7c9.6-5.1,27.6-22.9,43.7-53.4
			c-14.3,12.3-41.5,42.1-59.7,47.7C382.7,1270.4,361.9,1261.6,361.9,1261.6z"/>
		<path class="st1" d="M6.7,1076.3c0.1,0.8,0.1,1.5,0.2,2.3c2.4,21.7,10.9,44.4,31.2,104.3c0,0,31.5,96.9,38.1,118.9
			c6.6,22,12.3,39.6,16.1,53.3c0,0,0.5,12.4,3.5,19c0,0,6.3,4.7,17.7,12.1c3.5,2.3,7.6,6.1,12.1,8.1c0,0,10.1,2.4,15.7-1.2
			c0,0,18.3,4.2,20.6-5.8c0,0,15.4,2.5,21.1-6.5c5.6,2.3,19.2-3.5,15.7-20.2c-0.2-1.1-5.2-14-5.6-15.3c2.2-5.1,0.3-12.3-0.6-19.2
			c-1-7.7-1.4-14.9-3.8-16.6c0,0-7.6-6.3-19.2-14.7c-11.6-8.4-17.1-10.6-24.1-10.8c0,0-12.7-18.2-18.4-35.2c0,0-7.7-26-6.1-61.8
			c1.6-35.8,5.7-84.1,6.4-104.8c0-0.7,0-1.4,0-2.2c-12.7-7.7-31-14.7-56.2-15.1C40.3,1064.4,19.2,1070.7,6.7,1076.3z"/>
		<path class="st0" d="M6.7,1076.3c0.1,0.8,0.1,1.5,0.2,2.3c2.4,21.7,10.9,44.4,31.2,104.3c0,0,31.5,96.9,38.1,118.9
			c6.6,22,12.3,39.6,16.1,53.3c-3.2-35.7-8.3-76-21.3-114.8c-12.9-38.8-37.2-137.9-39.7-154.3c-0.8-5.3-1-11.2-0.8-17.4
			C20.6,1070.8,12.7,1073.6,6.7,1076.3z"/>
		<path class="st2" d="M6.7,1076.3c0.1,0.8,0.1,1.5,0.2,2.3c1.1,10.1,3.5,20.3,7.8,34.4c21.2-7.8,61.9-16.9,110.7,0.8
			c0.9-12.9,1.6-24,1.8-31.5c0-0.7,0-1.4,0-2.2c-12.7-7.7-31-14.7-56.2-15.1C40.3,1064.4,19.2,1070.7,6.7,1076.3z"/>
		<path class="st3" d="M75.7,1103.8c12.3,0.5,25.7,2.6,39.8,6.8c1.5-13.9,2-28.3,2.2-35.5c-11.5-5.3-26.2-9.4-44.9-10
			C72.9,1080.8,74,1093.6,75.7,1103.8z"/>
		<path class="st4" d="M19,1111.6c4.1-1.4,8.8-2.7,14-3.9c-2.2-12.7-5.1-25.4-5.5-38.3c-6.2,1.5-11.5,3.2-16,5
			C12.7,1088.3,15.4,1100.5,19,1111.6z"/>
		<path class="st0" d="M95.8,1374.1c0,0,10.9,2.1,14.8-4.2c0,0,11,1.5,16.6-0.5c5.6-2,7.7-9.7,7.7-9.7s9.8,1.3,17.1-0.7
			c7.4-2,8.9-9.5,8.9-9.5s7.6-2,12-6c4.4-4,6.9-11.4,7.4-17c0,0,0.8-14.8,8.2-16.9c2.4,1.7,2.8,8.9,3.8,16.6
			c0.9,6.9,2.7,14,0.6,19.2c0.4,1.2,5.4,14.1,5.6,15.3c3.6,16.6-10.1,22.5-15.7,20.2c-5.7,9-21.1,6.5-21.1,6.5
			c-2.3,10-20.6,5.8-20.6,5.8c-5.6,3.7-15.7,1.2-15.7,1.2c-4.5-2-8.6-5.9-12.1-8.1C102.1,1378.8,95.8,1374.1,95.8,1374.1z"/>
		<path class="st1" d="M193,1345.4c0,0-7-11.5-10.6-16.6c0,0,0-4.4,2.1-7.1c0,0,3,10.8,5.6,14.7c1.8,2.7,3,5,3.6,6.6
			C193.5,1343.9,193.3,1344.6,193,1345.4L193,1345.4z M139.1,1394.2c0.8-0.3,1.5-0.6,2.2-1.1c0,0-3.3-3-6.1-7.4
			c-2.8-4.5-11.3-10.5-13.4-11.2c-2.2-0.6-6.1-2.5-8-2.8c0,0,5.2,3.1,10.6,6.8C129.8,1382.3,134.9,1390.6,139.1,1394.2L139.1,1394.2
			z M160.1,1390.7c-1.6-1.1-5.2-3.9-8-8.5c-3.8-6.1-6.8-14.4-14.9-20.6c0,0,7.6,1.3,12.2,9.5c4.7,8.2,10.4,15.2,12.5,16.2
			C161.6,1388.7,161,1389.8,160.1,1390.7L160.1,1390.7z M181,1383.1c0.7-0.7,1.4-1.4,1.9-2.3c0,0-4.3-4.7-8.9-13.5
			c-4.5-8.8-2.9-12.1-10.8-15.9c5.1,7.6,6.6,14.3,10.5,21.7C175.8,1376.8,178.2,1380.2,181,1383.1z"/>
	</g>
</g>
</svg>
