<?xml version="1.0" encoding="utf-8"?>
<!-- Generator: Adobe Illustrator 24.0.3, SVG Export Plug-In . SVG Version: 6.00 Build 0)  -->
<svg version="1.1" id="Layer_1" xmlns="http://www.w3.org/2000/svg" xmlns:xlink="http://www.w3.org/1999/xlink" x="0px" y="0px"
	 viewBox="0 0 1125 2436" style="enable-background:new 0 0 1125 2436;" xml:space="preserve">
<style type="text/css">
	.st0{fill-rule:evenodd;clip-rule:evenodd;fill:#E7F4FC;}
	.st1{fill-rule:evenodd;clip-rule:evenodd;fill:#C1E8FB;}
	.st2{fill-rule:evenodd;clip-rule:evenodd;fill:#0767B1;}
	.st3{fill-rule:evenodd;clip-rule:evenodd;fill:#4FA6DC;}
	.st4{fill-rule:evenodd;clip-rule:evenodd;fill:#022832;}
	.st5{fill-rule:evenodd;clip-rule:evenodd;fill:#645A60;}
	.st6{fill-rule:evenodd;clip-rule:evenodd;fill:#C0E7FA;}
	.st7{fill-rule:evenodd;clip-rule:evenodd;fill:#7E4238;}
	.st8{fill-rule:evenodd;clip-rule:evenodd;fill:#A15F4B;}
	.st9{fill-rule:evenodd;clip-rule:evenodd;}
	.st10{fill-rule:evenodd;clip-rule:evenodd;fill:#3E1815;}
	.st11{fill-rule:evenodd;clip-rule:evenodd;fill:#E8F6FD;}
	.st12{fill-rule:evenodd;clip-rule:evenodd;fill:#D0D2D3;}
	.st13{fill-rule:evenodd;clip-rule:evenodd;fill:#4B251B;}
	.st14{fill-rule:evenodd;clip-rule:evenodd;fill:#130C0E;}
	.st15{fill-rule:evenodd;clip-rule:evenodd;fill:#6B1231;}
	.st16{fill-rule:evenodd;clip-rule:evenodd;fill:#D68D6C;}
	.st17{fill-rule:evenodd;clip-rule:evenodd;fill:#5E2A0E;}
	.st18{fill-rule:evenodd;clip-rule:evenodd;fill:#7C361A;}
	.st19{fill-rule:evenodd;clip-rule:evenodd;fill:#AC5E6C;}
</style>
<g>
	<path class="st0" d="M418.1,457.2c-2.8-0.3-44-4.1-55.2,8.4c-6.5,7.2-4.2-6.1-18.4,6.2c-0.7,0.6-19.6-4.1-23.7,0.8
		c-16.5,19.7-22-1.6-42.6,22.5c-2.4,2.8-8,0.2-11,10.2c-1.3,4.4-20.9,11.7-26.1,15.5c-7.3,5.4,5.2,5.4-9.4,8.3
		c-7,1.4,0.9,7.6-11.8,10.9c-2.9,0.7-13.9,26.1-23,30.3c-6.6,3.1-2.6,12.7-16.5,18.4c-11.2,4.6-0.2,22.9-8.8,27
		c-5.7,2.7-27.4,25.1-27.4,31.1c0,18.4-15.5,3.5-14,33.5c0.9,17.4-9.8,0.2-2.6,27.9c2,7.7-11.2,14.8-4.5,26.4
		c0,0.1-5.6,12.1-2.2,17.4c0.1,0.1,0.6,11-2.7,15.2c-3.7,4.8-0.2,12.7-0.6,20c-0.6,9.8,7.3,12.9,11.1,11.2c3.2-1.4,3.2-7.3,6.1-12.3
		c16.1-26.9,19-12,8.3-3.1c-3.9,3.2,7.2,8.8,2.2,18.2c-0.7,1.3-4.4,14.3-1.1,18.7c4.2,5.6,11.7,1.8,11.9-11.7
		c0-5.2,11.1-4.6,11.3-5.7c1.6-6.6-2.3-10.9,10.3-10.9c0-0.2,1.2,9.8-3.7,12.3c-2,1,1.7,6.6-2.7,13.1c-4.6,6.8,8.3,13.3-5.4,25.6
		c-8.3,7.5,16,22.4,8.9,4.6c-5.2-13.1,7.8,4.3,9.6-22.2c0.4-5.4,1.9-7.2,7.7-12.5c1.1,11,5.4,16.8,4.8,22
		c-2.5,20.6-8.9,11-11.1,18.7c-4.3,14.6,15.7,14.4,7.6,28.8c-10.7,19,4.4,17.1,5,31.3c0.2,4.7,3.1,2.4,3.1,19.4
		c0,11.1,18.7-1.3,7.8-15.4c-7.2-9.3,5.7-6.1-0.3-23c-6.4-18.1,14.8-5.3,3.7-20.9c-1.2-1.7,1.6-15.6-1.2-22.4
		c-4.3-10.4,16.4-18.7,11.6,5.4c-2.8,14.2,75.8-115.5,85.9-113.7c96.7,17.8,173.5,29.2,234.5,72.6c9.9,7.1,30.9,35.5,45.2,22.3
		c3.4-3.1,15.9-3.3,15.9-7.8c3.5-0.3,11.7,21.3,16.3,21.7c12.2,1.3,8.6,14,4.4,17.9c-2.2,2.1-13.5,16.2-4.9,20.4
		c4.1,2,10.1-4.2,20.5-14c9.7-9.1-10.3-9.9,6.5-15.3c17-5.5-4.8-27.5,6.7-21.2c7.2,3.9,3.9,10.4,6.6,18.5c2.5,7.5,8,16.5,8,3.4
		c0-22.9,5.5-7.7,1.4-24.2c-2.5-10.1,5.9-19.4-3.7-36.3c-3.9-6.9,4.2-6.9-0.2-23.6c-4.9-18.8,16.8,0.9,8.2-17.3
		c-6.2-13,5.3-20.3,9.7-1.2c5.9,2,12-17.6,15.7,11.1c1,7.7,16.7-22.5,18.7-10.8c1.1,6.2,11.1,17.7,15.4,5.7
		c3.2-8.9,0.1-7.6,0.1-18.8c0-12.3-11.8,0.1-4.4-25.9c0.8-2.9-4.7-6.1-7.8-7.6c-16.6-7.9,15.3-7.2-3.2-18.5
		c-39-23.9,4.2-20.6-8.4-47.7c-7.6-16.3-1-17.2-18.1-18.1c-9.9-0.5,3.6-13.4-14.6-25.6c-11-7.4-19.7-24.4-30.5-22.8
		c-13.6,2-37.7-29.5-46.1-40.1c-2.4-3-50.3-45.8-51.8-45.8c-15.6,0-19.1-2.2-33.2-11.1c-4-2.5,7.1-13.8-8.8-17.7
		c-13.1-3.2-8.9-21-50.9-15.8C442.1,450.8,435.6,446.6,418.1,457.2z"/>
	<path class="st1" d="M576,860.3l0.6-0.4c10.1-6.9-2.1-9.3,12.2-22.5c3.4-3.1,15.9-3.3,15.9-7.8c3.5-0.3,11.7,21.3,16.3,21.7
		c12.2,1.3,8.6,14,4.4,17.9c-2.2,2.1-13.5,16.2-4.9,20.4c4.1,2,10.1-4.2,20.5-14c9.7-9.1-10.3-9.9,6.5-15.3
		c17-5.5-4.8-27.5,6.7-21.2c7.2,3.9,3.9,10.4,6.6,18.5c2.5,7.5,8,16.5,8,3.4c0-22.9,5.5-7.7,1.4-24.2c-2.5-10.1,5.9-19.4-3.7-36.3
		c-3.9-6.9,4.2-6.9-0.2-23.6c-4.9-18.8,16.8,0.9,8.2-17.3c-6.2-13,5.3-20.3,9.7-1.2c5.9,2,12-17.6,15.7,11.1
		c1,7.7,16.7-22.5,18.7-10.8c1.1,6.2,11.1,17.7,15.4,5.7c3.2-8.9,0.1-7.6,0.1-18.8c0-12.3-11.8,0.1-4.4-25.9
		c0.8-2.9-4.7-6.1-7.8-7.6c-16.6-7.9,15.3-7.2-3.2-18.5c-39-23.9,4.2-20.6-8.4-47.7c-7.6-16.3-1-17.2-18.1-18.1
		c-6.7-0.4-2.6-6.5-5.1-14.2c-8.7-2.9-21.3-6.5-25.8-1c-0.1,0.2,2.4,8,6.6,6.6c15.2,12.9,5.7,4.3,9.3,23c1.5,7.6,13.6,4.8,2.3,8.8
		c-7,2.5,11.4,8.9,6.8,20c-4.8,11.7,12.7,13.1,10.4,22.4c-0.9,3.6,19.3,0.4,2.5,7.7c-9.2,4,10.6,8.7,7.9,10.3
		c-13.1,7.9,2.2,4.8,6,14.5c-2.2,3.4-10.6-2.7-5.4,10c4.9,12-5-2.6-11.5,4.1c-4.8,5-6.6-9-12.8-4.2c-5.4,4.3-9.1-9.4-14.5-12.5
		c-6.2-3.6,9.1-5.7-10.1-14.6c-7.5-3.5-4.5-18.5-10.8-13.7c-2,1.5,6.8,17.8,7.4,24.9c0.7,8.7-8.1,5.9,1.5,18.2
		c5.2,6.6-15.8,1.5-6,13.9c6.2,7.8-13.4-1.1-0.3,14.5c4.2,5-8.3,1.4-6,12.6c1.3,6.6-5.6,9.2-2.6,16.2c3.3,7.7-10.1,9.3-1.5,18.9
		c5.9,6.6-16.7,6.8-9.8-9c1.8-4.1-8.7-1.5-5.7-8.1c11.2-24.7-3.1-2.8-5.4-27.5c-0.3-2.9-8.3-4.1-13.3-7.6c-3.2-2.3-6.9,1.7-10-0.8
		c-8.4-6.9-11.6-0.7-18.5-2.8c-6.7-2-5.9-7.5-15.1-8.2c-3.6-0.3-10.1-5.8-14.3-9c-6.8-5.1-12.8-1.1-12.9,3c-0.1,3,16.8,29.1,13.6,42
		c-1.1,4.5-8.8-1.1-1.8,19.5c2.8,8.4,0.1,8.5,6.8,19c5.4,8.5-19.9-8.3,7.4,19C568.9,851.4,572.1,856,576,860.3z"/>
	<path class="st2" d="M571,758.6c38.1,63.1,104.7,172.8,214.9,249.9c119.1,83.2,265.3,76.7,288.7-34.3
		c68.1,153-62.7,195.4-74.7,273.7c-8.7,56.8,42.8,168.3-61.9,182.2c-104.7,13.8-131.9,59-122.9,194.4
		c-88.1-39.1-269.7-148.2-417.8-510.3c-37.8-92.5-86.6-211.3-103.7-325.6L571,758.6z"/>
	<path class="st3" d="M998.9,1260.1c-150.1-61.9-353.8-224.1-386.9-371.9c-6.1-27.2-9-45.7-2.9-68.6c39.8,60,96.8,133.1,176.7,189
		c119.1,83.2,265.3,76.7,288.7-34.3c68.1,153-62.7,195.4-74.7,273.7C999.3,1251.8,999,1255.8,998.9,1260.1z"/>
	<path class="st4" d="M510.3,710.7c-24.3,2.9-37.5,0.2-49.1,17.1c-11.7,17.6-10.6,46.3,26.5,81.5c0,0,18,41.6,31.9,68.4
		c13.9,26.8,23.9,46.7,31.4,64.4c7.6,17.7-0.4,40.8,52.5,110.2c52.9,69.3,70.5,81.1,85.9,109c0,0,7,9.8,12.7,11.6
		c0,0,11.3,16.3,16.1,28.5c4.8,12.2,18.9,26.3,21.2,29.1s10.7-5.9,34.6-6.6c23.9-0.7,24.6-0.7,33.2-5.4l-1.5-22.7
		c0,0,5.2-25.4,3.6-28.8c-1.7-3.4-23.6-20.5-36-25.2c-12.3-4.7-42.7-5.3-42.7-5.3s-42.5-46.8-51.2-69.5c-8.7-22.7-18-61.5-38.8-84.4
		c-20.8-22.9-35.5-37.6-35.5-37.6s-10.8-21-13.4-57.2c-2.6-36.2-15.9-69.8-39-110.6C529.5,736.4,510.3,710.7,510.3,710.7z"/>
	<path class="st5" d="M797.7,1191.6c0,0,4-19.1,1.2-23c-2.8-3.9-27.4-19.8-32.4-20.7c-5-0.9-35.6-5-41-4.3c0,0-7.3-7.6-11.6-12.7
		c-4.3-5-0.2,16.6-0.2,16.6l8.4,6c0,0,37.9,2.2,42.5,3.7c4.7,1.5,22.4,11.7,25.2,14.2C792.5,1173.8,795.3,1201.4,797.7,1191.6z"/>
	<path class="st3" d="M816.8,1531.9c-234.6-216.1-376.4-402.2-451.5-731.8c-5.2-22.8,315.7,532.8,546.4,634.6
		C853.9,1447.3,825.7,1474.7,816.8,1531.9z"/>
	<path class="st4" d="M709.5,1044.6c0,0,32.4,82.4-5.4,240.5c0,0-26,93.7-31.9,112.6c-6,18.9-1.2,35.6,2.2,41.5c3.5,6,4,22.9,0,44.8
		c0,0,14.5,46.4,22,108.5c7.5,62.2,14.4,97,19.9,119.9c5.5,22.9,37.5,115.6,42.5,125.6c5,9.9,5.5,80.6,9,90
		c3.5,9.4,30.3,27.4,45.8,33.8c15.4,6.5,19.4,12.9-14.9,11.4c-34.3-1.5-51.2-2.5-56.7-6c0,0-28.8-48.2-46.7-62.7
		c0,0-5,44.8-4.5,57.7c0,0-8,2.5-13.4-3c0,0-7-59.7-27.8-93c0,0,11.9-30.8,37.8-42.3c0,0-1.2-49-48-134.5
		c-46.7-85.5-54.7-103-58.7-114.9c0,0-10.7-43.5,12.7-144c0,0-10.9-26.4-13.4-73.1c-2.5-46.7-14.9-89.5-18.9-103.9
		c-4-14.4-15.7-78.3-12.7-110.2C551.2,1111.6,650.2,1007.2,709.5,1044.6z"/>
	<path class="st5" d="M679.2,1073.7c10.1-8.6,20.3-15.8,23.1-2c6.7,31.9,14,100.3-10.6,203.2c0,0-24.8,87.1-29.7,104.8
		c-7.2,25.9-16.5,23.2-10.9-8.7c15.3-86.8,36.2-159.2,28.7-250.5C677.4,1091.9,673.1,1078.9,679.2,1073.7z"/>
	<path class="st6" d="M418.1,457.2c-2.8-0.3-44-4.1-55.2,8.4c-6.5,7.2-4.2-6.1-18.4,6.2c-0.7,0.6-19.6-4.1-23.7,0.8
		c-16.5,19.7-22-1.6-42.6,22.5c-2.4,2.8-8,0.2-11,10.2c-1.3,4.4-20.9,11.7-26.1,15.5c-7.3,5.4,5.2,5.4-9.4,8.3
		c-7,1.4,0.9,7.4-11.8,10.9c-19.3,5.2-7.7,23.6-23,30.3c-6.7,2.9-2.6,12.7-16.5,18.4c-11.2,4.6-0.2,22.9-8.8,27
		c-5.7,2.7-27.4,25.1-27.4,31.1c0,18.4-15.5,3.5-14,33.5c0.9,17.4-9.8,0.2-2.6,27.9c2,7.7-11.2,14.8-4.5,26.4
		c0,0.1-5.6,12.1-2.3,17.4c0.1,0.1,0.6,11-2.7,15.2c-3.7,4.8-0.2,12.7-0.6,20c-0.6,9.8,7.3,12.9,11.1,11.2c3.2-1.4,3.2-7.3,6.1-12.3
		c16.1-26.9,19-12,8.3-3.1c-3.9,3.2,7.2,8.8,2.2,18.2c-0.7,1.3-4.4,14.3-1.1,18.7c4.2,5.6,11.7,1.8,11.9-11.7
		c0-5.2,11.1-4.6,11.3-5.7c1.6-6.6-2.3-10.9,10.3-10.9c0-0.2,1.2,9.8-3.7,12.3c-2,1,1.7,6.6-2.7,13.1c-4.6,6.8,8.3,13.3-5.4,25.6
		c-8.3,7.5,16,22.4,8.9,4.6c-5.2-13.1,7.8,4.3,9.6-22.2c0.4-5.4,1.9-7.2,7.7-12.5c1.1,11,5.4,16.8,4.8,22
		c-2.5,20.6-8.9,11-11.1,18.7c-4.3,14.6,15.7,14.4,7.6,28.8c-10.7,19,4.4,17.1,5,31.3c0.2,4.7,3.1,2.4,3.1,19.4
		c0,11.1,18.7-1.3,7.8-15.4c-7.2-9.3,5.7-6.1-0.3-23c-6.4-18.1,14.8-5.3,3.7-20.9c-1.2-1.7,1.6-15.6-1.2-22.4
		c-4.3-10.4,16.4-18.7,11.6,5.4c-2.8,14.2,8.7,28.9-1.4,30.6c-6.6,1.1,5.3,26.5,15.8,31.6c2.3,1.1,0.2,5.8-1.6,10.8
		c15.2-13.4,7.1-31.2,11.2-42.6c7.8-21.5,0.4-26.6,11.7-39.6c4.3-5-1.4-21.2-5.9-26.7c-12.2-14.7,24.8-33.6,30.5-40.8
		c7.5-9.5,31.9-27.9,27.9-41c-2.4-7.7,0.7-8.9,0.6-8.9c-15.9,0-11.9-0.8-24.5,5.2c-18.4,8.7-3.8,1.5-16.8,11
		c-15.4,11.2-5.3,17.9-21.3,27.4c-18.3,11-3.1,12.9-10.9,17.7c-10.4,6.4-15.5,18.1-18.5,19.5c-11.2,5.3-6.4,1.9-16.4-13.1
		c-14.1,0.8,8.6-10.7-16.6-15.8c-4.5-0.9-2.5-4.6-3.3-3.9c-4.8-21.5,8.5-7.6,6.8-19.9c-2-14.7,15.1-12.7,15.5-17.1
		c1.4-17.1,11-8.6,11.5-15.4c0.9-11.8,10.2-11.4,8.4-15.6c-6.4-14.5,12.5-11.3,21.5-19.9c17.1-16.4-0.5-10.7-1.2-9.1
		c4.8-1.7-31.5-5.5-25.4,9.3c5.8,14.1-30.4,21.8-30.4,41.7c0,4.3-26,11.9-24,9.9c8.9-8.5-14.5,2.4-14.5,2.5
		c-7.1,7.8-8.4,4.5-12.6,6.3c-7-5.4-0.9-16.8-0.2-20.2c1.7-8.1,10.6-18.1,7.8-23.6c-15-29.4,15.4-31,13.4-36.5
		c-8.1-21.7,0.5-10.2,6.5-21.5c-7.8-18.3,19.2-9.8,19.2-22.2c0-10.6,21.1-6.1,10.7-21.5c-5.5-8.2,16.3-2,14.9-22.2
		c-0.8-11.1,17.7,2.1,11-14.2c-10.5-25.2,29.2-6.6,22.5-19.5c-14.6-28.4,18.9-6.6,16.8-23c-2.8-22.2,19.2-6.2,24.9-19.6
		c7.2-16.8,22.1-3.4,24-9.6c4.8-15.9,28.1,5.9,27.6-10.7c-0.7-19.5,20.4-3.1,27.2-4.1c15.9-2.4-8.9-1.1,13.5-9.2l27.4-6.9
		c5.4-1.4,2.7-6,16.5-4.9c3.1,0.2,6.2-3.9,7.7-9.8C427.1,452.4,423.1,454.2,418.1,457.2z"/>
	<path class="st7" d="M483.2,636.3c-3.5,11.6-7,28.7-6,45.1c0,0-0.4,20.8,5.6,21.8c0.9,0.2,5.3,0.3,6.5,0.4
		c9.8,0.6,27.5,1.8,34.6,2.3c8,0.5,9.1,45.3,6.8,79.5c-81.7-3-200.8-79.6-166.7-83.7c8.3-1,17.5-2.3,22.1-3
		c13.8-2.1,12-4.7,13.1-24.8c1.4-27.6-3.9-52.7-3.9-52.7L483.2,636.3z"/>
	<path class="st8" d="M506.6,716.7c-9-1.1-29.7-0.7-45.7-7.1c-3.9-1.5,9.6-0.8,8.5-8.1c-1.1-7.5-3-18.8-4-46.2
		c-1.9-48.7-56.1-20.9-56.1-20.9s0,42.9,0.4,55.4c0.4,12.5,18.3,16.2,13.6,17.2c-4.7,0.9-22.4-0.2-22.4-0.2s21.4,15.9,31.1,23.1
		c9.7,7.3,58.2,35.1,87.5,41.6C519.5,771.5,518.2,738.5,506.6,716.7z"/>
	<path class="st7" d="M525.9,775.5c0,0-13.8-13.6-20.9-19.4c0,0,10.6,15.3,14.7,21.4l3.4,1.3L525.9,775.5z"/>
	<path class="st4" d="M522.4,774.3c-1.9-26.7-10.1-55.8-21.9-70c8.9,0.6,18.7,1.3,23.5,1.6c8,0.5,28.8,6.5,42.3,40.3
		c0,0,44.6,16,51.3,28.3c6.7,12.3,9.3,55.2-24.5,73.1c0,0,9.2,9.2,10.7,38c1.5,28.8,5.7,46.5,12.7,57.4c0,0,66.9,19.9,93,101.5
		c0,0-32.8,9.9-50.7,35.3c-17.9,25.4-69.6,55.7-102,72.1c-1.5-12.7-2-33.8-40.8-67.6c-38.8-33.8-65.4-45.5-84.5-48.7
		c6.7-22.9,10.9-34.3,25.9-59.2c4-18.4,0-24.9,0-24.9s-15.9-23.4-34.3-36.3c-18.4-12.9-72.9-67.4-83.3-123.1
		c-10.4-55.7-8.5-86.5,24.4-90.5c5-0.6,9.3-1.1,12.9-1.5C399.9,704.6,447.9,754.6,522.4,774.3z"/>
	<path class="st4" d="M564.8,1142.8c0,0-5,43.1-88.4,132.8c0,0-42.6,48.7-56,78c-13.4,29.4-40,67.7-78.6,99.8c0,0-18,58.9-28.2,90.5
		c-10.2,31.6-26.6,67.7-56,103.2c-29.4,35.5-83.1,117.9-112.9,203.8c0,0,16.5,6.3,22.1,27.9c0,0-25.8,52.7-24.3,80.5
		c0,0-0.1,5.5-14.2,4c0,0-0.5-28.4-1.7-37.8c0,0-14.7,24.5-16.1,39.5c-1.4,15.1-3.4,15.2-14.7,24c-11.3,8.8-61.2,29.3-71.6,31
		c-10.3,1.7-5.1-8.6,2.9-22.1c8-13.5,18.1-28.8,24-34.6c0,0,29.6-101.8,49.1-150.6c0,0,37.1-70.7,54.8-136.3
		c17.8-65.6,29.8-180,48.1-210.3c0,0,11.2-21,88.9-70.7c0,0,16.9-30.5,31.4-79.4c3.3-11.2,13.8-43.8,18.6-63.1
		c16.8-68.4,22.2-120.2,89.6-217.3c0,0,56.3-46.6,111.2-10.7C597.6,1060.9,564.8,1142.8,564.8,1142.8z"/>
	<path class="st5" d="M338.5,1340.8c-5.4,13-14.7,21.4-14.9,17.9c-0.3-5,6.9-21.8,13.5-45.5c3-10.7,11.7-42.1,16.2-60.5
		c14.3-58,19.9-103.5,66.4-178.2c5.7-9.1,14.7-16.5,25.1-16.7c5.5-0.1-3.4,15.1-8.7,24.5c-10.5,18.9-29.1,52.4-45.2,99
		C366.4,1252.1,363.5,1280.9,338.5,1340.8z"/>
	<path class="st4" d="M701.9,1024.9c2.8,6.1,5.3,12.7,7.6,19.7c0,0-32.8,9.9-50.7,35.3c-17.9,25.4-69.6,55.7-102,72.1
		c-1.5-12.7-2-33.8-40.8-67.6c-38.8-33.8-65.4-45.5-84.5-48.7c2.7-9.1,4.9-16.4,7.6-23.4c38.9,2.9,114.6,31.4,148.2,31.9
		C618.3,1044.6,684.1,1029.2,701.9,1024.9z"/>
	<path class="st4" d="M701.9,1024.9c2.8,6.1,5.3,12.7,7.6,19.7c0,0-14.7,4.4-29.7,15c-1.7-10.7-4.7-20.6-7.3-28
		C685.4,1028.8,696.1,1026.3,701.9,1024.9z"/>
	<path class="st9" d="M439.6,1037.5c3.1-2.1,9-5.7,14.5-7.1c0,0,27.2,2.5,39-7.1c-20.4-5.3-39.7-9.9-54.1-11c-2.7,7-5,14.3-7.6,23.4
		C434.1,1036.1,436.8,1036.7,439.6,1037.5z"/>
	<path class="st4" d="M404.1,714.8c-3.4-4.5-47.1-31.1-73-17c-25.9,14.2-47.7,40.5-60.4,61.4c-12.7,20.9-81.3,110.9-106.7,133.3
		c0,0,8.1,16,21,34.2c12.9,18.2,60.9,77.6,192.7,126.3c0,0,16.1,14.9,21.6,15c5.5,0.1,22.8-17,32-26.1l5.1-5.2c0,0,8.8-6.8,16.9-8.7
		c0,0,34.2,3.1,43.6-9.8c0,0-32.7-6.2-41-8.7c0,0,13.9-8.9,20.4-9.4c6.5-0.6,30.5-4.9,42.1-26c0,0-34.3,1-53.5-1l6.7-5.5
		c0,0,20.9-5,25.1-15.2c0,0-23.1,2.7-33.6,2.2c0,0-16.2,14.4-26.9,21.1c0,0-16.2,21.9-23.9,28.8c0,0-7.7,9-9.4,12.9
		c0,0-45.6-22.3-71.5-40.9c-25.9-18.7-35.3-32.1-40-40.3c-4.7-8.2-17.2-37.5-36.6-51.2c0,0,26-23.5,41.2-35.4
		c15.2-11.9,48-32.6,58.7-40.8C365.5,800.7,408,766.7,404.1,714.8z"/>
	<path class="st10" d="M398.8,646.4c1,1,2,2.1,3.1,3.2c8.5,8.8,29.1,30,41.1,34.9c12.1,4.9,28.2,3.6,34,1.4l0.3-0.1
		c-0.1-2.6-0.1-4.4-0.1-4.4c-1-16.4,2.4-33.6,6-45.1l-87.8-15.2C395.4,621.1,397.6,631.6,398.8,646.4z"/>
	<path class="st7" d="M387.2,610c1.4,11.7,6.3,16.3,14.7,24.2s29.1,27.2,41.1,31.7c12.1,4.4,28.2,3.3,34,1.3
		c5.2-1.8,10.6-8.7,18.9-17.3c10.3-10.8,17.8-25.1,21.9-39.4c2.4-8.5,6.3-18.5,7.3-26.2c0.9-7.1,0.1-11.8-0.5-15
		c-1.8-10.4-2-14.5-0.8-28.8c1.2-14.3-9.8-66.5-39.4-74.8c-37.6-10.5-90.1,0.6-102.6,39.7c-13.1,41.2,1.8,69.3,1.8,69.3
		s-5.2-6.8-12.4-4.9c-7.2,1.8-13,13.8-6.7,31.4c2,5.6,7.6,13.6,14.3,13.9C381.3,615.1,385,615,387.2,610z"/>
	<path class="st8" d="M420.9,485.3c0,0,6.4,0.3,10.1,2.8c3.7,2.5,9.6,8,15.5,5.7c6-2.3,8.8,0.9,13.1,6.4c4.2,5.5,5.4,3.2,10.6,4.3
		c5.3,1.1,7,3.7,9.8,8.2c2.9,4.6,7.4,3,9,8.5c0.5,1.7-1.2,6.3,2.3,10.1c2.6,2.9-14.6,11.6-14.1,31.5c1.9-3.8,21.2,3.8,26.2,4.9
		c5,1.1,11.7,6,13.7,11.2c2.1,5.3-2.3,19-5,23.4c-2.7,4.3-5,6.6-9.4,17.2c-5.4,13-8.6,15.7-13.4,25.3c-3.2,6.4-10,17.8-18.5,19.3
		c-8.6,1.5-22.8,0.8-31.7-7.3c-11.7-10.7-18.7-23.9-28.4-47.9c-5.2-12.8-18.9-21-14.3-47.4c0.5-3,2.4-6.8,5.3-9.8
		c5.9-6.2,2.5-13.5,3.9-20.4c1.4-6.9,4.1-7.4,4.3-15.9c0.6-21.5,8.5-7.3,8-19C417.9,491.3,419.8,489.8,420.9,485.3z"/>
	<path class="st7" d="M411.3,532.8c-1.2,3.2-2,12.5,5,19.4c1.4,4.7,5,7,9.6,7.6c11.1,1.4,27.9-1.8,27.9-1.8
		c3.7-5.3,8.6-18.4,2.6-25.7c0,0-18.3-4.5-23-6C428.7,524.8,421.8,521.8,411.3,532.8z"/>
	<path class="st11" d="M460,527.6c-3.1,0.3-13-0.1-18.8-1.8c-5.8-1.7-15.2-3.7-19-2.1c-3.8,1.5-9.2,5.6-13.7,11.5
		c6-4.7,12.3-7.3,15.3-7.9c7-1.3,21.9,7.3,33.1,6.9C457.8,533.4,459.3,531.3,460,527.6z"/>
	<path class="st12" d="M419.2,552.4c0,0,12.5-1.3,18.3-1c5.8,0.3,14.5,6.1,14.5,6.1s-5.6,0.5-9.7,0.8c-4.1,0.3-16.1,0.6-18.3-0.6
		C421.8,556.6,419.2,552.4,419.2,552.4z"/>
	<g>
		<path class="st13" d="M428.6,551.6c-0.6,1-1,2.2-1.1,3.4c-0.1,1.2,0.1,2.3,0.5,3.3c4.6,0.3,11.4,0.1,14.3-0.1l0,0
			c0.2-0.7,0.4-1.3,0.4-2.1c0.1-1.3-0.1-2.6-0.6-3.7c-1.6-0.6-3.2-1-4.6-1.1C435.2,551.3,431.8,551.4,428.6,551.6z"/>
		<path class="st14" d="M435.4,551.7c-2.1-0.2-4,1.5-4.1,3.6c-0.1,1.2,0.4,2.4,1.3,3.2c1.8,0,3.6,0,5.3-0.1c0.7-0.6,1.1-1.5,1.2-2.6
			C439.2,553.8,437.6,551.9,435.4,551.7z"/>
	</g>
	<path class="st15" d="M451.9,557.3c1.8-10.8-6.6-18.8-16.1-20.2c-8.9-1.3-19.8,5.2-20.6,14.2c0,0,5.5,1.3,11.1,1
		C431.8,551.9,443.4,550.7,451.9,557.3z"/>
	<path class="st9" d="M452.9,557.6c-4.4-4.7-7-8.2-19.4-8.1c-12.4,0.2-15,1.7-23.6-0.7c0.8,1.7,3,4.9,8.8,5.8
		c1.9,2.5,2.7,4.7,11.2,4.7C438.5,559.5,446.5,558.9,452.9,557.6L452.9,557.6z M450.5,557c-4.9,0.3-9.7,0.7-14.6,0.8
		c-13.6,0.3-13.7-3.4-13.7-3.4c3-0.1,12.3-1.2,17.1-0.7C444.1,554.3,448,555.7,450.5,557z"/>
	<path class="st7" d="M479.4,532.2c0,0-5.7,3.9-6.4,9.9c-0.7,6,0,24.1,2.9,29.2c2,2,5,4,4.7,9.8c-0.4,7-10.1,9.8-16.3,4.3
		c0,0-2,1.8-5.8,2.9c-3.8,1.1-6.6-1.8-6-5c0.7-3.1,3.8-4.5,5.3-5.6c1.5-1.1,0.5-1.7-3.9,1.2c-2.6,1.7-5.3,5.3-5.1,8.7
		c0.2,2.4,1.6,4.9,6.5,6.4c11.7,3.7,10.9,5.1,16.1,5c5.3-0.1,9.6-5.3,12.7-6.1c2.9-0.7,5.4-2.8,5-6.9c-0.2-2.6-1.6-6.5-5.8-9.5
		c-9.2-11.8-5.4-17.6-3.8-16.3c-1.8-7.7,5.7-22.9,4.1-24.2L479.4,532.2L479.4,532.2z M484.7,580.5c1,1.3,2.8,3.8,2.4,6.6
		c-0.4,2.8-5.8,1.4-5-0.6C482.9,584.5,482.6,577.9,484.7,580.5z"/>
	<path class="st7" d="M480.9,534.4c0,0-3.4,3.1-4.3,9.5c-1,6.3,1.3,13,3.2,16.4c1.9,0.7,9.2,2.7,22,2.8c12.8,0.1,12.5-3,16-6.4
		c3.4-3.4,7.9-15.9,3.3-20.4c-4.7-4.5-10.8-8.6-15-7.8C501.8,529.4,487.6,534.5,480.9,534.4z"/>
	<path class="st11" d="M478.3,529.6c2.8,0.4,11.5,0.4,16.6-1c5.2-1.5,13.5-3.1,16.9-1.4c3.3,1.7,7.9,5.9,11.7,12
		c-5.1-4.9-10.7-7.8-13.3-8.4c-6.1-1.5-19.6,6.4-29.5,5.7C480.1,535.5,478.8,533.3,478.3,529.6z"/>
	<path class="st12" d="M513.4,555.9c0,0-12.5-1.7-18.3-1.7c-5.8,0.1-14.8,5.5-14.8,5.5s5.6,0.7,9.6,1.1c4.1,0.5,16.1,1.2,18.4,0.1
		C510.7,560,513.4,555.9,513.4,555.9z"/>
	<g>
		<path class="st13" d="M503.5,554.8c0.6,1,0.9,2.2,1,3.5c0,1.2-0.2,2.3-0.6,3.3c-4.6,0.1-11.1-0.3-13.9-0.7l-0.5-0.1
			c-0.2-0.6-0.3-1.3-0.3-2c0-1.3,0.2-2.4,0.7-3.5c1.8-0.6,3.6-1,5.2-1C497.3,554.2,500.5,554.5,503.5,554.8z"/>
		<path class="st14" d="M496.7,554.7c2.1-0.1,3.9,1.6,4,3.8c0,1.2-0.5,2.4-1.4,3.1c-1.8-0.1-3.7-0.2-5.3-0.3c-0.6-0.7-1-1.6-1.1-2.6
			C492.9,556.5,494.6,554.7,496.7,554.7z"/>
	</g>
	<path class="st15" d="M480.5,559.5c-1.4-10.8,7.3-18.6,17-19.6c9-1,19.6,6,20.1,15c0,0-5.6,1.1-11.1,0.6
		C500.8,555,489.2,553.3,480.5,559.5z"/>
	<path class="st9" d="M479.5,559.9c4.6-4.5,7.4-8,19.7-7.3c12.4,0.6,15,2.3,23.7,0.2c-0.9,1.6-3.2,4.8-9,5.5
		c-2,2.4-2.9,4.5-11.4,4.3C493.8,562.3,485.8,561.3,479.5,559.9L479.5,559.9z M481.9,559.4c4.9,0.5,9.7,1,14.6,1.3
		c13.6,0.8,13.8-2.8,13.8-2.8c-3-0.2-12.3-1.7-17.1-1.3C488.4,556.9,484.4,558.1,481.9,559.4z"/>
	<path class="st16" d="M466.4,576.1c-2.4,1.2-2.9,6.3-0.5,7.2c2.5,0.9,6.4-1,7.1-3.7C474.1,575.3,469.3,574.6,466.4,576.1z"/>
	<path class="st10" d="M465.2,591.3c-2.7-1.1-4.3-0.8-7.3-0.2c-2.4,0.5-0.9,1.9,2.5,1.6C461.8,592.6,463.2,592.1,465.2,591.3z"/>
	<path class="st10" d="M476,590.9c1.8-1.1,4-0.7,5.9-0.3c1.9,0.4,1.1,2-1.1,1.8C478.6,592.2,477.6,591.5,476,590.9z"/>
	<path class="st11" d="M430.9,464.8c-12.7,8.3-6.6,8.8-10.4,17.5c-2.3,5.4-5.9,4.4-6.5,12.1c-0.4,5.1-9.6,0.9-9.3,19.5
		c0,1.1-7.3,9.2-5.2,16.2c1.5,5.2-10.1,17.6-9.9,24.5c0.1,2.8-2.5,1.1-2.4,8.4c0.1,7.8,0.8,8.2-3.5,11.6
		c-15.5-25.5-22.4-43.6-22.1-46.7C367.6,463.4,406.9,463.3,430.9,464.8z"/>
	<path class="st11" d="M398.4,466.2c10.1-15.8,22.9-32.8,30.1-30.2c13.4,4.9,23.8-16.8,35.2-9.5c5,3.3,6.2-6.3,18.3-7.5
		c3.6-0.4,10.4,1.5,15.6,2.8c5.5,1.4,9.5-9.7,38-2c10.4,2.8,30.6-8.5,36.8,8.2c2.1,5.6,18.2-2.2,20.6-2.1c14,0.3,6.3,12.1,21.4,12.8
		c4.7,0.2,4.1,5.7,20.4,7.3c9.9,1-5,13.3,9.6,14.1c15.8,0.8,7.3,10.9,16.6,18.8c14.5,12.3-14.4,9.2,23.4,22.3
		c0.5,2.3,7.3,4.4,8.6,13.4c1.4,9.3,20.3,2.7,20.9,17.9c0.5,14.7,29.8,23.1,8.8,29.5c-12.1,3.7,6.2,27.2-7.8,13.2
		c-6.1-6.1-9.6,10.5-3.5,10.2c1.1-0.1,17.2,10.2,9.1,12.8c-10.5,3.4,24.1,29.7,22.6,35.4c-30.5,11-14.3,8.3-9.3,28.6
		c3,12,7.2,10-7.7,12.4c-1.6,10,36.6,8.5,11.4,20c-1.4,0.6-4.4-6.9-11.9-10.7c-8.1-4.2-7,2.1-10.9-8.9c-6-16.8-12.1,2-12.3-20.2
		c-0.2-14.9-16.2-2.3-25.1-20.5c-3.3-6.8-33.2-2.6-45.6-22.8c-8.5-13.9-17.5-1.6-23.4-12.6c-5.1-9.6-9,2.7-19.4-11.5
		c-6.4-8.7-20.7,14-28.9-5.1c-2.8-6.5-22.2,7.4-25.2-20.8c-0.3-3.3-7.5-0.4-9.8-1.2c-4.8-16.8-12.3-13.1-12.8-23.6
		c-0.5-9.4-5.1-6-10-10.7c-2.7-2.6-1.5-1.4-2.2-8.4c-0.9-9.3-3.2-5.4-12.7-9.6c-2.6-1.1-1.9-6-7.4-7.1c-5.3-1.1-12.1,0.2-15.1-2.6
		c-4.4-4.1-4.9-12.3-10.4-12.5c-2.6-0.1-9.4-0.2-13.4,1.3c-7,2.6-11.9-4.2-22.9-3.4C416.6,482.6,397.5,467.5,398.4,466.2z"/>
	<path class="st6" d="M401.4,461.5c9.5-14.3,20.6-27.9,27-25.5c13.4,4.9,23.8-16.8,35.2-9.5c5,3.3,6.2-6.3,18.3-7.5
		c3.6-0.4,10.4,1.5,15.6,2.8c5.5,1.4,9.5-9.7,38-2c10.4,2.8,30.6-8.5,36.8,8.2c2.1,5.6,18.2-2.2,20.6-2.1c14,0.3,6.3,12.1,21.4,12.8
		c4.7,0.2,4.1,5.7,20.4,7.3c9.9,1-5,13.3,9.6,14.1c15.8,0.8,7.3,10.9,16.6,18.8c14.5,12.3-14.4,9.2,23.4,22.3
		c0.5,2.3,7.3,4.4,8.6,13.4c1.4,9.3,20.3,2.7,20.9,17.9c0.5,14.7,29.8,23.1,8.8,29.5c-12.1,3.7,6.2,27.2-7.8,13.2
		c-6.1-6.1-9.6,10.5-3.5,10.2c1.1-0.1,17.2,10.2,9.1,12.8c-10.5,3.4,24.1,29.7,22.6,35.4c-30.5,11-14.3,8.3-9.3,28.6
		c3,12,7.2,10-7.7,12.4c-1.6,10,36.6,8.5,11.4,20c-1.4,0.6-4.4-6.9-11.9-10.7c-8.1-4.2-7,2.1-10.9-8.9c-6-16.8-12.1,2-12.3-20.2
		c-0.1-16.1,11.6-3.3,5.1-14.4c-8-13.6,17.4-2.9,0.8-18.3c-6.2-5.7-4.2-7.3-5.1-8.1c-12.2-11.2,1.2-14.2-9.3-20
		c-18-10-3.9-9.1-5.4-14c-3.3-11.2,9.8-3,6.3-11.5c-5.3-12.8,11.3-8.2,6.5-12.7c-16.3-15.6-9.7-11.4-2.1-14.7
		c5.4-2.4-9.9-14-9.9-14.1c-18.1-7.5-13.8-4.9-12.7-14.4c-13.9-2.6-20.1,0.3-20.5-11.8c-0.2-4.9-14.1-0.1-10.3-9.1
		c3-7.2-10.1-8.6-0.9-17.4c4.9-4.7-30.6-1.8-21.6-10.2c5-4.7-8.1-6.1-8.1-6.1c-7.8,0.7,8.4-8.3-10-9c-45.9-1.5-22,0.1-25.8-6.7
		c-3.6-6.4-21.6,6.1-25.6-4.8c-3.9-10.8-24.9-5.3-33.6-3.6c-10.3,2-6.7-6-16.1-0.8c-15.8,8.7-11.9-4.4-18-0.4
		c-15.7,10.1-2,12.5-25.1,6.5c-13.8-3.6-8.8,7.5-20.3,7C419.6,445.1,415.1,451,401.4,461.5z"/>
	<path class="st10" d="M376.4,599.2c-1.1-1.8-0.5-4.9,2.1-6.6c2.5-1.7,5.4-5.3,4.3-8.9c-0.7-2.2-2.8-5.1-5.3-7.3
		c5.5,7.1,2.6,8.9,1.8,9.6c-1.9,1.7-5.3,2.9-6,5.8c-0.7,3,0,3.7,1.3,5.8C375.3,598.9,377.1,600.4,376.4,599.2z"/>
	<g>
		<path class="st17" d="M468.5,604.9c-12.5-0.8-20.9,6-26.9,14.3c15.2,2.5,32.8,4,48,1.5C484.8,611,481.4,605.7,468.5,604.9z"/>
		<path class="st18" d="M489.6,620.7c-5.8-2.7-17.2-3.9-21.8-4.1c-9.8-0.5-18.4,0.3-26.2,2.6c1.8,10.4,16.4,12.8,24.7,13.1
			C473.4,632.5,487.5,630.4,489.6,620.7z"/>
		<path class="st19" d="M447.7,622.1c1.3,2.1,4.3,2.5,8.3,2.6c5.3,0.1,8.3-2.3,8-3.5C462.9,617.1,445.9,619.2,447.7,622.1z"/>
	</g>
	<path class="st2" d="M511.5,724.2c17.4-10.3,37.5-1,47.5,7.3c-12.8-21-28.4-25.2-35-25.6c-7.1-0.4-13.8-1-23.5-1.6
		C506.1,711.2,508.3,716.9,511.5,724.2z"/>
	<path class="st2" d="M424.5,727.7c-20.2-15.9-41.9-31.2-68.2-34.3c-17.3-2.1-27.6,4.3-40.9,14.5c-9.3,7.1-18.1,15.9-26.3,25.8
		C329.7,709.7,380.8,714.6,424.5,727.7z"/>
	<path class="st5" d="M656.7,1433.9c3.5,4.3,8,5,7.3,17.7c-0.7,12.7-8.2,39.9-13.1,27.8c-4.8-12.1-3.9-13.2-9-28.9
		c-2.5-7.8-0.9-14.6,1.8-17.3C647,1430,653.8,1430.2,656.7,1433.9z"/>
	<path class="st5" d="M664.8,1510.3c0,0,9.7,29.5,17.5,80.2c7.8,50.7,9,60,10.4,77.6c1.6,20.2-10.9-10.1-22-57.1
		c-6-25.3-13.9-69.6-12.3-94.7C659.2,1505.5,662.7,1501.6,664.8,1510.3z"/>
	<path class="st5" d="M748,1843.4c2.2-0.2,5.8,17,6.3,33c0.6,16,1.3,41.4,3,53.2c1.7,11.8,26.1,26.7,35.2,30.8
		c9.1,4.1-0.7,3.9-11.6,0.9c-10.8-3-29.8-17.5-33.6-24.4c-3.7-6.9-4-30.1-3.7-54.2C743.7,1879.9,743.3,1843.7,748,1843.4z"/>
	<path class="st5" d="M337.7,1424.7c0,0-30.3,45.1-42.9,52.2c-12.7,7.1-3.3-47.6,0.7-57.9C299.5,1408.7,353.9,1402.9,337.7,1424.7z"
		/>
	<path class="st5" d="M255.6,1442.5c0,0-38.8,27.6-44,40.3c-5.2,12.7-20.1,80.6-25.4,114.1c-5.2,33.6,36.2-59.7,54.1-100
		S273.5,1431.3,255.6,1442.5z"/>
	<path class="st5" d="M90.6,1862.4c-4,12-11.1,34.3-15.7,53.6c-6.7,28-13.8,46.6-13.8,46.6s-22.4,28-25.4,36.2
		c-3,8.2,28.9-20.7,33-28.9c10.4-20.8,17.3-63.8,22.1-88.8C94.7,1860.6,93.2,1854.5,90.6,1862.4z"/>
	<path class="st5" d="M301.2,740.4c-5.3,5-4.9,10-8.7,16.6c-10.4,17.9-19.4,25.4-29.8,38.4c-10.4,13.1-47.1,60.7-55.6,67.7
		c-8.5,6.9,18.7,0.2,48.2-31.5c29.5-31.7,41-43.3,48.5-58.9c7.5-15.7,9.9-13.7,24.5-16c14.6-2.3,54.2-14.6,52.7-23.9
		c-1.2-7.4-22.4-9-40.7-8.1C320.5,725.6,313.2,729.1,301.2,740.4z"/>
	<path class="st5" d="M583.7,845.5c4.3-1.8,8.7-4.6,12.4-7.9c6.8-5.8,17.3-17.8,18.9-35.5c2-22.1-8.2-31.2-15.8-35.4
		c-7.6-4.2-30.8-15.4-36.5-17.2c-5.6-1.8-24.3-18-27.8-22.7s0,10.7,15.4,22.3c15.4,11.6,38.7,19.2,45.7,24.3
		c7.9,5.7,10.4,18.2,9.1,29.3c-1.6,13.2-8.6,25-17.2,33C581.2,842.1,578.3,847.8,583.7,845.5z"/>
	<path class="st5" d="M598.8,769.7c-8.6-6.7-26.9-16-43.3-7.8c-16.4,8.2-19.8,17.2-26.5,20.9c-6.7,3.7-28.7,3.4-46.6-3.7
		c-17.9-7.1-39.6-10.6-56.7-4.1c-30.6,11.7-26,53,28.9,55.5c22.2,1,37.7-2.8,53.2-10.4c20.5-10.1,21.3-6.7,35.8-4.8
		c14.5,1.9,40.7,0.4,54.5-16S608.5,780.1,598.8,769.7z"/>
	<path class="st5" d="M589.1,858.1c2.1,4,3.7,4.3,4.8,21.1c1.1,16.8,3,46.8,13.8,64.3c10.8,17.5,7.3,42.1,6.2,50.7
		c-1.1,8.6,11.9-7.5,11.9-27.2c0,0,0.7-6.7,11.2,0.4c10.4,7.1,29.5,20.1,47,50.4c0,0,1.5,4.1-4.8,6c-6.3,1.9-11.9,4.8-20.1-5.2
		c-8.2-10.1-10.6-14.7-17-21.4c-16.9-17.9-19.4,7.7-28.9,3.4c-5.4-2.5-5.6-11.4-10.1-31.5c-4.5-20.1-10.3-27.6-14.4-47
		c-3.2-15,0.8-36.6-2-53.1C585,858,586.4,853,589.1,858.1z"/>
	<path class="st5" d="M181.1,905.1c3.1,7.1,17.7,26.7,43.1,52.8c25.4,26.1,81,57.2,129.2,77.2c2.6,1.1,19,4.9-1.1-6
		c-68.8-36.9-103.2-60-157.6-116.5C185.1,902.7,176.8,895.4,181.1,905.1z"/>
	<path class="st5" d="M490,1020.8c0,0-13.2,5.8-25.7,4.8c-12.5-0.9-11.6-0.7-11.6-0.7s-18.6,7.5-26.7,15.1c-8,7.6-19.8,19-25.6,21.4
		c-5.8,2.4-15.5-5.8-17.9-10.8c-2.4-5,3.9,2.4,12.1,2.8c8.2,0.4,21.4-13.2,27-19.2c5.6-6,14.4-9.3,25.9-16.4c0,0,1.5-2.4,9-0.6
		c7.5,1.9,14.5,2.1,17.9,2.1C477.9,1019.3,494.8,1017.6,490,1020.8z"/>
	<path class="st5" d="M496.5,990c-8.7,5.4-12.6,4.4-22.3,6.4c-4.1,0.8-6.6,1.7-12.4,4.8l-10.1,6.2c0,0-6.2-1.5-8.2-0.6
		c-2.1,0.9-9.7,2.8-7.5,0.7c2.2-2.1,16.4-10.1,21.1-13.8c4.7-3.7,6.9-2.6,15.3-3c8.4-0.4,10.4,0.7,18.7-2
		C499.4,986.2,503.7,985.6,496.5,990z"/>
	<path class="st5" d="M492.6,980.4c-10.6,5.1-17.9,3.8-29,4.1c-9.9,0.2-12.7,1.3-15.8,3.6c-3.7,2.7-9.8,6.2-14.3,8
		c-4.5,1.8-1.4-2.4,7.9-8.2c9.3-5.8,14.4-8.9,18.5-9.6s6.1,0.1,16.5,0.5C486.9,979.1,497.4,978,492.6,980.4z"/>
	<path class="st5" d="M489.7,956.9c-5.7,3.7-11.9,5.9-18.5,8l-9.7,7.1c0,0-6.1,0.5-9.9,2.5c-3.8,2.1-12.4,9.1-15.4,10.8
		c-3,1.7-5.2,1.5,2.2-7.2c0,0,1-1.5,6.4-4.4c5.4-2.9,14.5-10.2,17-12.7c2.4-2.5,4.4-2.6,9.2-3c4.8-0.4,8.1-0.7,11-1.2
		C485,956.5,492.5,955.1,489.7,956.9z"/>
	<path class="st5" d="M652.4,1009.9c0,0,17.8,22.7,24.8,86.8c7,64.1,25.1-25.1,25.1-25.1s-7-34.4-18.3-54l-18.9-9.9L652.4,1009.9z"
		/>
</g>
</svg>
