<?xml version="1.0" encoding="UTF-8" standalone="no"?>
<!DOCTYPE svg PUBLIC "-//W3C//DTD SVG 1.1//EN" "http://www.w3.org/Graphics/SVG/1.1/DTD/svg11.dtd">
<svg width="100%" height="100%" viewBox="0 0 4688 10150" version="1.1" xmlns="http://www.w3.org/2000/svg" xmlns:xlink="http://www.w3.org/1999/xlink" xml:space="preserve" xmlns:serif="http://www.serif.com/" style="fill-rule:evenodd;clip-rule:evenodd;stroke-linejoin:round;stroke-miterlimit:2;">
    <g transform="matrix(4.16667,0,0,4.16667,0,0)">
        <g>
            <path d="M418.1,457.2C415.3,456.9 374.1,453.1 362.9,465.6C356.4,472.8 358.7,459.5 344.5,471.8C343.8,472.4 324.9,467.7 320.8,472.6C304.3,492.3 298.8,471 278.2,495.1C275.8,497.9 270.2,495.3 267.2,505.3C265.9,509.7 246.3,517 241.1,520.8C233.8,526.2 246.3,526.2 231.7,529.1C224.7,530.5 232.6,536.7 219.9,540C217,540.7 206,566.1 196.9,570.3C190.3,573.4 194.3,583 180.4,588.7C169.2,593.3 180.2,611.6 171.6,615.7C165.9,618.4 144.2,640.8 144.2,646.8C144.2,665.2 128.7,650.3 130.2,680.3C131.1,697.7 120.4,680.5 127.6,708.2C129.6,715.9 116.4,723 123.1,734.6C123.1,734.7 117.5,746.7 120.9,752C121,752.1 121.5,763 118.2,767.2C114.5,772 118,779.9 117.6,787.2C117,797 124.9,800.1 128.7,798.4C131.9,797 131.9,791.1 134.8,786.1C150.9,759.2 153.8,774.1 143.1,783C139.2,786.2 150.3,791.8 145.3,801.2C144.6,802.5 140.9,815.5 144.2,819.9C148.4,825.5 155.9,821.7 156.1,808.2C156.1,803 167.2,803.6 167.4,802.5C169,795.9 165.1,791.6 177.7,791.6C177.7,791.4 178.9,801.4 174,803.9C172,804.9 175.7,810.5 171.3,817C166.7,823.8 179.6,830.3 165.9,842.6C157.6,850.1 181.9,865 174.8,847.2C169.6,834.1 182.6,851.5 184.4,825C184.8,819.6 186.3,817.8 192.1,812.5C193.2,823.5 197.5,829.3 196.9,834.5C194.4,855.1 188,845.5 185.8,853.2C181.5,867.8 201.5,867.6 193.4,882C182.7,901 197.8,899.1 198.4,913.3C198.6,918 201.5,915.7 201.5,932.7C201.5,943.8 220.2,931.4 209.3,917.3C202.1,908 215,911.2 209,894.3C202.6,876.2 223.8,889 212.7,873.4C211.5,871.7 214.3,857.8 211.5,851C207.2,840.6 227.9,832.3 223.1,856.4C220.3,870.6 298.9,740.9 309,742.7C405.7,760.5 482.5,771.9 543.5,815.3C553.4,822.4 574.4,850.8 588.7,837.6C592.1,834.5 604.6,834.3 604.6,829.8C608.1,829.5 616.3,851.1 620.9,851.5C633.1,852.8 629.5,865.5 625.3,869.4C623.1,871.5 611.8,885.6 620.4,889.8C624.5,891.8 630.5,885.6 640.9,875.8C650.6,866.7 630.6,865.9 647.4,860.5C664.4,855 642.6,833 654.1,839.3C661.3,843.2 658,849.7 660.7,857.8C663.2,865.3 668.7,874.3 668.7,861.2C668.7,838.3 674.2,853.5 670.1,837C667.6,826.9 676,817.6 666.4,800.7C662.5,793.8 670.6,793.8 666.2,777.1C661.3,758.3 683,778 674.4,759.8C668.2,746.8 679.7,739.5 684.1,758.6C690,760.6 696.1,741 699.8,769.7C700.8,777.4 716.5,747.2 718.5,758.9C719.6,765.1 729.6,776.6 733.9,764.6C737.1,755.7 734,757 734,745.8C734,733.5 722.2,745.9 729.6,719.9C730.4,717 724.9,713.8 721.8,712.3C705.2,704.4 737.1,705.1 718.6,693.8C679.6,669.9 722.8,673.2 710.2,646.1C702.6,629.8 709.2,628.9 692.1,628C682.2,627.5 695.7,614.6 677.5,602.4C666.5,595 657.8,578 647,579.6C633.4,581.6 609.3,550.1 600.9,539.5C598.5,536.5 550.6,493.7 549.1,493.7C533.5,493.7 530,491.5 515.9,482.6C511.9,480.1 523,468.8 507.1,464.9C494,461.7 498.2,443.9 456.2,449.1C442.1,450.8 435.6,446.6 418.1,457.2Z" style="fill:rgb(255,228,102);"/>
            <path d="M576,860.3L576.6,859.9C586.7,853 574.5,850.6 588.8,837.4C592.2,834.3 604.7,834.1 604.7,829.6C608.2,829.3 616.4,850.9 621,851.3C633.2,852.6 629.6,865.3 625.4,869.2C623.2,871.3 611.9,885.4 620.5,889.6C624.6,891.6 630.6,885.4 641,875.6C650.7,866.5 630.7,865.7 647.5,860.3C664.5,854.8 642.7,832.8 654.2,839.1C661.4,843 658.1,849.5 660.8,857.6C663.3,865.1 668.8,874.1 668.8,861C668.8,838.1 674.3,853.3 670.2,836.8C667.7,826.7 676.1,817.4 666.5,800.5C662.6,793.6 670.7,793.6 666.3,776.9C661.4,758.1 683.1,777.8 674.5,759.6C668.3,746.6 679.8,739.3 684.2,758.4C690.1,760.4 696.2,740.8 699.9,769.5C700.9,777.2 716.6,747 718.6,758.7C719.7,764.9 729.7,776.4 734,764.4C737.2,755.5 734.1,756.8 734.1,745.6C734.1,733.3 722.3,745.7 729.7,719.7C730.5,716.8 725,713.6 721.9,712.1C705.3,704.2 737.2,704.9 718.7,693.6C679.7,669.7 722.9,673 710.3,645.9C702.7,629.6 709.3,628.7 692.2,627.8C685.5,627.4 689.6,621.3 687.1,613.6C678.4,610.7 665.8,607.1 661.3,612.6C661.2,612.8 663.7,620.6 667.9,619.2C683.1,632.1 673.6,623.5 677.2,642.2C678.7,649.8 690.8,647 679.5,651C672.5,653.5 690.9,659.9 686.3,671C681.5,682.7 699,684.1 696.7,693.4C695.8,697 716,693.8 699.2,701.1C690,705.1 709.8,709.8 707.1,711.4C694,719.3 709.3,716.2 713.1,725.9C710.9,729.3 702.5,723.2 707.7,735.9C712.6,747.9 702.7,733.3 696.2,740C691.4,745 689.6,731 683.4,735.8C678,740.1 674.3,726.4 668.9,723.3C662.7,719.7 678,717.6 658.8,708.7C651.3,705.2 654.3,690.2 648,695C646,696.5 654.8,712.8 655.4,719.9C656.1,728.6 647.3,725.8 656.9,738.1C662.1,744.7 641.1,739.6 650.9,752C657.1,759.8 637.5,750.9 650.6,766.5C654.8,771.5 642.3,767.9 644.6,779.1C645.9,785.7 639,788.3 642,795.3C645.3,803 631.9,804.6 640.5,814.2C646.4,820.8 623.8,821 630.7,805.2C632.5,801.1 622,803.7 625,797.1C636.2,772.4 621.9,794.3 619.6,769.6C619.3,766.7 611.3,765.5 606.3,762C603.1,759.7 599.4,763.7 596.3,761.2C587.9,754.3 584.7,760.5 577.8,758.4C571.1,756.4 571.9,750.9 562.7,750.2C559.1,749.9 552.6,744.4 548.4,741.2C541.6,736.1 535.6,740.1 535.5,744.2C535.4,747.2 552.3,773.3 549.1,786.2C548,790.7 540.3,785.1 547.3,805.7C550.1,814.1 547.4,814.2 554.1,824.7C559.5,833.2 534.2,816.4 561.5,843.7C568.9,851.4 572.1,856 576,860.3Z" style="fill:rgb(255,210,102);"/>
            <path d="M571,758.6C609.1,821.7 675.7,931.4 785.9,1008.5C905,1091.7 1051.2,1085.2 1074.6,974.2C1142.7,1127.2 1011.9,1169.6 999.9,1247.9C991.2,1304.7 1042.7,1416.2 938,1430.1C833.3,1443.9 806.1,1489.1 815.1,1624.5C727,1585.4 545.4,1476.3 397.3,1114.2C359.5,1021.7 310.7,902.9 293.6,788.6L571,758.6Z" style="fill:rgb(233,233,233);"/>
            <path d="M998.9,1260.1C848.8,1198.2 645.1,1036 612,888.2C605.9,861 603,842.5 609.1,819.6C648.9,879.6 705.9,952.7 785.8,1008.6C904.9,1091.8 1051.1,1085.3 1074.5,974.3C1142.6,1127.3 1011.8,1169.7 999.8,1248C999.3,1251.8 999,1255.8 998.9,1260.1Z" style="fill:rgb(206,206,206);"/>
            <path d="M510.3,710.7C486,713.6 472.8,710.9 461.2,727.8C449.5,745.4 450.6,774.1 487.7,809.3C487.7,809.3 505.7,850.9 519.6,877.7C533.5,904.5 543.5,924.4 551,942.1C558.6,959.8 550.6,982.9 603.5,1052.3C656.4,1121.6 674,1133.4 689.4,1161.3C689.4,1161.3 696.4,1171.1 702.1,1172.9C702.1,1172.9 713.4,1189.2 718.2,1201.4C723,1213.6 737.1,1227.7 739.4,1230.5C741.7,1233.3 750.1,1224.6 774,1223.9C797.9,1223.2 798.6,1223.2 807.2,1218.5L805.7,1195.8C805.7,1195.8 810.9,1170.4 809.3,1167C807.6,1163.6 785.7,1146.5 773.3,1141.8C761,1137.1 730.6,1136.5 730.6,1136.5C730.6,1136.5 688.1,1089.7 679.4,1067C670.7,1044.3 661.4,1005.5 640.6,982.6C619.8,959.7 605.1,945 605.1,945C605.1,945 594.3,924 591.7,887.8C589.1,851.6 575.8,818 552.7,777.2C529.5,736.4 510.3,710.7 510.3,710.7Z" style="fill:rgb(246,246,246);"/>
            <path d="M797.7,1191.6C797.7,1191.6 801.7,1172.5 798.9,1168.6C796.1,1164.7 771.5,1148.8 766.5,1147.9C761.5,1147 730.9,1142.9 725.5,1143.6C725.5,1143.6 718.2,1136 713.9,1130.9C709.6,1125.9 713.7,1147.5 713.7,1147.5L722.1,1153.5C722.1,1153.5 760,1155.7 764.6,1157.2C769.3,1158.7 787,1168.9 789.8,1171.4C792.5,1173.8 795.3,1201.4 797.7,1191.6Z" style="fill:rgb(206,206,206);"/>
            <path d="M816.8,1531.9C582.2,1315.8 440.4,1129.7 365.3,800.1C360.1,777.3 681,1332.9 911.7,1434.7C853.9,1447.3 825.7,1474.7 816.8,1531.9Z" style="fill:rgb(206,206,206);"/>
            <path d="M709.5,1044.6C709.5,1044.6 741.9,1127 704.1,1285.1C704.1,1285.1 678.1,1378.8 672.2,1397.7C666.2,1416.6 671,1433.3 674.4,1439.2C677.9,1445.2 678.4,1462.1 674.4,1484C674.4,1484 688.9,1530.4 696.4,1592.5C703.9,1654.7 710.8,1689.5 716.3,1712.4C721.8,1735.3 753.8,1828 758.8,1838C763.8,1847.9 764.3,1918.6 767.8,1928C771.3,1937.4 798.1,1955.4 813.6,1961.8C829,1968.3 833,1974.7 798.7,1973.2C764.4,1971.7 747.5,1970.7 742,1967.2C742,1967.2 713.2,1919 695.3,1904.5C695.3,1904.5 690.3,1949.3 690.8,1962.2C690.8,1962.2 682.8,1964.7 677.4,1959.2C677.4,1959.2 670.4,1899.5 649.6,1866.2C649.6,1866.2 661.5,1835.4 687.4,1823.9C687.4,1823.9 686.2,1774.9 639.4,1689.4C592.7,1603.9 584.7,1586.4 580.7,1574.5C580.7,1574.5 570,1531 593.4,1430.5C593.4,1430.5 582.5,1404.1 580,1357.4C577.5,1310.7 565.1,1267.9 561.1,1253.5C557.1,1239.1 545.4,1175.2 548.4,1143.3C551.2,1111.6 650.2,1007.2 709.5,1044.6Z" style="fill:rgb(246,246,246);"/>
            <path d="M679.2,1073.7C689.3,1065.1 699.5,1057.9 702.3,1071.7C709,1103.6 716.3,1172 691.7,1274.9C691.7,1274.9 666.9,1362 662,1379.7C654.8,1405.6 645.5,1402.9 651.1,1371C666.4,1284.2 687.3,1211.8 679.8,1120.5C677.4,1091.9 673.1,1078.9 679.2,1073.7Z" style="fill:rgb(206,206,206);"/>
            <path d="M418.1,457.2C415.3,456.9 374.1,453.1 362.9,465.6C356.4,472.8 358.7,459.5 344.5,471.8C343.8,472.4 324.9,467.7 320.8,472.6C304.3,492.3 298.8,471 278.2,495.1C275.8,497.9 270.2,495.3 267.2,505.3C265.9,509.7 246.3,517 241.1,520.8C233.8,526.2 246.3,526.2 231.7,529.1C224.7,530.5 232.6,536.5 219.9,540C200.6,545.2 212.2,563.6 196.9,570.3C190.2,573.2 194.3,583 180.4,588.7C169.2,593.3 180.2,611.6 171.6,615.7C165.9,618.4 144.2,640.8 144.2,646.8C144.2,665.2 128.7,650.3 130.2,680.3C131.1,697.7 120.4,680.5 127.6,708.2C129.6,715.9 116.4,723 123.1,734.6C123.1,734.7 117.5,746.7 120.8,752C120.9,752.1 121.4,763 118.1,767.2C114.4,772 117.9,779.9 117.5,787.2C116.9,797 124.8,800.1 128.6,798.4C131.8,797 131.8,791.1 134.7,786.1C150.8,759.2 153.7,774.1 143,783C139.1,786.2 150.2,791.8 145.2,801.2C144.5,802.5 140.8,815.5 144.1,819.9C148.3,825.5 155.8,821.7 156,808.2C156,803 167.1,803.6 167.3,802.5C168.9,795.9 165,791.6 177.6,791.6C177.6,791.4 178.8,801.4 173.9,803.9C171.9,804.9 175.6,810.5 171.2,817C166.6,823.8 179.5,830.3 165.8,842.6C157.5,850.1 181.8,865 174.7,847.2C169.5,834.1 182.5,851.5 184.3,825C184.7,819.6 186.2,817.8 192,812.5C193.1,823.5 197.4,829.3 196.8,834.5C194.3,855.1 187.9,845.5 185.7,853.2C181.4,867.8 201.4,867.6 193.3,882C182.6,901 197.7,899.1 198.3,913.3C198.5,918 201.4,915.7 201.4,932.7C201.4,943.8 220.1,931.4 209.2,917.3C202,908 214.9,911.2 208.9,894.3C202.5,876.2 223.7,889 212.6,873.4C211.4,871.7 214.2,857.8 211.4,851C207.1,840.6 227.8,832.3 223,856.4C220.2,870.6 231.7,885.3 221.6,887C215,888.1 226.9,913.5 237.4,918.6C239.7,919.7 237.6,924.4 235.8,929.4C251,916 242.9,898.2 247,886.8C254.8,865.3 247.4,860.2 258.7,847.2C263,842.2 257.3,826 252.8,820.5C240.6,805.8 277.6,786.9 283.3,779.7C290.8,770.2 315.2,751.8 311.2,738.7C308.8,731 311.9,729.8 311.8,729.8C295.9,729.8 299.9,729 287.3,735C268.9,743.7 283.5,736.5 270.5,746C255.1,757.2 265.2,763.9 249.2,773.4C230.9,784.4 246.1,786.3 238.3,791.1C227.9,797.5 222.8,809.2 219.8,810.6C208.6,815.9 213.4,812.5 203.4,797.5C189.3,798.3 212,786.8 186.8,781.7C182.3,780.8 184.3,777.1 183.5,777.8C178.7,756.3 192,770.2 190.3,757.9C188.3,743.2 205.4,745.2 205.8,740.8C207.2,723.7 216.8,732.2 217.3,725.4C218.2,713.6 227.5,714 225.7,709.8C219.3,695.3 238.2,698.5 247.2,689.9C264.3,673.5 246.7,679.2 246,680.8C250.8,679.1 214.5,675.3 220.6,690.1C226.4,704.2 190.2,711.9 190.2,731.8C190.2,736.1 164.2,743.7 166.2,741.7C175.1,733.2 151.7,744.1 151.7,744.2C144.6,752 143.3,748.7 139.1,750.5C132.1,745.1 138.2,733.7 138.9,730.3C140.6,722.2 149.5,712.2 146.7,706.7C131.7,677.3 162.1,675.7 160.1,670.2C152,648.5 160.6,660 166.6,648.7C158.8,630.4 185.8,638.9 185.8,626.5C185.8,615.9 206.9,620.4 196.5,605C191,596.8 212.8,603 211.4,582.8C210.6,571.7 229.1,584.9 222.4,568.6C211.9,543.4 251.6,562 244.9,549.1C230.3,520.7 263.8,542.5 261.7,526.1C258.9,503.9 280.9,519.9 286.6,506.5C293.8,489.7 308.7,503.1 310.6,496.9C315.4,481 338.7,502.8 338.2,486.2C337.5,466.7 358.6,483.1 365.4,482.1C381.3,479.7 356.5,481 378.9,472.9L406.3,466C411.7,464.6 409,460 422.8,461.1C425.9,461.3 429,457.2 430.5,451.3C427.1,452.4 423.1,454.2 418.1,457.2Z" style="fill:rgb(255,210,102);"/>
            <path d="M483.2,636.3C479.7,647.9 476.2,665 477.2,681.4C477.2,681.4 476.8,702.2 482.8,703.2C483.7,703.4 488.1,703.5 489.3,703.6C499.1,704.2 516.8,705.4 523.9,705.9C531.9,706.4 533,751.2 530.7,785.4C449,782.4 329.9,705.8 364,701.7C372.3,700.7 381.5,699.4 386.1,698.7C399.9,696.6 398.1,694 399.2,673.9C400.6,646.3 395.3,621.2 395.3,621.2L483.2,636.3Z" style="fill:rgb(126,66,56);"/>
            <path d="M506.6,716.7C497.6,715.6 476.9,716 460.9,709.6C457,708.1 470.5,708.8 469.4,701.5C468.3,694 466.4,682.7 465.4,655.3C463.5,606.6 409.3,634.4 409.3,634.4C409.3,634.4 409.3,677.3 409.7,689.8C410.1,702.3 428,706 423.3,707C418.6,707.9 400.9,706.8 400.9,706.8C400.9,706.8 422.3,722.7 432,729.9C441.7,737.2 490.2,765 519.5,771.5C519.5,771.5 518.2,738.5 506.6,716.7Z" style="fill:rgb(161,95,75);"/>
            <path d="M525.9,775.5C525.9,775.5 512.1,761.9 505,756.1C505,756.1 515.6,771.4 519.7,777.5L523.1,778.8L525.9,775.5Z" style="fill:rgb(126,66,56);"/>
            <path d="M522.4,774.3C520.5,747.6 512.3,718.5 500.5,704.3C509.4,704.9 519.2,705.6 524,705.9C532,706.4 552.8,712.4 566.3,746.2C566.3,746.2 610.9,762.2 617.6,774.5C624.3,786.8 626.9,829.7 593.1,847.6C593.1,847.6 602.3,856.8 603.8,885.6C605.3,914.4 609.5,932.1 616.5,943C616.5,943 683.4,962.9 709.5,1044.5C709.5,1044.5 676.7,1054.4 658.8,1079.8C640.9,1105.2 589.2,1135.5 556.8,1151.9C555.3,1139.2 554.8,1118.1 516,1084.3C477.2,1050.5 450.6,1038.8 431.5,1035.6C438.2,1012.7 442.4,1001.3 457.4,976.4C461.4,958 457.4,951.5 457.4,951.5C457.4,951.5 441.5,928.1 423.1,915.2C404.7,902.3 350.2,847.8 339.8,792.1C329.4,736.4 331.3,705.6 364.2,701.6C369.2,701 373.5,700.5 377.1,700.1C399.9,704.6 447.9,754.6 522.4,774.3Z" style="fill:rgb(246,246,246);"/>
            <path d="M564.8,1142.8C564.8,1142.8 559.8,1185.9 476.4,1275.6C476.4,1275.6 433.8,1324.3 420.4,1353.6C407,1383 380.4,1421.3 341.8,1453.4C341.8,1453.4 323.8,1512.3 313.6,1543.9C303.4,1575.5 287,1611.6 257.6,1647.1C228.2,1682.6 174.5,1765 144.7,1850.9C144.7,1850.9 161.2,1857.2 166.8,1878.8C166.8,1878.8 141,1931.5 142.5,1959.3C142.5,1959.3 142.4,1964.8 128.3,1963.3C128.3,1963.3 127.8,1934.9 126.6,1925.5C126.6,1925.5 111.9,1950 110.5,1965C109.1,1980.1 107.1,1980.2 95.8,1989C84.5,1997.8 34.6,2018.3 24.2,2020C13.9,2021.7 19.1,2011.4 27.1,1997.9C35.1,1984.4 45.2,1969.1 51.1,1963.3C51.1,1963.3 80.7,1861.5 100.2,1812.7C100.2,1812.7 137.3,1742 155,1676.4C172.8,1610.8 184.8,1496.4 203.1,1466.1C203.1,1466.1 214.3,1445.1 292,1395.4C292,1395.4 308.9,1364.9 323.4,1316C326.7,1304.8 337.2,1272.2 342,1252.9C358.8,1184.5 364.2,1132.7 431.6,1035.6C431.6,1035.6 487.9,989 542.8,1024.9C597.6,1060.9 564.8,1142.8 564.8,1142.8Z" style="fill:rgb(246,246,246);"/>
            <path d="M338.5,1340.8C333.1,1353.8 323.8,1362.2 323.6,1358.7C323.3,1353.7 330.5,1336.9 337.1,1313.2C340.1,1302.5 348.8,1271.1 353.3,1252.7C367.6,1194.7 373.2,1149.2 419.7,1074.5C425.4,1065.4 434.4,1058 444.8,1057.8C450.3,1057.7 441.4,1072.9 436.1,1082.3C425.6,1101.2 407,1134.7 390.9,1181.3C366.4,1252.1 363.5,1280.9 338.5,1340.8Z" style="fill:rgb(206,206,206);"/>
            <path d="M701.9,1024.9C704.7,1031 707.2,1037.6 709.5,1044.6C709.5,1044.6 676.7,1054.5 658.8,1079.9C640.9,1105.3 589.2,1135.6 556.8,1152C555.3,1139.3 554.8,1118.2 516,1084.4C477.2,1050.6 450.6,1038.9 431.5,1035.7C434.2,1026.6 436.4,1019.3 439.1,1012.3C478,1015.2 553.7,1043.7 587.3,1044.2C618.3,1044.6 684.1,1029.2 701.9,1024.9Z" style="fill:rgb(206,206,206);"/>
            <path d="M701.9,1024.9C704.7,1031 707.2,1037.6 709.5,1044.6C709.5,1044.6 694.8,1049 679.8,1059.6C678.1,1048.9 675.1,1039 672.5,1031.6C685.4,1028.8 696.1,1026.3 701.9,1024.9Z" style="fill:rgb(246,246,246);"/>
            <path d="M439.6,1037.5C442.7,1035.4 448.6,1031.8 454.1,1030.4C454.1,1030.4 481.3,1032.9 493.1,1023.3C472.7,1018 453.4,1013.4 439,1012.3C436.3,1019.3 434,1026.6 431.4,1035.7C434.1,1036.1 436.8,1036.7 439.6,1037.5Z"/>
            <path d="M404.1,714.8C400.7,710.3 357,683.7 331.1,697.8C305.2,712 283.4,738.3 270.7,759.2C258,780.1 189.4,870.1 164,892.5C164,892.5 172.1,908.5 185,926.7C197.9,944.9 245.9,1004.3 377.7,1053C377.7,1053 393.8,1067.9 399.3,1068C404.8,1068.1 422.1,1051 431.3,1041.9L436.4,1036.7C436.4,1036.7 445.2,1029.9 453.3,1028C453.3,1028 487.5,1031.1 496.9,1018.2C496.9,1018.2 464.2,1012 455.9,1009.5C455.9,1009.5 469.8,1000.6 476.3,1000.1C482.8,999.5 506.8,995.2 518.4,974.1C518.4,974.1 484.1,975.1 464.9,973.1L471.6,967.6C471.6,967.6 492.5,962.6 496.7,952.4C496.7,952.4 473.6,955.1 463.1,954.6C463.1,954.6 446.9,969 436.2,975.7C436.2,975.7 420,997.6 412.3,1004.5C412.3,1004.5 404.6,1013.5 402.9,1017.4C402.9,1017.4 357.3,995.1 331.4,976.5C305.5,957.8 296.1,944.4 291.4,936.2C286.7,928 274.2,898.7 254.8,885C254.8,885 280.8,861.5 296,849.6C311.2,837.7 344,817 354.7,808.8C365.5,800.7 408,766.7 404.1,714.8Z" style="fill:rgb(246,246,246);"/>
            <path d="M398.8,646.4C399.8,647.4 400.8,648.5 401.9,649.6C410.4,658.4 431,679.6 443,684.5C455.1,689.4 471.2,688.1 477,685.9L477.3,685.8C477.2,683.2 477.2,681.4 477.2,681.4C476.2,665 479.6,647.8 483.2,636.3L395.4,621.1C395.4,621.1 397.6,631.6 398.8,646.4Z" style="fill:rgb(62,24,21);"/>
            <path d="M387.2,610C388.6,621.7 393.5,626.3 401.9,634.2C410.3,642.1 431,661.4 443,665.9C455.1,670.3 471.2,669.2 477,667.2C482.2,665.4 487.6,658.5 495.9,649.9C506.2,639.1 513.7,624.8 517.8,610.5C520.2,602 524.1,592 525.1,584.3C526,577.2 525.2,572.5 524.6,569.3C522.8,558.9 522.6,554.8 523.8,540.5C525,526.2 514,474 484.4,465.7C446.8,455.2 394.3,466.3 381.8,505.4C368.7,546.6 383.6,574.7 383.6,574.7C383.6,574.7 378.4,567.9 371.2,569.8C364,571.6 358.2,583.6 364.5,601.2C366.5,606.8 372.1,614.8 378.8,615.1C381.3,615.1 385,615 387.2,610Z" style="fill:rgb(126,66,56);"/>
            <path d="M420.9,485.3C420.9,485.3 427.3,485.6 431,488.1C434.7,490.6 440.6,496.1 446.5,493.8C452.5,491.5 455.3,494.7 459.6,500.2C463.8,505.7 465,503.4 470.2,504.5C475.5,505.6 477.2,508.2 480,512.7C482.9,517.3 487.4,515.7 489,521.2C489.5,522.9 487.8,527.5 491.3,531.3C493.9,534.2 476.7,542.9 477.2,562.8C479.1,559 498.4,566.6 503.4,567.7C508.4,568.8 515.1,573.7 517.1,578.9C519.2,584.2 514.8,597.9 512.1,602.3C509.4,606.6 507.1,608.9 502.7,619.5C497.3,632.5 494.1,635.2 489.3,644.8C486.1,651.2 479.3,662.6 470.8,664.1C462.2,665.6 448,664.9 439.1,656.8C427.4,646.1 420.4,632.9 410.7,608.9C405.5,596.1 391.8,587.9 396.4,561.5C396.9,558.5 398.8,554.7 401.7,551.7C407.6,545.5 404.2,538.2 405.6,531.3C407,524.4 409.7,523.9 409.9,515.4C410.5,493.9 418.4,508.1 417.9,496.4C417.9,491.3 419.8,489.8 420.9,485.3Z" style="fill:rgb(161,95,75);"/>
            <path d="M411.3,532.8C410.1,536 409.3,545.3 416.3,552.2C417.7,556.9 421.3,559.2 425.9,559.8C437,561.2 453.8,558 453.8,558C457.5,552.7 462.4,539.6 456.4,532.3C456.4,532.3 438.1,527.8 433.4,526.3C428.7,524.8 421.8,521.8 411.3,532.8Z" style="fill:rgb(126,66,56);"/>
            <path d="M460,527.6C456.9,527.9 447,527.5 441.2,525.8C435.4,524.1 426,522.1 422.2,523.7C418.4,525.2 413,529.3 408.5,535.2C414.5,530.5 420.8,527.9 423.8,527.3C430.8,526 445.7,534.6 456.9,534.2C457.8,533.4 459.3,531.3 460,527.6Z" style="fill:rgb(255,228,102);"/>
            <path d="M419.2,552.4C419.2,552.4 431.7,551.1 437.5,551.4C443.3,551.7 452,557.5 452,557.5C452,557.5 446.4,558 442.3,558.3C438.2,558.6 426.2,558.9 424,557.7C421.8,556.6 419.2,552.4 419.2,552.4Z" style="fill:rgb(208,210,211);"/>
            <g>
                <path d="M428.6,551.6C428,552.6 427.6,553.8 427.5,555C427.4,556.2 427.6,557.3 428,558.3C432.6,558.6 439.4,558.4 442.3,558.2C442.5,557.5 442.7,556.9 442.7,556.1C442.8,554.8 442.6,553.5 442.1,552.4C440.5,551.8 438.9,551.4 437.5,551.3C435.2,551.3 431.8,551.4 428.6,551.6Z" style="fill:rgb(75,37,27);"/>
                <path d="M435.4,551.7C433.3,551.5 431.4,553.2 431.3,555.3C431.2,556.5 431.7,557.7 432.6,558.5C434.4,558.5 436.2,558.5 437.9,558.4C438.6,557.8 439,556.9 439.1,555.8C439.2,553.8 437.6,551.9 435.4,551.7Z" style="fill:rgb(19,12,14);"/>
            </g>
            <path d="M451.9,557.3C453.7,546.5 445.3,538.5 435.8,537.1C426.9,535.8 416,542.3 415.2,551.3C415.2,551.3 420.7,552.6 426.3,552.3C431.8,551.9 443.4,550.7 451.9,557.3Z" style="fill:rgb(107,18,49);"/>
            <path d="M452.9,557.6C448.5,552.9 445.9,549.4 433.5,549.5C421.1,549.7 418.5,551.2 409.9,548.8C410.7,550.5 412.9,553.7 418.7,554.6C420.6,557.1 421.4,559.3 429.9,559.3C438.5,559.5 446.5,558.9 452.9,557.6ZM450.5,557C445.6,557.3 440.8,557.7 435.9,557.8C422.3,558.1 422.2,554.4 422.2,554.4C425.2,554.3 434.5,553.2 439.3,553.7C444.1,554.3 448,555.7 450.5,557Z"/>
            <path d="M479.4,532.2C479.4,532.2 473.7,536.1 473,542.1C472.3,548.1 473,566.2 475.9,571.3C477.9,573.3 480.9,575.3 480.6,581.1C480.2,588.1 470.5,590.9 464.3,585.4C464.3,585.4 462.3,587.2 458.5,588.3C454.7,589.4 451.9,586.5 452.5,583.3C453.2,580.2 456.3,578.8 457.8,577.7C459.3,576.6 458.3,576 453.9,578.9C451.3,580.6 448.6,584.2 448.8,587.6C449,590 450.4,592.5 455.3,594C467,597.7 466.2,599.1 471.4,599C476.7,598.9 481,593.7 484.1,592.9C487,592.2 489.5,590.1 489.1,586C488.9,583.4 487.5,579.5 483.3,576.5C474.1,564.7 477.9,558.9 479.5,560.2C477.7,552.5 485.2,537.3 483.6,536L479.4,532.2ZM484.7,580.5C485.7,581.8 487.5,584.3 487.1,587.1C486.7,589.9 481.3,588.5 482.1,586.5C482.9,584.5 482.6,577.9 484.7,580.5Z" style="fill:rgb(126,66,56);"/>
            <path d="M480.9,534.4C480.9,534.4 477.5,537.5 476.6,543.9C475.6,550.2 477.9,556.9 479.8,560.3C481.7,561 489,563 501.8,563.1C514.6,563.2 514.3,560.1 517.8,556.7C521.2,553.3 525.7,540.8 521.1,536.3C516.4,531.8 510.3,527.7 506.1,528.5C501.8,529.4 487.6,534.5 480.9,534.4Z" style="fill:rgb(126,66,56);"/>
            <path d="M478.3,529.6C481.1,530 489.8,530 494.9,528.6C500.1,527.1 508.4,525.5 511.8,527.2C515.1,528.9 519.7,533.1 523.5,539.2C518.4,534.3 512.8,531.4 510.2,530.8C504.1,529.3 490.6,537.2 480.7,536.5C480.1,535.5 478.8,533.3 478.3,529.6Z" style="fill:rgb(255,228,102);"/>
            <path d="M513.4,555.9C513.4,555.9 500.9,554.2 495.1,554.2C489.3,554.3 480.3,559.7 480.3,559.7C480.3,559.7 485.9,560.4 489.9,560.8C494,561.3 506,562 508.3,560.9C510.7,560 513.4,555.9 513.4,555.9Z" style="fill:rgb(208,210,211);"/>
            <g>
                <path d="M503.5,554.8C504.1,555.8 504.4,557 504.5,558.3C504.5,559.5 504.3,560.6 503.9,561.6C499.3,561.7 492.8,561.3 490,560.9L489.5,560.8C489.3,560.2 489.2,559.5 489.2,558.8C489.2,557.5 489.4,556.4 489.9,555.3C491.7,554.7 493.5,554.3 495.1,554.3C497.3,554.2 500.5,554.5 503.5,554.8Z" style="fill:rgb(75,37,27);"/>
                <path d="M496.7,554.7C498.8,554.6 500.6,556.3 500.7,558.5C500.7,559.7 500.2,560.9 499.3,561.6C497.5,561.5 495.6,561.4 494,561.3C493.4,560.6 493,559.7 492.9,558.7C492.9,556.5 494.6,554.7 496.7,554.7Z" style="fill:rgb(19,12,14);"/>
            </g>
            <path d="M480.5,559.5C479.1,548.7 487.8,540.9 497.5,539.9C506.5,538.9 517.1,545.9 517.6,554.9C517.6,554.9 512,556 506.5,555.5C500.8,555 489.2,553.3 480.5,559.5Z" style="fill:rgb(107,18,49);"/>
            <path d="M479.5,559.9C484.1,555.4 486.9,551.9 499.2,552.6C511.6,553.2 514.2,554.9 522.9,552.8C522,554.4 519.7,557.6 513.9,558.3C511.9,560.7 511,562.8 502.5,562.6C493.8,562.3 485.8,561.3 479.5,559.9ZM481.9,559.4C486.8,559.9 491.6,560.4 496.5,560.7C510.1,561.5 510.3,557.9 510.3,557.9C507.3,557.7 498,556.2 493.2,556.6C488.4,556.9 484.4,558.1 481.9,559.4Z"/>
            <path d="M466.4,576.1C464,577.3 463.5,582.4 465.9,583.3C468.4,584.2 472.3,582.3 473,579.6C474.1,575.3 469.3,574.6 466.4,576.1Z" style="fill:rgb(214,141,108);"/>
            <path d="M465.2,591.3C462.5,590.2 460.9,590.5 457.9,591.1C455.5,591.6 457,593 460.4,592.7C461.8,592.6 463.2,592.1 465.2,591.3Z" style="fill:rgb(62,24,21);"/>
            <path d="M476,590.9C477.8,589.8 480,590.2 481.9,590.6C483.8,591 483,592.6 480.8,592.4C478.6,592.2 477.6,591.5 476,590.9Z" style="fill:rgb(62,24,21);"/>
            <path d="M430.9,464.8C418.2,473.1 424.3,473.6 420.5,482.3C418.2,487.7 414.6,486.7 414,494.4C413.6,499.5 404.4,495.3 404.7,513.9C404.7,515 397.4,523.1 399.5,530.1C401,535.3 389.4,547.7 389.6,554.6C389.7,557.4 387.1,555.7 387.2,563C387.3,570.8 388,571.2 383.7,574.6C368.2,549.1 361.3,531 361.6,527.9C367.6,463.4 406.9,463.3 430.9,464.8Z" style="fill:rgb(255,228,102);"/>
            <path d="M398.4,466.2C408.5,450.4 421.3,433.4 428.5,436C441.9,440.9 452.3,419.2 463.7,426.5C468.7,429.8 469.9,420.2 482,419C485.6,418.6 492.4,420.5 497.6,421.8C503.1,423.2 507.1,412.1 535.6,419.8C546,422.6 566.2,411.3 572.4,428C574.5,433.6 590.6,425.8 593,425.9C607,426.2 599.3,438 614.4,438.7C619.1,438.9 618.5,444.4 634.8,446C644.7,447 629.8,459.3 644.4,460.1C660.2,460.9 651.7,471 661,478.9C675.5,491.2 646.6,488.1 684.4,501.2C684.9,503.5 691.7,505.6 693,514.6C694.4,523.9 713.3,517.3 713.9,532.5C714.4,547.2 743.7,555.6 722.7,562C710.6,565.7 728.9,589.2 714.9,575.2C708.8,569.1 705.3,585.7 711.4,585.4C712.5,585.3 728.6,595.6 720.5,598.2C710,601.6 744.6,627.9 743.1,633.6C712.6,644.6 728.8,641.9 733.8,662.2C736.8,674.2 741,672.2 726.1,674.6C724.5,684.6 762.7,683.1 737.5,694.6C736.1,695.2 733.1,687.7 725.6,683.9C717.5,679.7 718.6,686 714.7,675C708.7,658.2 702.6,677 702.4,654.8C702.2,639.9 686.2,652.5 677.3,634.3C674,627.5 644.1,631.7 631.7,611.5C623.2,597.6 614.2,609.9 608.3,598.9C603.2,589.3 599.3,601.6 588.9,587.4C582.5,578.7 568.2,601.4 560,582.3C557.2,575.8 537.8,589.7 534.8,561.5C534.5,558.2 527.3,561.1 525,560.3C520.2,543.5 512.7,547.2 512.2,536.7C511.7,527.3 507.1,530.7 502.2,526C499.5,523.4 500.7,524.6 500,517.6C499.1,508.3 496.8,512.2 487.3,508C484.7,506.9 485.4,502 479.9,500.9C474.6,499.8 467.8,501.1 464.8,498.3C460.4,494.2 459.9,486 454.4,485.8C451.8,485.7 445,485.6 441,487.1C434,489.7 429.1,482.9 418.1,483.7C416.6,482.6 397.5,467.5 398.4,466.2Z" style="fill:rgb(255,228,102);"/>
            <path d="M401.4,461.5C410.9,447.2 422,433.6 428.4,436C441.8,440.9 452.2,419.2 463.6,426.5C468.6,429.8 469.8,420.2 481.9,419C485.5,418.6 492.3,420.5 497.5,421.8C503,423.2 507,412.1 535.5,419.8C545.9,422.6 566.1,411.3 572.3,428C574.4,433.6 590.5,425.8 592.9,425.9C606.9,426.2 599.2,438 614.3,438.7C619,438.9 618.4,444.4 634.7,446C644.6,447 629.7,459.3 644.3,460.1C660.1,460.9 651.6,471 660.9,478.9C675.4,491.2 646.5,488.1 684.3,501.2C684.8,503.5 691.6,505.6 692.9,514.6C694.3,523.9 713.2,517.3 713.8,532.5C714.3,547.2 743.6,555.6 722.6,562C710.5,565.7 728.8,589.2 714.8,575.2C708.7,569.1 705.2,585.7 711.3,585.4C712.4,585.3 728.5,595.6 720.4,598.2C709.9,601.6 744.5,627.9 743,633.6C712.5,644.6 728.7,641.9 733.7,662.2C736.7,674.2 740.9,672.2 726,674.6C724.4,684.6 762.6,683.1 737.4,694.6C736,695.2 733,687.7 725.5,683.9C717.4,679.7 718.5,686 714.6,675C708.6,658.2 702.5,677 702.3,654.8C702.2,638.7 713.9,651.5 707.4,640.4C699.4,626.8 724.8,637.5 708.2,622.1C702,616.4 704,614.8 703.1,614C690.9,602.8 704.3,599.8 693.8,594C675.8,584 689.9,584.9 688.4,580C685.1,568.8 698.2,577 694.7,568.5C689.4,555.7 706,560.3 701.2,555.8C684.9,540.2 691.5,544.4 699.1,541.1C704.5,538.7 689.2,527.1 689.2,527C671.1,519.5 675.4,522.1 676.5,512.6C662.6,510 656.4,512.9 656,500.8C655.8,495.9 641.9,500.7 645.7,491.7C648.7,484.5 635.6,483.1 644.8,474.3C649.7,469.6 614.2,472.5 623.2,464.1C628.2,459.4 615.1,458 615.1,458C607.3,458.7 623.5,449.7 605.1,449C559.2,447.5 583.1,449.1 579.3,442.3C575.7,435.9 557.7,448.4 553.7,437.5C549.8,426.7 528.8,432.2 520.1,433.9C509.8,435.9 513.4,427.9 504,433.1C488.2,441.8 492.1,428.7 486,432.7C470.3,442.8 484,445.2 460.9,439.2C447.1,435.6 452.1,446.7 440.6,446.2C419.6,445.1 415.1,451 401.4,461.5Z" style="fill:rgb(255,210,102);"/>
            <path d="M376.4,599.2C375.3,597.4 375.9,594.3 378.5,592.6C381,590.9 383.9,587.3 382.8,583.7C382.1,581.5 380,578.6 377.5,576.4C383,583.5 380.1,585.3 379.3,586C377.4,587.7 374,588.9 373.3,591.8C372.6,594.8 373.3,595.5 374.6,597.6C375.3,598.9 377.1,600.4 376.4,599.2Z" style="fill:rgb(62,24,21);"/>
            <g>
                <path d="M468.5,604.9C456,604.1 447.6,610.9 441.6,619.2C456.8,621.7 474.4,623.2 489.6,620.7C484.8,611 481.4,605.7 468.5,604.9Z" style="fill:rgb(94,42,14);"/>
                <path d="M489.6,620.7C483.8,618 472.4,616.8 467.8,616.6C458,616.1 449.4,616.9 441.6,619.2C443.4,629.6 458,632 466.3,632.3C473.4,632.5 487.5,630.4 489.6,620.7Z" style="fill:rgb(124,54,26);"/>
                <path d="M447.7,622.1C449,624.2 452,624.6 456,624.7C461.3,624.8 464.3,622.4 464,621.2C462.9,617.1 445.9,619.2 447.7,622.1Z" style="fill:rgb(172,94,108);"/>
            </g>
            <path d="M511.5,724.2C528.9,713.9 549,723.2 559,731.5C546.2,710.5 530.6,706.3 524,705.9C516.9,705.5 510.2,704.9 500.5,704.3C506.1,711.2 508.3,716.9 511.5,724.2Z" style="fill:rgb(194,194,194);"/>
            <path d="M424.5,727.7C404.3,711.8 382.6,696.5 356.3,693.4C339,691.3 328.7,697.7 315.4,707.9C306.1,715 297.3,723.8 289.1,733.7C329.7,709.7 380.8,714.6 424.5,727.7Z" style="fill:rgb(194,194,194);"/>
            <path d="M656.7,1433.9C660.2,1438.2 664.7,1438.9 664,1451.6C663.3,1464.3 655.8,1491.5 650.9,1479.4C646.1,1467.3 647,1466.2 641.9,1450.5C639.4,1442.7 641,1435.9 643.7,1433.2C647,1430 653.8,1430.2 656.7,1433.9Z" style="fill:rgb(206,206,206);"/>
            <path d="M664.8,1510.3C664.8,1510.3 674.5,1539.8 682.3,1590.5C690.1,1641.2 691.3,1650.5 692.7,1668.1C694.3,1688.3 681.8,1658 670.7,1611C664.7,1585.7 656.8,1541.4 658.4,1516.3C659.2,1505.5 662.7,1501.6 664.8,1510.3Z" style="fill:rgb(206,206,206);"/>
            <path d="M748,1843.4C750.2,1843.2 753.8,1860.4 754.3,1876.4C754.9,1892.4 755.6,1917.8 757.3,1929.6C759,1941.4 783.4,1956.3 792.5,1960.4C801.6,1964.5 791.8,1964.3 780.9,1961.3C770.1,1958.3 751.1,1943.8 747.3,1936.9C743.6,1930 743.3,1906.8 743.6,1882.7C743.7,1879.9 743.3,1843.7 748,1843.4Z" style="fill:rgb(206,206,206);"/>
            <path d="M337.7,1424.7C337.7,1424.7 307.4,1469.8 294.8,1476.9C282.1,1484 291.5,1429.3 295.5,1419C299.5,1408.7 353.9,1402.9 337.7,1424.7Z" style="fill:rgb(206,206,206);"/>
            <path d="M255.6,1442.5C255.6,1442.5 216.8,1470.1 211.6,1482.8C206.4,1495.5 191.5,1563.4 186.2,1596.9C181,1630.5 222.4,1537.2 240.3,1496.9C258.2,1456.6 273.5,1431.3 255.6,1442.5Z" style="fill:rgb(206,206,206);"/>
            <path d="M90.6,1862.4C86.6,1874.4 79.5,1896.7 74.9,1916C68.2,1944 61.1,1962.6 61.1,1962.6C61.1,1962.6 38.7,1990.6 35.7,1998.8C32.7,2007 64.6,1978.1 68.7,1969.9C79.1,1949.1 86,1906.1 90.8,1881.1C94.7,1860.6 93.2,1854.5 90.6,1862.4Z" style="fill:rgb(206,206,206);"/>
            <path d="M301.2,740.4C295.9,745.4 296.3,750.4 292.5,757C282.1,774.9 273.1,782.4 262.7,795.4C252.3,808.5 215.6,856.1 207.1,863.1C198.6,870 225.8,863.3 255.3,831.6C284.8,799.9 296.3,788.3 303.8,772.7C311.3,757 313.7,759 328.3,756.7C342.9,754.4 382.5,742.1 381,732.8C379.8,725.4 358.6,723.8 340.3,724.7C320.5,725.6 313.2,729.1 301.2,740.4Z" style="fill:rgb(206,206,206);"/>
            <path d="M583.7,845.5C588,843.7 592.4,840.9 596.1,837.6C602.9,831.8 613.4,819.8 615,802.1C617,780 606.8,770.9 599.2,766.7C591.6,762.5 568.4,751.3 562.7,749.5C557.1,747.7 538.4,731.5 534.9,726.8C531.4,722.1 534.9,737.5 550.3,749.1C565.7,760.7 589,768.3 596,773.4C603.9,779.1 606.4,791.6 605.1,802.7C603.5,815.9 596.5,827.7 587.9,835.7C581.2,842.1 578.3,847.8 583.7,845.5Z" style="fill:rgb(206,206,206);"/>
            <path d="M598.8,769.7C590.2,763 571.9,753.7 555.5,761.9C539.1,770.1 535.7,779.1 529,782.8C522.3,786.5 500.3,786.2 482.4,779.1C464.5,772 442.8,768.5 425.7,775C395.1,786.7 399.7,828 454.6,830.5C476.8,831.5 492.3,827.7 507.8,820.1C528.3,810 529.1,813.4 543.6,815.3C558.1,817.2 584.3,815.7 598.1,799.3C611.9,782.9 608.5,780.1 598.8,769.7Z" style="fill:rgb(206,206,206);"/>
            <path d="M589.1,858.1C591.2,862.1 592.8,862.4 593.9,879.2C595,896 596.9,926 607.7,943.5C618.5,961 615,985.6 613.9,994.2C612.8,1002.8 625.8,986.7 625.8,967C625.8,967 626.5,960.3 637,967.4C647.4,974.5 666.5,987.5 684,1017.8C684,1017.8 685.5,1021.9 679.2,1023.8C672.9,1025.7 667.3,1028.6 659.1,1018.6C650.9,1008.5 648.5,1003.9 642.1,997.2C625.2,979.3 622.7,1004.9 613.2,1000.6C607.8,998.1 607.6,989.2 603.1,969.1C598.6,949 592.8,941.5 588.7,922.1C585.5,907.1 589.5,885.5 586.7,869C585,858 586.4,853 589.1,858.1Z" style="fill:rgb(206,206,206);"/>
            <path d="M181.1,905.1C184.2,912.2 198.8,931.8 224.2,957.9C249.6,984 305.2,1015.1 353.4,1035.1C356,1036.2 372.4,1040 352.3,1029.1C283.5,992.2 249.1,969.1 194.7,912.6C185.1,902.7 176.8,895.4 181.1,905.1Z" style="fill:rgb(206,206,206);"/>
            <path d="M490,1020.8C490,1020.8 476.8,1026.6 464.3,1025.6C451.8,1024.7 452.7,1024.9 452.7,1024.9C452.7,1024.9 434.1,1032.4 426,1040C418,1047.6 406.2,1059 400.4,1061.4C394.6,1063.8 384.9,1055.6 382.5,1050.6C380.1,1045.6 386.4,1053 394.6,1053.4C402.8,1053.8 416,1040.2 421.6,1034.2C427.2,1028.2 436,1024.9 447.5,1017.8C447.5,1017.8 449,1015.4 456.5,1017.2C464,1019.1 471,1019.3 474.4,1019.3C477.9,1019.3 494.8,1017.6 490,1020.8Z" style="fill:rgb(206,206,206);"/>
            <path d="M496.5,990C487.8,995.4 483.9,994.4 474.2,996.4C470.1,997.2 467.6,998.1 461.8,1001.2L451.7,1007.4C451.7,1007.4 445.5,1005.9 443.5,1006.8C441.4,1007.7 433.8,1009.6 436,1007.5C438.2,1005.4 452.4,997.4 457.1,993.7C461.8,990 464,991.1 472.4,990.7C480.8,990.3 482.8,991.4 491.1,988.7C499.4,986.2 503.7,985.6 496.5,990Z" style="fill:rgb(206,206,206);"/>
            <path d="M492.6,980.4C482,985.5 474.7,984.2 463.6,984.5C453.7,984.7 450.9,985.8 447.8,988.1C444.1,990.8 438,994.3 433.5,996.1C429,997.9 432.1,993.7 441.4,987.9C450.7,982.1 455.8,979 459.9,978.3C464,977.6 466,978.4 476.4,978.8C486.9,979.1 497.4,978 492.6,980.4Z" style="fill:rgb(206,206,206);"/>
            <path d="M489.7,956.9C484,960.6 477.8,962.8 471.2,964.9L461.5,972C461.5,972 455.4,972.5 451.6,974.5C447.8,976.6 439.2,983.6 436.2,985.3C433.2,987 431,986.8 438.4,978.1C438.4,978.1 439.4,976.6 444.8,973.7C450.2,970.8 459.3,963.5 461.8,961C464.2,958.5 466.2,958.4 471,958C475.8,957.6 479.1,957.3 482,956.8C485,956.5 492.5,955.1 489.7,956.9Z" style="fill:rgb(206,206,206);"/>
            <path d="M652.4,1009.9C652.4,1009.9 670.2,1032.6 677.2,1096.7C684.2,1160.8 702.3,1071.6 702.3,1071.6C702.3,1071.6 695.3,1037.2 684,1017.6L665.1,1007.7L652.4,1009.9Z" style="fill:rgb(206,206,206);"/>
        </g>
    </g>
</svg>
