<?xml version="1.0" encoding="utf-8"?>
<!-- Generator: Adobe Illustrator 24.0.3, SVG Export Plug-In . SVG Version: 6.00 Build 0)  -->
<svg version="1.1" id="Artboard" xmlns="http://www.w3.org/2000/svg" xmlns:xlink="http://www.w3.org/1999/xlink" x="0px" y="0px"
	 viewBox="0 0 1125 2436" style="enable-background:new 0 0 1125 2436;" xml:space="preserve">
<style type="text/css">
	.st0{fill-rule:evenodd;clip-rule:evenodd;fill:#0767B1;}
	.st1{fill-rule:evenodd;clip-rule:evenodd;fill:#4FA6DC;}
	.st2{fill-rule:evenodd;clip-rule:evenodd;fill:#51A6DC;}
	.st3{fill-rule:evenodd;clip-rule:evenodd;fill:#645A60;}
	.st4{fill-rule:evenodd;clip-rule:evenodd;fill:#022832;}
	.st5{fill-rule:evenodd;clip-rule:evenodd;fill:#2B3F49;}
	.st6{fill-rule:evenodd;clip-rule:evenodd;fill:#E8F6FD;}
	.st7{fill-rule:evenodd;clip-rule:evenodd;fill:#C0E7FA;}
	.st8{fill-rule:evenodd;clip-rule:evenodd;fill:#DA9269;}
	.st9{fill-rule:evenodd;clip-rule:evenodd;fill:#FFFFFF;}
	.st10{fill-rule:evenodd;clip-rule:evenodd;fill:#A15F4B;}
	.st11{fill-rule:evenodd;clip-rule:evenodd;fill:#76614A;}
	.st12{fill-rule:evenodd;clip-rule:evenodd;fill:#312927;}
	.st13{fill-rule:evenodd;clip-rule:evenodd;fill:#733B34;}
	.st14{fill-rule:evenodd;clip-rule:evenodd;fill:#4E201F;}
</style>
<g>
	<path class="st0" d="M1087.1,1480.5c0,0-96.2-61.6-222.4-25.5c-92.6,26.5-80,100-88,151.9c-7.6,49.4-57.7,79.4-119,66
		c-18.3-24.4-24.9-36.4-38.7-61.6c-36.8-9.9-167.2-0.3-202.5,140.5c-115.7-219.4-192-373.4-250.6-1084.2l330.6,12
		c0,0,60.1,120.2,91.7,195.3c31.6,75.1,111.9,281.8,256.2,399C988.6,1391.1,996.1,1395.6,1087.1,1480.5z"/>
	<path class="st1" d="M789,1521.3c-9.5,28.2-8.3,59.6-12.3,85.6c-7.6,49.4-57.7,79.4-119,66c-18.3-24.4-24.9-36.4-38.7-61.6
		c0,0-56.5-106.5-101.6-245.5c-45.1-139-47.9-316.7-40.6-354.6c6.8-35.2,60,104,155.2,274C674.5,1361,733.9,1447.8,789,1521.3z"/>
	<path class="st2" d="M588.9,737.4c0,0,43.6,318.6,237.4,485.4c193.8,166.8,206.6,169,272.7,256.2c0,0,27,75.1-7.5,156.3
		c0,0-27-102.2-147.3-231.4c-120.2-129.2-211.9-183.3-300.5-338.1C555.1,911,498,726.2,498,726.2L588.9,737.4z"/>
	<path class="st3" d="M204.3,642.5c-10.7,3-15.7,4.3-42.2,15.2c-26.8,11.1-46,28.6-44.3,79.6c1.1,34.6,14.7,59.4,19.5,65
		c0,0-2.3,21.3-5.4,44.4c-3,23.1-4.3,41.9-5.1,49.2c-0.8,7.3-4.2,14.9-10.6,25.5c-5.9,9.7-29.8,53.4-36.9,71.8
		c-4.2,11.1-5,50.6-5,63c0,21.4,72.8,6.5,72.8,6.5s32.5-39.1,44.7-73.6c12.2-34.6,20.9-127.4,20.9-127.4L204.3,642.5z"/>
	<path class="st4" d="M211.4,656.4c-10.7,3-18.3,0.2-44.8,11.1c-26.8,11.1-38.9,30.1-37.2,64.6c1.7,34.5,14.7,59.4,19.5,65
		c0,0-2.7,26.6-5.7,49.7c-3,23.1-1.3,41.9-2.1,50.3c-0.7,8.5-6.5,17.6-12.9,28.1c-5.9,9.7-31,51.9-38,70.3c-4.2,11.1-5,50.6-5,63
		c0,21.4,52.1,0.5,52.1,0.5s38.9-47.3,51.1-81.9c2.5-7.2,3.9-20.1,6.3-30.1c9.2-38.3,17.9-85.2,17.9-85.2L211.4,656.4z"/>
	<path class="st3" d="M181.3,1594.2c0,0-14.7,7.1-17.7,17.7c0,0,0.4,73.3,0,107.4c-0.4,34.2-4.3,96.7-5.1,106.9
		c-0.8,10.1-3.7,36-2.2,38.6c1.5,2.6,7.1,10.5,3.2,12.8c-3.9,2.3-13.3,5.1-13.7,9.4c-0.4,4.3,0.4,6.8-1.3,8.5
		c-1.7,1.7-13.3,12.2-42.8,26.9c-29.5,14.7-58,25.4-68.2,32.5c-10.1,7.1-16.2,12.4-16.9,25.9L12,1983c-0.2,4.7-0.4,9.4-0.6,14.1
		c13.9,11.6,40.2,16.7,70.1,19.9s49.4-2.4,77-14.1c27.6-11.6,31.4-18,61-17.8c29.7,0.2,41.5-9.2,41.5-9.2l0.1-16.1l-4.5-3.9
		c0,0,1.3-19.9-6.6-43c-7.9-23.1-8.1-29.5-8.1-34.9c0,0,4-5.2,4.6-16.8c0.6-11.6,9.8-57.7,11.3-67.4c1.5-9.8,6-26.7,7.5-32.3
		c1.5-5.6,22.7-61.4,31.4-84c8.6-22.5,16.2-43.6,16.2-57.1c0-13.5-4.9-25.2-16.9-26.7C284,1592.1,181.3,1594.2,181.3,1594.2z"/>
	<path class="st4" d="M182.1,1612.7c-1.7,2.2-4.2,13.4-4.2,26.5c-0.1,71.6-3.6,124-8.8,195.2c-0.8,10.1,0.1,34.5,1.6,37.1
		c1.5,2.6,7.1,10.5,3.2,12.8s-13.3,5.1-13.7,9.4c-0.4,4.3,0.4,6.8-1.3,8.5c-1.7,1.7-14.8,11.5-44.3,26.1
		c-29.5,14.7-56.4,26.9-66.5,34c-10.1,7.1-13,10.1-13.7,23.7l-4.6,2.3c-0.2,4.4-0.3,9.5-2,17.9c14.3,5.5,33.2,8.6,53.9,10.9
		c29.9,3.2,49.4-2.4,77-14.1c27.6-11.6,31.4-18,61-17.8c15,0.1,25.4-2.3,32.1-4.6c-0.8-9.3-1.4-10.5-1.8-16l-4.5-3.9
		c0,0-2.4-32.9-10.3-56c-7.9-23.1-3.9-23.1-3.9-28.6c0,0,4-5.2,4.6-16.8c0.6-11.6,11.6-63.7,13.1-73.4
		c5.8-37.8,17.9-66.4,31.4-101.6c3.3-8.5,25.7-62.1,16.4-76.9c-2.9-4.7-1-4.8-8.2-5.7C276.9,1600.1,185,1602.8,182.1,1612.7z"/>
	<path class="st3" d="M183,1094c0,0-9,73.3-18,104.1c-9,30.8-10.5,95.4-9.8,111.2c0,0,5.3,39.1,18,76.6
		c12.8,37.6,18.9,66.6,19.1,68.8c0,0,0.4,9.8-1.9,19.5c-2.3,9.8-7.1,34.9-6.8,43.6l4.5,10.5c0,0-9.4,35.7-13.1,83
		c0,0,10.5,12.4,37.2,11.6c26.7-0.8,71,1.5,91.3-18c0,0-12-40.9-17.3-57.5c-5.3-16.5-6.8-26.7-12.4-39.8c0,0-3-14.7-1.1-21
		c1.9-6.4,10.9-19.2,10.1-29.7c-0.8-10.5-0.8-52.6,0.4-57.9c1.1-5.3,14.1-45.3,21.2-102c0,0,1.9-12.4,9.4-34.2
		c7.5-21.8,28.6-74,34.2-101.4C353.6,1134.1,263.8,1088.3,183,1094z"/>
	<path class="st4" d="M195.4,1096.3c0,0-6.4,73.3-15.4,104.1c-9,30.8-10.5,95.4-9.8,111.2c0,0,3.8,37.2,16.5,74.8
		c12.8,37.6,16.2,66.6,16.4,68.8c0,0,0.4,9.8-1.9,19.5c-2.3,9.8-5.7,34.8-5.3,43.4c0.2,3.6,3.6,23.9,11.9,43.2
		c-4.8-3.1-8.9-6.8-12.2-15c-4.7,23-9.8,41.2-12.3,71.2c5,4.1,16.6,7.7,30.1,7.3c21.6-0.6,54.8,0.3,76.1-10.8
		c-2.9-40.4-13.1-45.4-21.6-84.9c-1.2-5.8-12.8-3.9-25.2-20.5c10.9-0.2,15.4-4.3,16.7-5.4c0,0,5.3-22.5,10.5-44
		c5.3-21.4-7.5-43.7-12-89c11.3,39.4,12.8,26.3,13.9,21c1.1-5.1,13.9-62.7,22.3-115c0.3-1.8,10,22.8,10.2,20.9
		c0,0,1.9-12.4,9.4-34.2c7.5-21.8,28.6-74,34.2-101.4C353.6,1134.1,276.2,1090.5,195.4,1096.3z"/>
	<path class="st3" d="M417,1597.2c0,0-11.6,9.8-13.5,16.2c0,0,1.5,23.7,16.2,58.6c14.7,34.9,29.7,72.5,29.7,72.5s7.2,43.7,9.7,59.1
		c2.4,15.4,2.8,24.6,2.8,24.6s-0.6,38.9,0,41.3c0.6,2.4,2.6,7.5,8.3,12.8c0,0,0.1,8.8-0.4,13.5c-0.6,4.7-1.8,13.7,1.2,19.2
		c0,0,0.8,6-6,18.4c-6.8,12.4-5.6,22.2-5.3,23.3c0.4,1.1,10.9,12.2,11.8,15c0.9,2.8-1.7,9.4-4.5,13.3c-1.7,2.4-5.3,8.8-7.8,15.6
		c-1.7,4.6-3.3,15.8-3.1,19.7l-4.3,1.1l0.6,14.8c0,0,14.3,10.5,24.4,15.8c10.1,5.3,27.3,12.1,48,11.6c20.7-0.6,38.5-6,50-13
		c11.5-7,22.9-19,25-26.3l-1.3-12.8l-2.6-1.1c0,0-1.1-17.3-11.1-26.3c-10-9-25-24.7-25-24.7s-6.6-26.4-12.2-42.9
		c0,0,5.1-11.6,4.3-15c-0.8-3.4-10.9-13.7-11.8-18.8c0,0,8.3-7.1,9.2-9c0.9-1.9,1.9-30.6,3.4-51.3c1.5-20.7,2.4-65.2,4.7-87
		s10.9-57.1,7.9-115.3c0,0-1.9-16.2-10.9-26.3c0,0-10.9-5.6-33.1-6.8C498.9,1585.9,417,1597.2,417,1597.2z"/>
	<path class="st4" d="M432,1611.5c0,0-10.9-4.9-12.8,1.5c-2.3,6,0.2,17.9,2.1,23.6c3.7,11.2,10.7,31.7,20.5,54.9
		c14.7,34.9,19.5,54.5,19.5,54.5s5.4,39.9,7.8,55.3c2.4,15.4,2.8,24.6,2.8,24.6s1.3,38.9,1.9,41.3c0.6,2.4,2.6,7.5,8.3,12.8
		c0,0,0.1,8.8-0.4,13.5c-0.6,4.7-1.8,13.7,1.2,19.2c0,0,0.8,6-6,18.4c-6.8,12.4-5.6,22.2-5.3,23.3c0.4,1.1,10.9,12.2,11.8,15
		c0.9,2.8-1.7,9.4-4.5,13.3c-1.7,2.4-5.3,8.8-7.8,15.6c-1.7,4.6-4.9,21.8-4.8,25.7l-4.3,1.1c0,12.2-0.2,11.8,0.2,18
		c4.5,3,9.9,6.4,14.4,8.8c10.1,5.3,27.3,12.1,48,11.6c20.7-0.6,38.5-6,50-13c6.1-3.7,12.2-8.8,16.9-13.9c-1-7.9-2.2-13.8-3.2-21.4
		l-2.6-1.1c0,0-1.1-17.3-11.1-26.3c-10-9-25-24.7-25-24.7s-9.8-29.4-15.4-45.9c0,0,5.1-11.6,4.3-15c-0.8-3.4-10.1-16.7-11.1-21.8
		c0,0,8.3-7.1,9.2-9c0.9-1.9,1.5-26.1,3-46.8c1.5-20.7,2.4-65.2,4.7-87c2.3-21.8,10.1-54.8,7.1-113.1c-0.8-11.3-4.5-19.5-16.9-26.7
		C488.5,1601.6,480.9,1595.6,432,1611.5z"/>
	<path class="st3" d="M271.9,511.4c2.6,11.3,1.9,42.7,3.6,72.5c0,0-53.7,43.4-71.2,58.6c0,0-34.3,40.7-42.5,103
		c0,0-3.9,27.6-2.4,35.9c1.5,8.3,7.1,14.7,11.6,19.5c0,0-8.5,40-5.8,55c2.6,15,25.5,65.4,28.2,73.6c0,0-5.3,16.2-4.9,44.7
		c0.4,28.6-2.8,103.5-5.4,119.7c0,0,31.2,44.3,36.1,57.1c4.9,12.8,22.2,47.7,69.9,49.6c0,0,98.4-8.3,156.3-63.5
		c0,0,3.8-33.8-3.4-61.2c0,0-2.6-28.9-1.5-45.5c1.1-16.5,3.4-80.8,3.4-99.2c0,0,62.9-47.1,87.7-94.9c24.8-47.7-9.2-158-14.8-196.3
		c-34.6-30.4-57.1-44-110.4-79.3c0,0-5.3-23.3-10.9-65l-74,1.9L271.9,511.4z"/>
	<path class="st4" d="M282.8,515.2c2.6,11.3,2.6,44.9,4.3,74.8c0,0-61.2,47.5-78.7,62.7c-23.8,22.1-47.3,90.5-41.2,123.9
		c1.1,5.9,5.6,12.9,10.3,17.7c1.3,1.3,10.7,10.5,19,13.8c3.9,1.6,10.8,1.3,18.2,0.1c6.7-1,17.5-3.5,27.1-2.1
		c-10.7,2.5-17.3,5.7-26,8.4c-13.6,4.2-25.7,6.1-35.2-2.2c-2.5,13.9-5.4,34.7-3.8,44.1c2.2,12.7,19.9,50.2,27,66.6
		c1.3,3,9.6,25.5,10,26.8c-0.7,2.8-8.9-13.1-9.8-8.1c-2.5,14.4-5.3,36.3-5.1,57.5c0,0,0.8,68.1-2.9,98.1c9.6,14.1,20.5,34.7,23.7,43
		c4.9,12.8,23.3,52.6,71,54.5c0,0,85.7-8.3,143.5-56.4c0,0,4.9-32.3-2.3-59.7c0,0-4.9-34.9-3.8-51.5c1.1-16.5,0.8-87.5,0.8-105.9
		c0,0,21.8-19.3,37.1-33c2.9-2.6,10.4,15.3,13.5,12.3c18.5-17.6,39.7-40.7,51.8-64c20.5-39.4,0.8-121.5-9.8-170.5
		c-2.2-10.3-6.3-3-7.3-9.7c-26.3-27.1-63.5-51.4-116.8-85.3c0,0-4.5-25.9-10.1-67.6l-66.1-5.6L282.8,515.2z"/>
	<path class="st3" d="M287.8,1200.6c0,0,2.8,14.3,8.8,30.3c6,16,16,51.7,21.6,76.4c5.6,24.8,18.2,61.4,23.5,74.9
		c5.3,13.5,12.4,33.4,19.2,45.8c6.8,12.4,21,36.4,49.2,71.4c0,0-2.4,71.6,3.2,112.9c0,0,8.6,11.3,51.8,15.8
		c43.2,4.5,60.5-2.3,83.4-25.5c0,0-21.4-43.6-72.9-121.3c0,0-4.7-35.5-8.8-64.1c-4.1-28.6-9.8-88.3-12.4-112.7
		c-2.6-24.4-4.7-91.2-9.2-167.4C411.8,1120.8,304.9,1141.3,287.8,1200.6z"/>
	<path class="st4" d="M287.8,1200.6c0,0,16,30.1,22,46.1c6,16,15.2,34.7,20.9,59.5c5.6,24.8,20.9,61.4,26.1,74.9
		c5.3,13.5,12.4,33.4,19.2,45.8c4.7,8.7,33.4,50.3,44.1,70.5c4.9,9.3,9.5,18.6,12.5,29.4c2.8,9.9,4.1,21.6,7.1,25.6
		c2.4,3.3,4.7,6.2,6.7,8.6c1.8,2.2,5.2,4.8,6.4,6.3c1.6,1.9,2.4,4.2,3.7,7.3c2.1,5,4.8,9.7,2.4,8.2c-9.7-6-8-9.9-12.9-13.8
		c-13.7-11.2-14.7-16.1-15.3-17.5c-1-2.3-3-16.6-8.2-29.1c0.5,30.5-3.3,65.4,2,96.7c7.2,4.4,20.4,7.6,40.8,9.8
		c36.5,3.8,56-0.8,73.1-16.7c-12.6-29.2-28.8-52.4-40.9-67.9c-2.1-2.7-12.7,33.1-27.8,37.8c-1.5,0.5-0.7-5.2,2.5-11.2
		c4.2-7.8,6.4-17.7,6.5-20c1-14.8-15.9-32.1-19.8-36.1c-2.5-2.5,9.8,0.7,8.6-3.6c0,0-5.1-28.2-5.7-34.8c-1.1-11.6-3.5-31.7-8.6-55.2
		c-7.9-36.8-13.1-96.5-15.7-120.9c-2.6-24.4-0.1-89.8-4.6-166C399.2,1118.1,304.9,1141.3,287.8,1200.6z"/>
	<path class="st3" d="M160.4,1063.3c0,0-7.9-14.8-39.8-17.1c-31.9-2.3-52.8,3-57.9,8.5c-0.2,9.8-1.1,37.4,1.5,67.4
		c2.6,30.1,4.1,60.1,7.1,70.3c3,10.1,1.9,39.8-1.1,51.1c-3,11.3-1.6,14.7,1,16.4c2.6,1.7,28.7,14.3,28.7,14.3s13.9,9.8,18.4,11.1
		c4.5,1.3,9.6-1.9,13-6.8c0,0,8.6,0.2,12.6-2.6c3.9-2.8,2.1-14.7,1.5-16.3c0,0,6.8-9,5.6-14.5c-1.1-5.4-6.8-13.1-6.8-13.1
		s8.1-20.5,6-28c-2.1-7.5-19.6-29.2-25.6-34.5c0,0,2.3-27.7,7.4-49.1C137.2,1098.9,153,1077.3,160.4,1063.3z"/>
	<path class="st4" d="M152.2,1055.4c-6.4-4.3-15.9-8.8-31.6-9.9c-20-1.4-35.1,0.3-45.8,3.6c-0.5,26.2-2.2,57.8-1.1,70.1
		c2.6,30.1,4.1,60.1,7.1,70.3c3,10.1,2.4,37.6-0.6,48.8c-3,11.3-1.6,14.7,1,16.4c2.6,1.7,21.8,12.8,21.8,12.8s10.9,10.7,15.4,12
		c4.5,1.3,5.6-2.4,9-7.3c0,0,9.2-0.4,13.1-3.2c3.9-2.8-1.1-10.9-1.7-12.6c0,0,7.5-5.8,6.4-11.3c-1.1-5.4-10.1-12.4-10.1-12.4
		s10.3-20.1,8.3-27.6c-2.1-7.5-20.2-27.3-26.2-32.6c0,0,3.5-32.2,8.5-53.6C130.8,1097.8,141.4,1079,152.2,1055.4z"/>
	<path class="st5" d="M289.6,566.7c4.8,5.9,10,13.8,19.3,20.6c2.6,0.9,40.8,0.1,45-1.2c4.3-1.3,18-19,25.8-28.1
		c6.8-7.9,20.3-28.4,19.4-35.6c-1.2-7.8-2.5-16.6-3.9-26.5l-74,1.9l-49.3,13.6c1.4,6,1.8,17.7,2.2,31.9
		C278.4,551,288.6,565.5,289.6,566.7z"/>
	<g>
		<path class="st3" d="M483.4,759.5c0,0,4.6,84,39.2,149.9c3.8,7.2,11.1,19.4,15.7,26c-1,7.8-4.8,14.6-7.6,23.5
			c0,0-16.7,27.2-14.3,70.7c0,0,15.6,19.1,93.6,36.6c0,0,17.9-41.5,18.9-58.1c1-16.6-5.4-53.6-12.5-87.9
			c-7.1-34.4-2.7-56.5-0.7-66.7c9.6-50.6,1.2-91.5-17.7-111.8c0,0,2-44.8-8.7-64c-10.7-19.2-53.4-37.4-87.4-41.7
			c4.3,9.7,12.7,22,13.9,31.3C522.5,719.1,483.4,759.5,483.4,759.5z"/>
		<path class="st4" d="M483.4,759.5c9.2,53.7,35.5,128.2,66.8,174c-0.3,12.5-12.8,34.5-17.1,47.4c-4.8,14.3-9.4,34.2-8.2,56.3
			c0,0-3.7,8.9,74.3,26.5c0,0,21-51.2,19.3-70.3c-1.7-19.1-7.4-37.4-14.4-71.7c-7.1-34.4-2.7-56.5-0.7-66.7
			c9.6-50.6-3.4-86.9-21.6-109.1c0,0,3.4-43.3-7.4-62.5c-10.7-19.2-40.4-29.8-73.2-26.9C468.3,659.4,483.4,759.5,483.4,759.5z"/>
		<path class="st3" d="M509.5,1028.6c-2.4,8.9-3.9,14.6-3.8,40.1c0,25.6-0.3,59.3-0.3,59.3s0.3,34-14.4,64.3c0,0-7.7,4.8-12.4,9.7
			c-4.7,4.8-15.6,10.8-19.4,12.2c-3.7,1.4-13,3.8-16.6,10.1c-3.6,6.3-9.9,25.1-14,33.9c-4.1,8.8-8.6,12.1-8.4,14.5
			c0.3,2.4,6.1,9.4,6.1,9.4s-0.2,12.2,1.2,14.2c1.4,2,6.1,4.1,14,3.9c0,0,12,7.8,17.4,7.3c0,0,9.6,6.7,15.6,6.5
			c6-0.2,10.7-5.4,10.7-5.4s8.5-0.1,14.2-3.1c0,0,12.4-0.4,20.4-3.1c8-2.7,10-5.4,9.9-9.3c-0.1-3.9,1.9-23.7,5.4-31.6
			c3.5-7.8,11.1-22.3,12.7-35.6c15.3-24.8,33.6-55.2,45.4-78.7c0,0,22.1-40,28.8-76.4C601.3,1047.4,539.1,1027.7,509.5,1028.6z"/>
		<path class="st4" d="M512.7,1157.4c-1.3,10.6-4.6,20-13.4,38.1c0,0-10.4,10.3-15.1,15.2c-4.7,4.8-15.6,10.8-19.4,12.2
			c-3.7,1.4-13,3.8-16.6,10.1c-3.6,6.3-6.7,11.7-10.7,20.5c-4.1,8.8-8.6,12.1-8.4,14.5c0.3,2.4,6.1,9.4,6.1,9.4s-0.2,12.2,1.2,14.2
			c1.4,2,6.1,4.1,14,3.9c0,0,12,7.8,17.4,7.3c0,0,2,2.4,8,2.2c6-0.2,10.7-5.4,10.7-5.4c10.3-0.1,8.9-0.9,20.6-2.3
			c10.3-1.3,15.6-4.8,15.5-8.7c-0.1-3.9,1.9-23.7,5.4-31.6c3.5-7.8,11.1-22.3,12.7-35.6c23.7-36.7,64-107.5,73.1-158
			c-22.4-18.5-63.4-32-92.7-34.2C512.4,1056.7,517,1122.9,512.7,1157.4z"/>
	</g>
	<g>
		<path class="st6" d="M260.7,469c0,0-2.2-31.4,0.2-47.1c2.4-15.7,11.1-30.2,29.4-39.5c18.3-9.3,35.6-11.5,57-7.2
			c21.5,4.4,42.1,15.1,47.9,41.1c5.8,26,3.2,38.5,3.2,47.7C398.4,473.1,295.2,521,260.7,469z"/>
		<path class="st7" d="M269.8,476.9c0,0,6.2-37.4,6.6-50.3c0.4-12.9-2-24.2,16.3-33.6c11.2-5.7,22-8.7,33.6-9.2
			c28-1.2,50.8,11.5,49.1,37.7c-1.4,21.7,11.9,42.5,11.9,51.7C387.3,482.3,304.4,529,269.8,476.9z"/>
		<path class="st8" d="M268.1,474.4c0,0-3.6-9.1-8.3-9.3c-4.8-0.2-3.8,7.2-4.2,10.9c-0.4,3.8-1.2,16.9,2.4,23.2
			c3.6,6.4,10.3,16.5,15.3,12.7C278.3,508.2,278.5,490.3,268.1,474.4z"/>
		<rect x="274.8" y="448.9" class="st9" width="105.4" height="39"/>
		<path class="st10" d="M268.1,474.4c0,0-1.8-4.5-4.5-7.3c-0.2,7.4-5.4,16.8,1.3,29.7c2.4,4.7,3.1,2.6,3.9,15.4
			c1.5,0.7,3.1,0.7,4.4-0.3C278.3,508.2,278.5,490.3,268.1,474.4z"/>
		<g>
			<path class="st11" d="M297,480.7c3.8,0,7-3.1,7-7c0-3.8-3.1-7-7-7c-3.8,0-7,3.1-7,7C290,477.6,293.1,480.7,297,480.7z"/>
			<path class="st12" d="M297,477.4c2,0,3.6-1.6,3.6-3.6c0-2-1.6-3.6-3.6-3.6s-3.6,1.6-3.6,3.6C293.3,475.7,295,477.4,297,477.4z"/>
		</g>
		<g>
			<path class="st11" d="M353.8,478.7c3.8,0,7-3.1,7-7c0-3.8-3.1-7-7-7c-3.8,0-7,3.1-7,7C346.8,475.6,349.9,478.7,353.8,478.7z"/>
			<path class="st12" d="M353.8,475.4c2,0,3.6-1.6,3.6-3.6c0-2-1.6-3.6-3.6-3.6c-2,0-3.6,1.6-3.6,3.6
				C350.1,473.8,351.8,475.4,353.8,475.4z"/>
		</g>
		<path class="st8" d="M392.7,464.9c0,0,2.6-10.7,7.2-12.7c4.6-2,7-0.6,8.1,5.6c1.2,6.2,3,22.5-0.8,31.2
			c-3.8,8.7-12.5,21.9-14.1,7.8C391.5,482.6,392.7,464.9,392.7,464.9z"/>
		<path class="st10" d="M392.7,464.9c0,0,0.7-2.9,2-5.9c2.6,1.4,4.2,3.8,5.5,6.1c3.2,5.6,3.5,12.6,1.8,17.6c-0.7,2.1-2.4,4-2.9,6
			c-0.8,2.8-1.2,6.4-0.8,13.6c-2.4,1.6-4.5,0.6-5.2-5.6C391.5,482.6,392.7,464.9,392.7,464.9z"/>
		<path class="st8" d="M318.5,416.5c-9.8-0.5-44.8-11-47.5,5.8c-1.2,7.5-0.6,21.7-0.6,21.7c-1.3,5.9-2.3,12.7-4.1,23.3
			c-0.6,3.5-1.6,20.7,4.8,29.6c0,0-0.2,25,0.6,31.4c0.8,6.4,14.3,19.7,19.9,26.4c5.6,6.8,9.3,12.6,18.1,18.9
			c2.4,0.8,39.3,1,43.3-0.2c4-1.2,14.9-17.5,22.9-26.6c7.9-9.1,20.5-23.4,20.5-27.2c0-3.8-0.4-15.9-0.4-15.9l-1.2-12.1l-0.4-4.8
			c3.7-9.8,2.1-19.4-2.4-28.2c-3.8-7.5-5.9-14.8-8.6-22.5c-1.4-15.7-3.2-23.1-5.2-25.2c-1.7-1.8-10-5.4-18.6-2.9
			C345.6,411.9,335.9,417.4,318.5,416.5L318.5,416.5z M341.5,474.3c2.9-3.7,6.4-6,9.5-6.9c8.7-0.2,16.6,1,19.9,2.3
			c-2.1,0.8-6.8,5.3-13,5.6C351.7,475.6,347.8,473.8,341.5,474.3L341.5,474.3z M309.6,475.5c-6.3-0.1-10.7,2-17,2
			c-6.3,0.1-7.7-2-11.1-3.3c4.2-2.6,9.4-4.9,18.2-5.1C302.9,469.9,306.5,472,309.6,475.5z"/>
		<path class="st10" d="M277.3,414.5c-0.3,9.3,1.3,22.8,0.8,28.4c-0.6,7.1-1,18.4-2.2,21.8c-0.9,2.7-5.6,13.5-2.8,25.3
			c1.3,5.6,7.6,14.8,13.6,25.4c2.3,18.8,7.1,32,12.6,43.2c2.3,4.7,5.4,9.3,10.3,15c2.4,0.8,39.3,1,43.3-0.2
			c10.3-15.9,13.6-28.3,14.7-33.6c1.9-9.1,3.5-15.9,5.8-24.8c4.5-8.7,15.6-27.7,14.5-36.9c-1-8.6-3.5-14.5-6.3-17.3
			c-2.2-5.9-5.1-14.9-5.5-24.6c-0.3-7.8-0.6-20.2-2-27.6c-3.6-1.3-9-2.2-14.4-0.6c-14,4-23.8,9.5-41.1,8.6
			C311,416.1,288.5,409.8,277.3,414.5L277.3,414.5z M341.5,474.3c2.9-3.7,6.4-6,9.5-6.9c8.7-0.2,16.6,1,19.9,2.3
			c-2.1,0.8-6.8,5.3-13,5.6C351.7,475.6,347.8,473.8,341.5,474.3L341.5,474.3z M309.6,475.5c-6.3-0.1-10.7,2-17,2
			c-6.3,0.1-7.7-2-11.1-3.3c4.2-2.6,9.4-4.9,18.2-5.1C302.9,469.9,306.5,472,309.6,475.5z"/>
		<path class="st13" d="M308.6,506.2c0.4-1.6,2.2-3.1,3.7-5.6c0.5-0.8,1.1-0.1,1.7,0.7c1.6,2.5,4.3,5,7.5,5.5c4,0.6,6.2-3.7,8.5-6.4
			c0.5-0.6,1.7,1.7,3.6,1.7c2,0,3.9,0.2,4.5,0.9c1.3,1.4,2.2,4.7,4.2,4.4c2-0.2,0,2.2-4.1,2.7c-4.1,0.6-8.1,2.8-9.9,5.2
			c-1.8,2.3-5.8,2.2-8.8-0.5c-3.1-2.7-5.8-2.7-8.1-3.3C308.2,510.8,308,508.5,308.6,506.2z"/>
		<path class="st14" d="M328.3,508.5c0,0,0.3-2.3,3.8-2.7c3.5-0.3,4.7,0.4,5.3,1.6C338,508.6,332.2,508.1,328.3,508.5z"/>
		<path class="st13" d="M333.6,477.8c0,0,1.6-2.3,5.3-1.7c3.7,0.5,14.1,2,22,1c7.8-1,11.1-4.7,13.9-7.4c2.8-2.7,6.4-6.2-2.2-11.9
			c-8.6-5.7-21.8-0.9-25.7,0.3C343,459.3,330.1,471.4,333.6,477.8L333.6,477.8z M341.5,474.3c2.9-3.7,6.4-6,9.5-6.9
			c8.7-0.2,16.6,1,19.9,2.3c-2.1,0.8-6.8,5.3-13,5.6C351.7,475.6,347.8,473.8,341.5,474.3z"/>
		<path class="st13" d="M316.4,478.7c0,0-2-2.2-5.4-1.6c-3.4,0.5-14.6,3.8-21.8,2.8c-3.7-0.5-7.8-2.5-10.1-5.3
			c-3.5-4.2-3.8-10.2,2.2-15.4c4-3.5,9.8,0.6,14.5,1.5c3.9,0.7,6.5-3,8.1-2.5C307.4,459.3,319.6,472.2,316.4,478.7L316.4,478.7z
			 M309.6,475.5c-3.2-3.5-6.8-5.6-10-6.4c-8.7,0.2-13.9,2.6-18.2,5.1c3.5,1.3,4.8,3.3,11.1,3.3C298.9,477.5,303.4,475.4,309.6,475.5
			z"/>
		<path class="st14" d="M317.3,508.2c0,0-1.4-2.5-3.5-2.7c-2.1-0.3-2.6,2-2.1,2.7C312.2,508.8,315.7,508,317.3,508.2z"/>
		<path class="st13" d="M336.8,460.4c0,0-6.2,8.1-7.3,11.4c-1.1,3.3,0.4,14.4,0.1,18c0,0,3.1,3.2,3.6,5.9c0,0,2.5-0.8,3.5-1.5
			c0.9-0.7,3.9-0.3,5.6,1.7c1.7,2,3.6,7.9,1.1,9.2c-2.5,1.3-3.4,0.3-5-1.2l1.9,5.8c0,0,3.2-0.3,5.2-3.9c2-3.6-0.3-9.6-2.2-11.5
			c-1.2-1.3-4.6-4.5-7.3-6.8c-2-1.8-2.9-11.5-1.6-14.6c0.8-2.1,7.5-10.2,17.8-14.1l-9.2-0.4L336.8,460.4z"/>
		<path class="st13" d="M299.6,532.3c3.2,2.6,6.1,8,10.8,10.7c1.4,0.8,2.9,1.6,6.6,1.8c2,0.1,6.2-0.6,9.5-1.1
			c5.6-0.9,9.7-0.4,12.4-1.3c2.5-0.8,5.4-2.6,6.9-4.9c1.7-2.7,2.8-5.3,4.8-7.4c-4.9-1-12-4.5-15.9-4.8c-5.7-0.4-8,2.5-13,1.7
			C313.4,525.7,311.6,530.5,299.6,532.3z"/>
		<path class="st10" d="M299.6,532.3c3.3,1.8,6.5,6.8,11.2,9.5c2.2,1.3,5.4,2,12.9-0.1c4.1-1.2,9.9-0.5,12.4-0.8
			c3.9-0.4,6.2-2,7.8-3.3c3.4-2.7,3.5-5.8,6.7-7.5c-4.9-1-12-4.5-15.9-4.8c-5.7-0.4-8,2.5-13,1.7
			C313.4,525.7,311.6,530.5,299.6,532.3z"/>
		<path class="st13" d="M311.3,511.5c-2.9-0.5-5.8-1.3-6.6-3.7c-1.5-4.2,3.1-12,7-11.4c0,0-2.7,1.6-4.1,5.1c-1.3,3.5-1.2,5-0.5,5.7
			c0.6,0.7,1,0.3,1.6-1l1.7,1.7L311.3,511.5z"/>
		<path class="st6" d="M335.9,461.4l3.8-8.8c0,0,11,0.4,16.6-1c5.5-1.4,6.6-2.8,9.6-3.4c2,1,9.5,7.2,13.4,14.7c0,0-9.4-5.5-15.3-5.2
			C358.1,458,342.2,462.4,335.9,461.4z"/>
		<path class="st13" d="M299.6,532.3c0,0,5.4,1.6,8.7-0.3c3.3-1.9,7.3-3,9.9-1.4c2.6,1.6,7,3,10.4-0.4c3.3-3.4,8.5-2.8,11.9-1
			c3.4,1.8,4.4,2,10.1,0.9c-1.8-0.9-5.9-3.3-8.2-6.2c-2.4-2.9-8.1-4.2-10.6-3.9c-2.5,0.3-4.6,3.1-8,3.1c-3.3,0-4.2-1.8-8.4-1.4
			C308.8,522.2,306.3,530.2,299.6,532.3z"/>
		<path class="st8" d="M315.1,496.2c0,0,0.6-1.7,3.4-2.7c2.8-1,2.8,3.6,1.9,5C319.5,499.8,314.2,498.4,315.1,496.2z"/>
		<path class="st8" d="M318.3,473.5c0.3,3.8-0.2,13.6-0.1,17.9c0,0-1.7,1-2.5,1.8c-0.7,0.8,0.7-15.6,0-19.2
			c-0.4-2.3-3.2-6.7-6.4-11.7c-1-1.6,1-0.1,1.1,0.1C313.5,466.2,318.1,470.9,318.3,473.5z"/>
		<path class="st6" d="M274.7,468.1c0,0-0.6-7.9,7.6-14.7c0,0,6,1.6,9.4,2.8c3.3,1.1,10.6,0.3,14.5-0.5c1.4,2.2,2.8,4.4,4.3,6.6
			c-12,3.7-15.1,0.3-24-0.2C282.3,461.9,277.9,463,274.7,468.1z"/>
		<path class="st10" d="M397.9,462.9c0,0,1.4-5.6,3.3-6.9c1.8-1.2,5-2.1,5.9,6.8c0,0-2.3-5.5-4.2-5.2c-1.9,0.3-2.8,5.1-2.8,9.5
			C400.2,471.6,398.6,467.3,397.9,462.9z"/>
		<path class="st10" d="M399.6,464.1c0,0,6.5,0.5,7,6.3c0.5,5.8,0,12.4-1.9,16.5c-1.9,4.1,2.1-12.1-0.8-15.7
			c-2.9-3.6-3.6,0.7-3.6,0.7L399.6,464.1z"/>
		<path class="st9" d="M293.5,470.9c1,0,1.8,0.8,1.8,1.8c0,1-0.8,1.8-1.8,1.8c-1,0-1.8-0.8-1.8-1.8
			C291.7,471.8,292.5,470.9,293.5,470.9z"/>
		<path class="st9" d="M350.4,468.9c1,0,1.8,0.8,1.8,1.8c0,1-0.8,1.8-1.8,1.8c-1,0-1.8-0.8-1.8-1.8
			C348.5,469.8,349.3,468.9,350.4,468.9z"/>
	</g>
	<path class="st3" d="M186.1,1053c34.2,8.1,117.9,11.7,254.4,5c0.5,10,1.2,17.9,1.2,17.9c7.1,27.4,3.4,61.2,3.4,61.2
		c-39.1-12-125.5,2.6-157.4,63.4c-47.7-1.9-63.9-36.8-68.8-49.5c-4.9-12.8-36.1-57.1-36.1-57.1C184,1087.5,185.2,1071.6,186.1,1053
		L186.1,1053z"/>
	<path class="st4" d="M198.5,1055.4c32.2,2.1,218.3,1.1,231.2,3.2l1,16.7c7,32.9,1.9,59.2,1.9,59.2c-4.7-0.1-27.7,0.8-32.4,1.3
		c-40.5,4.3-90.5,26.2-112.4,64.9c-48.1-0.6-64.4-35-69.3-47.8c-3-7.7-14.7-24.9-24.4-42.8L198.5,1055.4z"/>
	<path class="st3" d="M322.9,811.2c0,0,18.4,2.3,32.7,4.7c14.3,2.4,28.9,1.3,46.8-7.3c17.8-8.6,38.1-19.3,45.8-25.5
		c7.7-6.2,21.8-17.7,28.7-22c0,0-11.5,2.3-23.9,9.6c-12.4,7.3-37.9,22-50.9,28.7c-13,6.8-25.5,10.7-40,9.2
		C347.7,807.1,333.8,807.9,322.9,811.2z"/>
	<path class="st0" d="M256.4,599.4c0,0-3.4,24.7,1.1,70.5c0,0-49.4-2.9-67.2-6.9c0,0-20.4-4.3-30.9-4.2c0,0,25.3-11.9,44.8-16.3
		C204.3,642.5,230.8,619.1,256.4,599.4z"/>
	<path class="st0" d="M446.3,587.4c0,0-62.5,26.1-118.8,80.5c90-7.5,169.9-16.3,238.7-10.5c0,0-21.4-14.5-53.4-20.6
		C510.1,634.1,486.9,613,446.3,587.4z"/>
	<path class="st1" d="M446.3,587.4c0,0-5,2.1-13.5,6.3l0,0c0,0,41.9,27.3,57.6,41c14.6,12.7,22.1,19.9,23.1,20.9
		c18.2-0.1,35.7,0.4,52.6,1.9c0,0-21.4-14.5-53.4-20.6C510.1,634.1,486.9,613,446.3,587.4z"/>
	<path class="st2" d="M183.2,661.7c4.2-1.1,12.7-3.1,21.7-3.9c0,0,17-16.7,50.5-43c0.3-10.1,1-15.4,1-15.4
		c-25.6,19.7-52.1,43.1-52.1,43.1c-19.5,4.4-44.8,16.3-44.8,16.3C166,658.8,176.3,660.4,183.2,661.7z"/>
</g>
</svg>
