<?xml version="1.0" encoding="utf-8"?>
<!-- Generator: Adobe Illustrator 24.0.3, SVG Export Plug-In . SVG Version: 6.00 Build 0)  -->
<svg version="1.1" id="Artboard" xmlns="http://www.w3.org/2000/svg" xmlns:xlink="http://www.w3.org/1999/xlink" x="0px" y="0px"
	 viewBox="0 0 1125 2436" style="enable-background:new 0 0 1125 2436;" xml:space="preserve">
<style type="text/css">
	.st0{fill-rule:evenodd;clip-rule:evenodd;fill:#8E5501;}
	.st1{fill-rule:evenodd;clip-rule:evenodd;fill:#FDBC11;}
	.st2{fill-rule:evenodd;clip-rule:evenodd;fill:#EFAF13;}
	.st3{fill-rule:evenodd;clip-rule:evenodd;fill:#CD8914;}
	.st4{fill-rule:evenodd;clip-rule:evenodd;fill:#C5974A;}
	.st5{fill-rule:evenodd;clip-rule:evenodd;fill:#FFECA8;}
	.st6{fill-rule:evenodd;clip-rule:evenodd;fill:#9C6C27;}
	.st7{fill-rule:evenodd;clip-rule:evenodd;fill:#E5A788;}
	.st8{fill-rule:evenodd;clip-rule:evenodd;fill:#D3927A;}
	.st9{fill-rule:evenodd;clip-rule:evenodd;fill:#8A4E39;}
	.st10{fill-rule:evenodd;clip-rule:evenodd;fill:#E1B794;}
	.st11{fill-rule:evenodd;clip-rule:evenodd;fill:#C28163;}
	.st12{fill-rule:evenodd;clip-rule:evenodd;fill:#C0826F;}
	.st13{fill-rule:evenodd;clip-rule:evenodd;fill:#B00836;}
	.st14{fill-rule:evenodd;clip-rule:evenodd;fill:#670014;}
	.st15{fill-rule:evenodd;clip-rule:evenodd;fill:#FFFFFF;}
	.st16{fill-rule:evenodd;clip-rule:evenodd;fill:#078C45;}
	.st17{fill-rule:evenodd;clip-rule:evenodd;fill:#4A1D0B;}
	.st18{fill-rule:evenodd;clip-rule:evenodd;fill:#231F20;}
	.st19{fill-rule:evenodd;clip-rule:evenodd;fill:#E56B6D;}
	.st20{fill-rule:evenodd;clip-rule:evenodd;}
	.st21{fill-rule:evenodd;clip-rule:evenodd;fill:#1C4923;}
	.st22{fill-rule:evenodd;clip-rule:evenodd;fill:#35813F;}
</style>
<g>
	<path class="st0" d="M931.7,1177.6c-14.7-14.8-89.8-98.3-208.7-180.9c-62.4,17.4-69.6,104.4-16,147.9
		C760.7,1188.1,830.2,1174.7,931.7,1177.6z"/>
	<path class="st1" d="M931.7,1177.6c-14.7-14.8-89.8-98.3-208.7-180.9c-3.9,1.1-14.2,2-11,4c20.9,13.6,148.5,93.2,194.3,176.4
		C914.5,1177.2,923,1177.3,931.7,1177.6z"/>
	<path class="st2" d="M1114.3,806c0,0-85.5,63.2-208.8,38.6c-123.2-24.6-280.5-103.6-436.3-137c-61.5-13.2-96-16.9-121.4-17.1
		c-30.2-0.2-19.2,8.4-19.2,8.4c4.1,3.9,8.2,7.7,12.3,11.6c186.3,35.2,393,136.1,517.8,160.7S1062.8,877.9,1114.3,806z"/>
	<path class="st2" d="M221.4,691.9c81.6-5.2,156.8,12.4,226.7,26.3C735.8,775.5,932.5,944,1114.3,806
		c-54.2,159-174.6,190.2-319.4,226.3c-71.2,17.7-99.4,65-69.4,87c35.1,25.7,161.5,24.8,197.1,50.4c55.3,39.7-26.7,73.3-87.4,97.7
		c-139.1,55.8-153.4,185.6-158.8,304.4c-230.9-201.3-125.7-318.7-374.2-511.8c-53.2-41.4-87.7-109.1-120.1-193.2l37.6-119.2
		C219.8,747.6,223.6,695.8,221.4,691.9z"/>
	<path class="st3" d="M221.4,691.9c81.6-5.2,156.8,12.4,226.7,26.3C735.8,775.5,932.5,944,1114.3,806
		c-251.4,213.9-485.9-75.5-867-96C247.3,709.9,223.6,695.8,221.4,691.9z"/>
	<path class="st3" d="M215.6,828.2c52.9,179.2,174.7,209.3,265.5,320c89.9,109.6,84.5,197.1,128.2,236.2
		c18.5,16.5,60.2,37.4,92.6,21.5c-18.5,51.9-23,110.1-25.5,165.9c-230.9-201.3-125.7-318.7-374.2-511.8
		c-53.2-41.4-87.7-109.1-120.1-193.2C192.3,834.7,234.4,862.4,215.6,828.2z"/>
	<path class="st3" d="M224.3,713.7C591,825.3,617,1039.9,725.6,1119.3c35.1,25.7,161.5,24.8,197.1,50.4
		c55.3,39.7-26.7,73.3-87.4,97.7C737,1274.9,651,1134.9,548.4,1001c-61-79.7-212.3-144.9-335.9-176.5
		C212.5,824.5,226.5,717.6,224.3,713.7z"/>
	<path class="st4" d="M281,542.2l-6.1,58.5l-10.6,31.9c-2.7,2.7-5.5,5.5-8.2,8.2c51.1,5.7,75.6,31.5,125.7,37.8
		c86.2,10.8,195,3.3,178.6,46c11.9-16.4,6-35-5.6-46.1c-36.7-35-112.1-44.6-161-84.9C358.1,564.2,341.8,542.1,281,542.2z"/>
	<path class="st5" d="M538.1,679.2c-10.6-10.1-36.5-17.6-90.4-27.5c31.8,9.3,43.8,17.8,47.3,21.5c-106.2-1.2-128.9-4.9-194.2-32.6
		c-16.4-7-33.6-11.2-44.7,0.3c51.1,5.7,75.6,31.5,125.7,37.8c86.2,10.8,195,3.3,178.6,46c11.9-16.4,6-35-5.6-46.1
		c-36.7-35-112.1-44.6-161-84.9C439.1,655.1,514.4,646.4,538.1,679.2z"/>
	<path class="st6" d="M281,542.2l-6.1,58.5l-10.6,31.9c-2.7,2.7-5.5,5.5-8.2,8.2c28.2-28.4,73.7,10.7,138.8,18.5
		c35,4.2,43.6,4.8,56.6,4.5c-42.5-8.1-95.7-17.2-132-44.7c-1.5-1.1,63.3,17.8,75.8,19.4c56.9,7.4,77.6,3.6,87.7,1.2
		c-30.8-12.3-63.6-25-89.2-46.1C358.1,564.2,341.8,542.1,281,542.2z"/>
	<path class="st7" d="M274.9,593.2c0,0,3.1,2.7,7,0.3c3.9-2.4,8.4-8.7,10.5-19.2c1.8-9,0.5-27.9-15.2-23.4
		c-6.1,1.7-1.6,20.2-1.6,20.2S275.1,584.5,274.9,593.2z"/>
	<path class="st5" d="M143.2,587.3c5.8,18.2,21,28.2,27.8,29.3c4.4,0.7-15.7-62-15.7-62C144.2,555.7,130.3,572.5,143.2,587.3z"/>
	<path class="st6" d="M166.5,605.3c4.4,0.7-11.3-50.7-11.3-50.7C137.5,567.9,147,602.3,166.5,605.3z"/>
	<path class="st7" d="M163.7,593.2c0,0-3.1,2.7-6.9,0.3c-3.9-2.4-8.4-8.7-10.5-19.2c-1.8-9-0.5-27.9,15.2-23.4
		c6.1,1.7,1.5,20.2,1.5,20.2S163.4,584.5,163.7,593.2z"/>
	<path class="st8" d="M273.1,611.2c-4,15.3-3.6,47,0.7,54.7c4.3,7.7,22.8,17,35.9,22.8c13,5.8,32.3,14.1,32.3,14.1
		c7.2,3.3-80.5,65.2-131.6,74.7c-51.1,9.4-79.2-57.6-71.6-61.6c7.6-4,42.9-24.3,44.4-35.9c1.4-11.6,0.4-29-1.4-41
		C180,627.1,244.2,588.7,273.1,611.2z"/>
	<path class="st9" d="M183.5,654.8c8.1,8.8,14.3,16.7,22,20c10.2,4.3,31.4,4.1,39.3-5.7c6-7.4,17.7-15.4,25.5-27.7
		c-0.1-10.8,0.8-22.5,2.8-30.2c-29-22.5-93.1,15.9-91.3,27.9C182.5,643.7,183.1,649.2,183.5,654.8z"/>
	<path class="st10" d="M273.1,611.2c-4,15.3-3.6,47,0.7,54.7c4.3,7.7,22.8,17,35.9,22.8c13,5.8,32.3,14.1,32.3,14.1
		c1.6,0.7-1.5,4.4-8,9.8h-50.8c3.9-14.3,2.5-21.5-5.3-27.7c-6.1-4.8-13.9-9.1-14.6-16.2c-1.4-15.1-0.8-32.1,0-52.9
		C272.2,615.8,266.7,606.2,273.1,611.2z"/>
	<path class="st10" d="M192.3,650.7c1.3,28.7,6.6,33.7-7.7,45.8c-4.8,4-12.2,10.7-21.6,17.3c-3.5,2.5-7.8,7.1-9.3,16.4
		c-9.4-8.4-17.1-13.2-15-14.3c7.6-4,42.9-24.3,44.4-35.9c1.4-11.6,0.4-29-1.4-41C180.2,628.1,189.1,642.2,192.3,650.7z"/>
	<path class="st11" d="M183.5,654.8c3.6,3.9,6.8,7.6,9.9,10.8c-0.4-4.2-0.8-9-1.1-14.9c-2.2-5.8-7.1-14.3-9.4-15.5
		c-0.9,1.5-1.2,2.8-1.1,3.9c0.2,1,0.3,2.1,0.4,3.2C182.8,646.4,183.2,650.6,183.5,654.8L183.5,654.8z M262.5,651.4
		c2.8-3,5.5-6.3,7.9-10.1c0-5,0.1-10,0.5-14.9c0.4-5.1,1-10.3,2.3-15.2c-3.5,1.5-5.4,3.5-9.8,4.7C262.8,629,262.4,640.7,262.5,651.4
		z"/>
	<g>
		<path class="st11" d="M275.4,593.7c0,0,3.1,2.7,7,0.3c3.9-2.4,8.5-8.8,10.6-19.4c1.9-9.1,0.5-28.3-15.4-23.7
			c-6.1,1.8-1.6,20.4-1.6,20.4S275.7,584.9,275.4,593.7z"/>
		<path class="st11" d="M162.9,595.2c0,0-3.1,2.7-7,0.3c-3.9-2.4-8.4-8.8-10.6-19.4c-1.9-9.1-0.5-28.3,15.4-23.7
			c6.1,1.8,1.6,20.4,1.6,20.4S162.7,586.4,162.9,595.2z"/>
		<path class="st8" d="M150.9,536.4c0.1,7.9,1.8,12.8,2.1,18.6c1.6,32,6.1,33.8,8.5,41c1.6,18.8,6.7,31.4,17.2,43.6
			c9.3,10.9,18.8,20.5,27.8,24.4c10.3,4.4,26.9,3.6,36.3-6c10-10.3,31.3-25,34.2-51.1c0.9-7.9,2.3-13,3.4-17.4
			c2.6-10.5,5.9-14.7,5.5-28.4c-1.1-38.2-9.3-91.3-68.1-92C185.2,468.6,150,486.2,150.9,536.4z"/>
		<path class="st10" d="M245.5,649.8c-2,6.6-5.9,10.4-9.1,12.7c2.3-1.2,4.4-2.8,6.2-4.6c10-10.3,31.3-25,34.2-51.1
			c0.9-7.9,2.3-13,3.4-17.4c2.6-10.5,5.9-14.7,5.5-28.4c-0.7-25.1-4.5-56.7-23.8-75.6c16.7,34.3,13.3,52.1,7,59.1
			c3.9,4.8,1.8,8.8-5.1,17.7c-0.9,1.1-1.4,2.6-1.8,4.2c4.4-3.3,13.3,1.1,13.8,8c1.2,16.2-7,31.5-10.8,38.3
			c-3,5.3-5.9,11.9-11.1,20.9C250.8,639.1,246.5,646.7,245.5,649.8z"/>
		<path class="st12" d="M219.6,641.2c-5.1,0.1-8.3,0.6-11,2.5c-2.6,1.9,8.4,2.2,11.9,2.3c3.5,0.1,12.7-1.4,10.8-2.8
			C229.4,641.8,226.3,641,219.6,641.2z"/>
		<path class="st10" d="M213.6,666c-13.2-3.9-15.5-8.7-18.2-16.3c-1.2-3.4-5.1-10.7-8.8-16.9c-5.8-9.6-5.8-16-8.3-18.9
			c-2.7-3.1-8.8-10-11.7-19.4c-2-6.5-2.2-14.5-0.2-19.9c1.8-4.9,4.3-6.5,11.3-4.4c1,0.3-2.4,0-6.8-7.3c-4.9-2.2-10.1-13.4-5.2-18.2
			c-2.9-2-11.1-24.5,5.5-60.3c-12.4,10.7-20.7,27.5-20.3,52.1c0.1,7.9,1.8,12.8,2.1,18.6c1.6,32,6.1,33.8,8.5,41
			c1.6,18.8,6.7,31.4,17.2,43.6c9.3,10.9,18.8,20.5,27.8,24.4C208.6,664.8,211,665.5,213.6,666z"/>
		<path class="st13" d="M192.1,624.4c4.2,2.5,10.5,2,18.5,2.9c1.9,0.2,3.9,0.6,6,1.1c5.2,1.2,8.9-1.4,13-1.7
			c4.1-0.2,11.5,1.1,16.1-1c-1.8,1.3-4.3,2.9-6.9,5.5c-6,5.8-9.7,11.2-19.4,10.8c-5.9-0.2-10.6-2-16.3-8.3
			C199.7,630.1,194.1,626.4,192.1,624.4z"/>
		<path class="st14" d="M192,624.3c4,2.5,9.9,2.5,17.3,2.9c2.4,0.1,4.7,0.6,7.4,1.2c5.2,1.2,8.9-1.4,13-1.7
			c4.1-0.2,11.9,1.4,16.4-1.2c-2.6,0.8-10,0.6-15.2-2.6c-5.2-3.2-7.4-3.2-9.4-1.3c-2,1.9-3.6,1.1-5.7-0.9c-2.1-2-5.2-0.5-8.5,1.2
			C203.8,623.8,197.7,625.9,192,624.3z"/>
		<path d="M191.3,623.6c1.3,0.9,2.5,1.5,4.1,1.9c4.4,1.2,9.4,0.8,14,1.1c2.3,0.2,4.8,0.9,7.4,1.5c4.9,1.1,8.3-1.7,12.8-1.9
			c4.1-0.2,8.1,0.6,12.3,0.3c1.5-0.1,2.9-0.3,4.3-1c-0.7,0.8-3.2,1.5-4.7,1.7c-4.1,0.3-7.5,0.1-11.5,0.3c-4.5,0.3-7.8,2.9-12.5,1.8
			c-2.6-0.6-5.6-1.4-7.9-1.5c-4.6-0.3-9.8-0.5-14.3-1.7C194,625.8,192.4,625.1,191.3,623.6z"/>
		<path class="st12" d="M264.3,562.2c4.6-1.1,9.6-12.5,4.5-17.9c-2.7-1.2-10.9-3.2-16.5-0.9c-5.9,2.4-19.7,8.4-24.3,8
			c-0.4,0.3-5.4,5.7-6.8,16.5c-1.4,10.9,0.3,24.2,1.6,29c3.9-4.2,7.2-2,7.9,0.8c0.9,3.3,1.1,2.5,0.8-0.3c-0.3-2.2-1.6-6.4-2.9-8.6
			c-2.1-3.6-2.2-16.1-0.1-19.6c1-1.7,1.7-1.3,3.3-0.6c4.7,2.3,10.3,4.7,15.5,5.1c4.1,0.3,9.6-1,14.5-5.8
			C263.8,565.7,264.5,563.6,264.3,562.2z"/>
		<path class="st4" d="M227,550.4c3.2-0.2,13-3.2,23.9-9.1c4.3-2.3,15.6,0.2,20.1,4.2c-5-2.2-13.5-3.2-18.3-0.7
			c-4.8,2.5-13.1,8.4-22.4,10.4C228.7,554.2,227.8,552.2,227,550.4z"/>
		<path class="st15" d="M232.4,568c0,0,5-9.6,13.6-10.6c8.6-1,12.6,2.2,16.5,5.8C260.9,567.3,251.5,578,232.4,568z"/>
		<path class="st16" d="M252.4,557.4c1.3,1.4,2,3.2,2,5.2c0,4.2-3.4,7.6-7.6,7.6c-4.2,0-7.6-3.4-7.6-7.6c0-1.1,0.2-2.1,0.6-3
			C243.2,557.4,247.9,556.4,252.4,557.4z"/>
		<path class="st17" d="M230.9,563c1.4-2,6.5-8.7,15.1-10c8.6-1.3,15.9,3.4,18.3,5.9c-2.7-1.8-7.7-5.9-17.3-4.8
			C237.2,555.1,233.7,560.4,230.9,563z"/>
		<path class="st18" d="M246.9,566.8c2.4,0,4.3-1.9,4.3-4.3c0-2.4-1.9-4.3-4.3-4.3c-2.4,0-4.3,1.9-4.3,4.3
			C242.6,564.9,244.5,566.8,246.9,566.8z"/>
		<path class="st9" d="M205.9,606.8c1.4,1.5,5.3,1.9,10,2.3c1.5,0.1,2.8,0,4-0.3c2.4-0.6,7.4,0.5,8-2.9c0.2-1.4-3.2-1.4-5.7-0.5
			c-1.3,0.5-3.3,1.1-6.5,0.9c-4.2-0.2-4.8-1.5-7.2-1.6C205.9,604.8,204.4,605.1,205.9,606.8z"/>
		<path class="st15" d="M249.4,562.3c1.1,0,2-0.9,2-2c0-1.1-0.9-2-2-2c-1.1,0-2,0.9-2,2C247.4,561.4,248.3,562.3,249.4,562.3z"/>
		<path class="st17" d="M220.1,608.2c0,0,1.9-3.5,5.8-3.1C229.8,605.5,226.3,609,220.1,608.2z"/>
		<path class="st17" d="M213.2,608.2c0,0-1.9-3.5-5.8-3.1C203.5,605.5,207,609,213.2,608.2z"/>
		<path class="st12" d="M171,562.6c-4.6-1.1-10.5-12.9-5.4-18.3c2.7-1.2,10.9-3.2,16.5-0.9c5.9,2.4,19.7,8.4,24.3,8
			c0.4,0.3,5.4,5.7,6.8,16.5c1.4,10.9-0.3,24.1-1.6,28.8c-3.9-4.2-7.2-1.9-7.9,0.9c-0.9,3.3-1.1,2.5-0.8-0.3
			c0.3-2.2,1.6-6.4,2.9-8.6c2.1-3.6,2.2-16.1,0.1-19.6c-1-1.7-1.9-1.5-3.5-0.7c-4.7,2.3-10,4.6-15.2,5c-4.1,0.3-8.7,0-13.6-4.8
			C171.6,566.4,170.8,564,171,562.6z"/>
		<path class="st4" d="M207.4,550.4c-3.2-0.2-13-3.2-23.9-9.1c-4.3-2.3-15.6,0.2-20.1,4.2c5-2.2,13.5-3.2,18.3-0.7
			c4.8,2.5,13.1,8.4,22.4,10.4C205.8,554.2,206.7,552.2,207.4,550.4z"/>
		<path class="st15" d="M202.1,568c0,0-5-9.6-13.6-10.6c-8.6-1-12.6,2.2-16.5,5.8C173.6,567.3,183,578,202.1,568z"/>
		<path class="st16" d="M182,557.4c-1.3,1.4-2,3.2-2,5.2c0,4.2,3.4,7.6,7.6,7.6c4.2,0,7.6-3.4,7.6-7.6c0-1.1-0.2-2.1-0.6-3
			C191.3,557.4,186.5,556.4,182,557.4z"/>
		<path class="st17" d="M203.6,563c-1.4-2-6.5-8.7-15.1-10c-8.6-1.3-15.9,3.4-18.3,5.9c2.7-1.8,7.7-5.9,17.3-4.8
			C197.3,555.1,200.8,560.4,203.6,563z"/>
		<path class="st18" d="M187.5,566.8c-2.4,0-4.3-1.9-4.3-4.3c0-2.4,1.9-4.3,4.3-4.3c2.4,0,4.3,1.9,4.3,4.3
			C191.9,564.9,189.9,566.8,187.5,566.8z"/>
		<path class="st15" d="M189.9,562.3c-1.1,0-2-0.9-2-2c0-1.1,0.9-2,2-2c1.1,0,2,0.9,2,2C191.9,561.4,191,562.3,189.9,562.3z"/>
		<path class="st19" d="M221.4,632.2c1.2-0.1,3.8-0.3,5.3-1.3s4.9-2,5.8-1.5c0.9,0.5,0.5,1.8-2.2,4c-2.6,2.2-6.9,3.2-9.7,2.4
			C217.9,635.1,219,632.4,221.4,632.2z"/>
		<path class="st19" d="M217,631.6c-2.6-1.6-6.4-1.2-6.3,0.2c0.1,1.8,2.4,3,4.1,3.4C217.3,635.9,219.6,633.3,217,631.6z"/>
		<path class="st20" d="M232.4,568c1.6-7.7,8.8-12.9,16.1-13.2c9-0.4,10.2,1.2,16.5-0.1c-1.2,1.7-2.2,2.9-4.2,3.2
			c2.2,0.4,5.5,0.4,8.1-1c-0.7,2-2,3.2-4.9,3.3c1.4,0.8,6.8,0.3,8.3-0.3c-0.4,0.9-3,4.9-8.6,4.7c-4.2,5.9-11.7,12.4-25.4,6.1
			c5.7,1.9,18.7,3.4,23.7-7.3c-0.5-0.6-6.1-5.8-13.6-5.7C241.4,557.6,236.1,562.4,232.4,568z"/>
		<path class="st20" d="M202.1,568c-1.6-7.7-8.8-12.9-16.1-13.2c-9-0.4-10.2,1.2-16.5-0.1c1.2,1.7,2.2,2.9,4.2,3.2
			c-2.2,0.4-5.5,0.4-8.1-1c0.7,2,2,3.2,4.9,3.3c-1.4,0.8-6.8,0.3-8.2-0.3c0.4,0.9,3,4.9,8.6,4.7c4.2,5.9,11.7,12.4,25.4,6.1
			c-5.7,1.9-18.7,3.4-23.7-7.3c0.5-0.6,6.1-5.8,13.6-5.7C193.1,557.6,198.4,562.4,202.1,568z"/>
	</g>
	<path class="st4" d="M257.3,427.9c51.4,12.6,71.4,52.7,100.2,99.2c35.8,57.9,83.3,106.7,142.1,107.4
		c-90.2,26.9-185.7-50.3-225.1-119.3c-13.1-22.9-25.8-33.1-53.2-33.5C198.2,481.4,226.3,420.3,257.3,427.9z"/>
	<path class="st5" d="M257.3,427.9c51.4,12.6,71.4,52.7,100.2,99.2c35.8,57.9,83.3,106.7,142.1,107.4c-56,3.4-116.3-23.3-156.6-62.3
		c-3.9-3.8,35.8,27.6,61.1,32.1c-20-14.4-29.2-25.3-35.4-35.1c-7.9-12.6-15.5-26.7-23.4-42.2c-9.8-18.8-32.8-58.8-74.1-80.1
		c-8.6-4.4-27.6-4.7-40.9,4c-5.1,3.4-5-3.1-10.5-0.6C227.9,436.6,242.3,424.2,257.3,427.9z"/>
	<path class="st6" d="M231.9,434c3.9-1.5,10.6,3.5,11.6,12.3c0.8,7.1-2,11.7-5.3,22.9c-2.5,8.4,12.8,19.8,21.7,26.2
		c-9.5-9.2-21-13.5-38.7-13.8C193.9,481.3,230.7,433.8,231.9,434z"/>
	<path class="st4" d="M273.3,512.8c3.9,23.2,9.9,21.9,10,31.2c1.5,16.9,7.9,16.3,18.2,17.9c37.1,5.8,50.3-0.2,114.8,19.9
		c27.7,8.6,49.3-6.4,51.7-11.3c0,0-20.9,19.6-72.4-2c-51.5-21.7-47.9-20.9-72.8-25.4c-25-4.5-41.3-28.2-41.3-28.2L273.3,512.8z"/>
	<path class="st6" d="M273.3,512.8c3.9,23.2,9.9,21.9,10,31.2c1.5,16.9,7.9,16.3,18.2,17.9c37.1,5.8,50.3-0.2,114.8,19.9
		c27.7,8.6,49.3-6.4,51.7-11.3c0,0-21.3,24.3-72.8,2.7c-28.6-12-52.2-13.6-84.1-16.3c-9.7-0.8-16-9.9-13-10.3
		c9.8-1.2,37.4,6.5,56.6,6.7c-54.7-11.2-64.9-20-67.3-33.7L273.3,512.8z"/>
	<path class="st4" d="M158.3,518.9c1,5.3,2.5,34.6-4.3,45c-10.4,16.1-10.9,19.8-7.2,31.7c-5.6-4.1-14.7-12.7-17.1-29.3
		c-0.5-3.5-0.7-7.4-0.5-11.6C130.2,530.4,149.5,507.3,158.3,518.9z"/>
	<path class="st5" d="M409.7,575.4c27.1,10.5,51.5,1.2,58.3-4.9c0,0-20.9,19.6-72.4-2c-44.3-18.6-47.8-20.6-63.8-23.7
		C355.8,552,375.6,562.2,409.7,575.4z"/>
	<path class="st5" d="M154,563.9c-10.4,16.1-10.9,19.8-7.2,31.7c-5.6-4.1-14.7-12.7-17.1-29.3c-0.5-3.5-0.7-7.4-0.5-11.6
		c0.3-7.6,2.4-15.1,5.4-21.4c-0.2,2.2,11.9,2.4,10.3,4.5c-13.2,17.1,3.8,21.4,11.9,11.5C158.9,546.7,155.6,556.3,154,563.9z"/>
	<path class="st6" d="M158.3,518.9c1.6,14.3,2.5,34.6-4.3,45c-10.4,16.1-10.9,19.8-7.2,31.7c-3.8-2.8-5.5-10.7-3.9-18.8
		c3.5-17.3,15.3-15.4,13.4-47.3C156.6,517.9,157.1,515.9,158.3,518.9z"/>
	<path class="st4" d="M247.3,489.3c14.5,6.6,21.4,34.8,51.3,35.8c34.3,1.2,139.8-10,156.2,72.7c0.8-11.5,0.1-48.1-57.6-78
		c-57.7-29.9-91.6-37.6-119.1-41.7C270.4,479.2,264.1,481.5,247.3,489.3z"/>
	<path class="st21" d="M14.2,920.5c0,0-2.9-9.2-2.9-16.7c0,0,45.7-58.8,56.4-104.6c12.6-54.2,40.5-68,72.6-84L101,872.1
		c0,0-11.1,15.6-25.6,28.6c1.3,2.9,2.4,9.2,1.3,17.6C75.6,926.6,25.3,956.5,14.2,920.5z"/>
	<path class="st4" d="M173.8,498.7c-8.8,9-10,14.5-10.8,20.3c-0.8,5.7-3.7,13.3-14.5,19.4c-12.2,6.9-19.2,13.7-18.8,28
		c-6.5-5.4-16.1-30.1-1.8-50c-9-30.2,2.7-49,15.7-48.6C160,468.3,181.6,489.7,173.8,498.7z"/>
	<path class="st22" d="M67.1,911.8c0,0,2.7-19.8-18.8-19.6c0,0,11.8-4.6,20.7,0.4c1.7,1,16.9-11.3,22.2-22.8l9.9,2.4
		c0,0-11.1,15.6-25.6,28.6c1.3,2.9,2.4,9.2,1.3,17.6C75.6,926.6,71.1,913,67.1,911.8z"/>
	<path class="st4" d="M174,437.1c0,0,38.9-18.4,58.5-5.3c19.6,13.1,3.7,44.2-19.2,51.1C190.4,489.9,124.9,472.7,174,437.1z"/>
	<path class="st5" d="M174,437.1c0,0,38.9-18.4,58.5-5.3c6.7,4.5,9.3,11,8.8,18c-11.6-12.1-37.2-12.9-44.2-3c-6.7,9.4-27.7,3-36.6,3
		C163.4,445.9,167.8,441.6,174,437.1z"/>
	<path class="st22" d="M14.2,920.5c0,0-2.9-9.2-2.9-16.7c0,0,45.7-58.8,56.4-104.6c12.6-54.2,40.5-68,72.6-84l1.7,23.8
		c-21.2-2.6-31.1,4.9-37.4,11.1c-16.1,15.7-22.8,36-33.7,63.7c-12.6,32.2-18.9,49.8-48.1,88.9c0.5,8.8,6.1,9.8,3.2,12
		C23.1,916.9,16.9,921,14.2,920.5z"/>
	<path class="st5" d="M318.5,491.7c36.7,11.9,82.8,30.1,110.6,49.7c-8-7.3-18.4-14.7-31.9-21.7c-57.7-29.9-91.6-37.6-119.1-41.7
		C270.4,479.2,300.9,486,318.5,491.7z"/>
	<path class="st5" d="M146,509.1c-6.5,1.7-10.6,3.9-13.2,5.8c-11.6,12,8.1,19.4,19.5,16.6c5-1.2-1.6,3.7-3.9,6.8
		c-12.2,6.9-19.2,13.7-18.8,28c-6.5-5.4-16.1-30.1-1.8-50c-9-30.2,2.7-49,15.7-48.6c3.3,0.1,8.9,9.1,5.7,11
		C128.1,491.2,138.7,509.5,146,509.1z"/>
	<path class="st6" d="M228.1,476.2c-0.6,0-21.9-10.8-26.4-24.3c-4.5-13.5,0.8-20.7,21.5-23.9c0,0-18.4-8-34.6,3.7
		c-16.2,11.7-1.8,38.9,20,46.4c21.9,7.6,20.3,4.3,20.3,4.3S233.6,479.4,228.1,476.2z"/>
	<path class="st8" d="M199.9,1221.5c0,0,9.5,31.2,29.2,66.9c19.7,35.7,140.1-78.8,140.1-78.8s-9.3-44.6-35.9-93.9
		c-5.3-9.8-9.1-31.2-13-41.3c-4-10.1-11-22.2-17.8-27.2c-6.9-5.1-62.2,20-76.4,62.7C211.9,1152.6,199.9,1221.5,199.9,1221.5z"/>
	<path class="st10" d="M369.2,1209.5c0,0-9.3-44.6-35.9-93.9c-5.3-9.8-9.1-31.2-13-41.3c-4-10.1-11-22.2-17.8-27.2
		c-1.9-1.4-7.3-0.5-14.4,2.2c28.9,21.9,22.6,44.7,30.1,67.3c10.7,32.1,24.4,40.9,32.9,98.4C352.9,1219.3,365.9,1215,369.2,1209.5z"
		/>
	<path class="st21" d="M12.9,919.9c4.9-18.3,45.3-35.5,64.9-11.2c1.9,11.1-0.3,45.9,19.6,72.7c3.9-0.8,13.6-0.4,20.7,8.3
		c-10.1,25.2-27.2,51.3-34.1,59.3c-2.5-2.9-15.9-21.4-12.7-38.1C45,981.1,26.9,961.8,12.9,919.9z"/>
	<path class="st6" d="M173.8,498.7c-8.8,9-10,14.5-10.8,20.3c-0.8,5.7-3.7,13.3-14.5,19.4c-12.2,6.9-19.2,13.7-18.8,28
		c-1.6-5.4-1-13.5,3.5-20.1c4.2-6.2,11.8-10.8,21.2-16.5c3.8-2.3,7.5-11.3,6.9-16.7c-0.5-4.4-15.6-4-28.4,1.7
		c10-9.9,36.3-7.5,23.4-12.9c-5.2-2.2-25.5-14.2-19.8-32.4c0.8-2.5,4.7-1.9,7.1-1.8C160,468.3,181.6,489.7,173.8,498.7z"/>
	<path class="st22" d="M64.6,899c4.9,1.9,9.4,5,13.2,9.7c1.9,11.1-0.3,45.9,19.6,72.7c3.9-0.8,13.6-0.4,20.7,8.3
		c-1.3,3.1-1.8,4.2-3.8,6.7c-2.7-4-9.9-9.9-20.3-5.3c-5.4,2.4,0.7-3-2.3-6.3C77.7,969.4,64.6,935.5,64.6,899z"/>
	<path class="st4" d="M202.9,488.2c-6.8,0.6-20.9,1.2-30.9,12.1c-13.5,5.3-38.6-9.8-36.5-34c0.6-7.4,4.3-14,9.2-18.1
		c8.1-6.8,14.8-10.8,24.9-12.5c7.4-9.5,19.7-12.5,29.6-13.4c11.3-1,20.1,1.2,26.3,6.3c-7.7-1.3-25.7,0.9-28.5,10.7
		c-7.9,28.9,42.7,45.2,54.2,43.6C238.9,490.8,216.4,487,202.9,488.2z"/>
	<path class="st8" d="M32.1,1277.3c0,0-5.9-26-2.6-67.8c4-51.1,21.5-80.6,25.4-97.5c8.3-36.6,19-60.2,21.8-65.2
		c68.1,42.8,120.6,170.1,120.6,170.1s-5.1,51.1-18.1,88.1C166.2,1341.8,32.1,1277.3,32.1,1277.3z"/>
	<path class="st10" d="M32.1,1277.3c0,0-5.9-26-2.6-67.8c4-51.1,21.5-80.6,25.4-97.5c8.3-36.6,19-60.2,21.8-65.2
		c6.4,4.8,69.5,130.3,70.5,137.2c-46.1-40.6-65.2-91.7-69-83.8c-4.7,9.6-3.5,15.1-3.5,25.1c0,4.8-7.9,9.9-12.3,20.1
		c-13.2,30.4-16,67.6-14.4,131.3C46.2,1280.9,32.1,1277.3,32.1,1277.3z"/>
	<path class="st5" d="M164.4,464c-2.4-2.4-2.6-6.9-2-11.5c-8.9-1.1-26.6,15.1-21.6,34.2c-3.8-5.6-6-12.5-5.4-20.5
		c0.6-7.4,4.3-14,9.2-18.1c8.1-6.8,14.8-10.8,24.9-12.5c7.4-9.5,19.7-12.5,29.6-13.4c11.3-1,20.1,1.2,26.3,6.3
		c-7.7-1.3-25.7,0.9-28.5,10.7c-1.5,5.4-0.9,10.4,1.1,14.9c-4.6-6.8-8.3-15.3-15.3-14.3C171,441.5,162.7,451.3,164.4,464z"/>
	<path class="st6" d="M204.4,488.2c-6.8,0.6-22.4,1.1-32.4,12c-4,1.6-9,1.4-14.1-0.4c8.7-0.4,12.9-4.4,22-8.6
		c7.5-3.5,28.2-10.5,47.3-11.7c9-0.6,14.8,1.3,23.9,3.3C238.9,490.8,217.9,487,204.4,488.2z"/>
	<path class="st4" d="M189.2,490.4c21-2,43.2,0.7,55.2-0.2c59.5-4.4,98.9-35.5,131.6-2.8c-20.8-42.6-101-24-157.3-8.4
		C208,482,200.6,485.2,189.2,490.4z"/>
	<path class="st10" d="M132,1101.1c39.3,52.3,65.4,115.6,65.4,115.6c-0.5,6.1-5.8,53.5-18.1,88.1c-9.5,26.8-5.2,7.6-16.7,3.3
		c7.5-16.8,14.4-38.6,16.9-57.5c0.3-2.5,0.5-4.8,0.6-6.9c0.4-14.7-6.1-20-17.7-32.7c-13.2-14.4-29-31-44-65.2
		C118.1,1124.5,132.3,1122.4,132,1101.1z"/>
	<path class="st6" d="M189.2,490.4c21-2,43.2,0.7,55.2-0.2c59.5-4.4,98.9-35.5,131.6-2.8c-24.3-28.9-56.5-15.4-118-3.9
		C239.2,487.1,211.6,488.7,189.2,490.4z"/>
	<path class="st6" d="M247.3,489.3c13.9,6.6,20.1,33.2,49.9,35.8c29.8,2.6,53.5-1.9,86.2,5.8c32.7,7.7,63.2,25.6,71.4,66.9
		c-5.4-69.8-77.7-74.9-118.3-75.7c-31.6-0.6-50.3-5.6-71.7-27.2C259.9,489.9,254.7,486.7,247.3,489.3z"/>
	<path class="st0" d="M1114.3,806c0,0-85.5,63.2-208.8,38.6c-123.2-24.6-280.5-103.6-436.3-137c-61.5-13.2-96-16.9-121.4-17.1
		c-30.2-0.2-17.4,11.7-17.4,11.7c23.3-3.7,49.1-6,75.4-2.6c151.9,20,318.7,101.7,464.5,141.2C974.7,869,1059.9,845,1114.3,806z"/>
	<path class="st6" d="M168.5,438.9c-7.4,11.5-9.2,26.9,15.1,41.1C183.7,480.1,143.6,467.8,168.5,438.9z"/>
	<path class="st5" d="M375.9,487.4c-17.1-35-74.1-28.7-125.1-16.7C349.7,457.4,363.5,471.3,375.9,487.4z"/>
	<path class="st10" d="M199.9,1221.5c0,0,9.5,31.2,29.2,66.9c5.8,10.5,6.5,10.5,24.1,1.8c-19.5-19.6-31.4-47.6-34.1-63.7
		c-2.1-12.8,21.8-54.7,33.3-108.3l-37.4,30.8C206.2,1185.2,199.9,1221.5,199.9,1221.5z"/>
	<path class="st21" d="M139.5,715.3c-10.9,5.7-25.3,37.7-32.3,60.4c-6.2,19.9-37.3,34.8-38.1,50.7c-0.7,15.9,2.5,44.9,25.7,61.2
		c0.4,11.2,4.1,27.7,17.4,50.4c12,20.4,11.4,33,3.5,46.4c-12.4,21-29.2,35.9-39.1,62.4c-1.8,48.9,68.1,170,124.3,178.3
		c0,0,22.5-25.4,46.4-89.2c23.9-63.8,44.8-81.4,58.5-85.7c-10.1-17-29.9-25.9-28.1-65.8c1.8-39.9,13.4-56.9,45.3-100.7
		c31.9-43.9,34.8-82.3,35.5-101.1c0.9-24.4,16.1-59.8-10.2-76.4c-9.2-5.8-21.4-10.4-39.1-17.8c-23.1,15.6-28.4,62.8-116.7,80.5
		c-16.7-8-43.3-28.9-41.5-60.1C147.3,710.9,143,713.5,139.5,715.3z"/>
	<path class="st22" d="M299.1,912.3c-53.2,76.2-18.9,117.3-1.6,142c3.1-2,5.9-3.2,8.5-4.1c-10.1-17-26.3-27.4-24.5-67.2
		c2.6-57.3,61.5-106,81.1-166.9c-0.2-3.1,0.1-6.3-2.6-8c-22.2-13.8-37.5,6.5-46.6,30.1c-9.7,25.2-20.7,32.7-44.2,38.4
		c-26.3,6.5-43.3-0.1-54.1-9.6c-11-9.8-15.7-21.5-17.9-35.2c-0.7-4.6-2-7.1-3.1-1.5c-3.6,19.5,3.9,41.6,21.2,52.2
		c21.8,13.3,53.9,8.5,77.5,4.2C307.1,884,302.6,907.2,299.1,912.3z"/>
	<path class="st22" d="M191.2,1898.6c-0.8,1.6-15,17.9-14.3,74.1c-0.7,1-2.2,2.1-6.1,2.1c0,0,1.5-66.4-13-63.6
		C161.5,1894.9,188.8,1893.9,191.2,1898.6z"/>
	<path class="st22" d="M12.9,919.9c1.3-4.9,5.1-9.6,10.4-13.6c4.5,29.5,10.9,48.7,48.6,93.6c1.7,2.1,5.8,2.9,7,2.7
		c2.3-0.4,0.9,2.1,0,6c-2.7,11.1,1.4,20.5,7.3,30.1c0.1,2.3-0.5,5-2.2,10.3c-2.5-2.9-15.9-21.4-12.7-38.1
		C45,981.1,26.9,961.8,12.9,919.9z"/>
	<path class="st21" d="M447.6,1885.9c0,0,12.9,20.8,15.6,78.1c2.1-0.1,4.1-0.2,6.2-0.4c0.7-24.2,1.3-48.3,2-72.5l-15.9-12.7
		L447.6,1885.9z"/>
	<path class="st21" d="M310.1,690.9c13.4,2.5,58,3.6,83.4,27.5c19,17.9,24,35.9,31.5,51.5c6.3,12.9,21.8,25.5,43.7,48.3
		c22.6,23.5,43.5,53.2,69,78.5c-0.4,11.4-8.3,29.7-20.3,38.8c-21.8-13.6-43.6-27.3-65.4-40.9c-1.1-0.7-48-27.6-99.5-87
		c0,0-41.3-60.9-41.3-81.2S310.1,690.9,310.1,690.9z"/>
	<path class="st22" d="M498.4,908.7c-13.8-4.5-25.4-0.5-32.1-5.1c-4.6-3.2-9.5-6-14.3-8.9c-1.1-0.7-48-27.6-99.5-87
		c0,0-0.9-1.3-2.4-3.6c2.5,0.5,11.2,2.9,20.6,10.3c20.9,16.4,35.8,38.9,84.7,70.8C458.7,887.2,485.5,892.4,498.4,908.7z"/>
	<path class="st22" d="M310.1,690.9c13.4,2.5,58,3.6,83.4,27.5c19,17.9,24,35.9,31.5,51.5c6.3,12.9,21.8,25.5,43.7,48.3
		c22.6,23.5,43.5,53.2,69,78.5c-0.4,11.4-8.3,29.7-20.3,38.8c-6.9-2.4-14.4,2.1-17.8-4.5c10.8-7.6,28.8-30.6,25.3-34.5
		c-13.8-15.7-38.4-44.6-60.2-68.5c-19.2-21.1-30.4-25.4-48.1-49.1c-5.9-15.7-15.4-38.1-31.1-54c-25.2-25.6-54.5-18.2-84.1-2.2
		C304.7,713.4,310.1,690.9,310.1,690.9z"/>
	<path class="st21" d="M186.5,1305.6c-10.9-58-138.5-81.9-163.1-34.1c7.2,37,13.9,64.5,34.2,126.1c20.3,61.6,9.9,65.4,13.8,99.7
		c3.4,30.2,10.2,44.1,13,61.9c14.1,87.9,25.7,212,30.1,266.8c0.3,3.2-6.7,4.1-3.2,13.8c-6.4,6.5,0.7,11.4-0.4,13.4
		c-14.2,24.4-17.4,55.6-39.8,94.2c-28.2,4.8-42.8,21.4-41.7,31.5c11.2,2.9,62.5,2,78.6-2.2c0,0,13.4-61.1,83.4-78.1
		c0.4-14.1-3.6-34.6-18.5-48c2.7-3.3,3.1-8.9-3.3-10.9c0,0,6.5-5.8-0.4-9.4c2.1-1.9,2.1-4.1,1.3-6c-0.9-2.1-3-4.1-3-5.9
		c-2.2-20-4.5-62.1,8.2-102.6c17.4-55.8,15.2-122.5-1.4-164.5c-4.4-11.2,0.5-31.4,0.8-55.7C175.7,1428.4,165.6,1368.9,186.5,1305.6z
		"/>
	<path class="st21" d="M221.3,1301.2c0.5-49.7,35.2-86.6,77.7-103.2c27.3-10.6,58.7-7.7,75.2,6.8c1.5,45.4,20.4,87.1,24.8,133
		c2.3,24,3.8,56.2,3.8,101.5c0,13.7,8.9,28.2,14.5,43c5.4,14.4,6.1,28.8,17,44.3c19.7,28,50,45.7,47.1,155.8
		c-1.1,43.8-2.5,61.4,2.5,131.3c0.2,3.4,8.1,8.8,1.3,14.2c5.2,1.4,6.2,6.5,1.2,10.3c9.2,2.4,2,7.6,2.9,9.1c2,3.4,5.4,8.9,7.3,13.1
		c4,8.7,9.4,28.6,17.8,48.9c8.3,20.3,28.3,40.9,28.6,67c0.4,26.1-5.8,38.8-19.9,38.8c-14.1,0-49.6-27.5-52.2-46.7
		c-2.5-19.2-0.2-63.1-23.6-82.4c-2.7-11.8-1.6-21.1,0-31.9c0.2-1.9-7.9-5.1,0.6-10.8c-8.1-2.7-5.6-10.6-0.8-11.3
		c-10.8-4.5-3.8-10.2-4-12.4c-8.5-37-21.8-81.3-40-111.1c-19.7-32.2-45.7-56.6-50.7-150.8c-0.8-15.4-38.4-59.4-50-113.8
		C290.9,1389.6,241.3,1318.9,221.3,1301.2z"/>
	<path class="st21" d="M333.7,1009.1c0,0,31.2-15.9,57.3-44.9c26.1-29,39.9-55.8,60.9-69.6c10.9,0,52.9-1.4,66.7,40.6
		c-15.2,15.2-71,63.1-160.9,109.4c0,0-0.7,13-9.4,20.3c-8.7,7.2-28.5,21.2-37,18.8c-6.1-1.7-3.5-6.1-6.4-8.9c-2-1.9-4.8-2.1-6.8-4.6
		c-1.9-2.3,0-6.6-1.7-9.1c-1.8-2.5-6.4-2-7.9-4.6c-1.4-2.3-1.1-8.6-2.6-10.5c-1.4-1.7-4.6-1.6-7.2-6.5c-2.2-4.4,6.4-13,15.3-19.8
		c1.6-6.6,3.7-11.2,7-12.2C312.1,1004,324.8,1004.5,333.7,1009.1z"/>
	<path class="st22" d="M143.3,1185.9c18.6,21,38.9,36.4,57.7,39.2c0,0,18.5-20.8,39.7-72.2c-21.7,30.8-35.4,59.7-46.4,58.8
		C183.8,1210.8,170.8,1206.4,143.3,1185.9z"/>
	<path class="st3" d="M257.8,743c24.1-23.4,18-41.1,31.5-58.8c6.2-8.2,12.8-8.2,17-2.2c0,0,14.5-6.3,15.9,3.8c0,0,13-6,13.4,4.7
		c9.4-4,19.7-0.5,20.2,8.3C326.9,693.8,299,737.3,257.8,743z"/>
	<path class="st22" d="M139.5,715.3c-10.9,5.7-25.3,37.7-32.3,60.4c-6.2,19.9-37.3,34.8-38.1,50.7c-0.7,15.9,2.5,44.9,25.7,61.2
		c0.4,11.2,4.1,27.7,17.4,50.4c12,20.4,11.4,33,3.5,46.4c-12.4,21-29.2,35.9-39.1,62.4c-0.8,22.9,14.1,61.7,35.9,97.3
		c-17.7-43.5-27.5-90.6-1.2-128.9c9.6-13.9,21.1-27.1,22-50.6c0.8-20.4-15-39.3-18.1-71.4c33.3,0.9,60.7-23.7,44.8-20.9
		c-58.7,10.2-72.1-19-74.9-30.5c-4.5-18.3,11.8-29.2,25-48.2c11.6-16.8,12.1-29.3,19.4-53.9C133,728.6,143,713.5,139.5,715.3z"/>
	<path class="st1" d="M165.6,748.3c-9.8-16.3-12.5-34-8.1-43.4c3.4-2.2,7.1-4.8,8.5-5.9c-0.3-0.6-11.2-12.2-17.7,3.9
		c0,0-5.4-5.3-10.5-2.2c-5.1,3.1-6,10.9-6,10.9c-8.7-4.1-13.5-0.1-15.8,9.6c-10-2.4-13.9,4.7-14.7,17.5
		C124.5,732,138.9,745.1,165.6,748.3z"/>
	<path class="st22" d="M221.3,1301.2c0.1-11.6,2.1-22.6,5.7-32.7c97.8,100.9,75,156.1,111.2,215.1c11.9,19.5,21.7,41,40.9,55.3
		c17.6,13.1,10,2.8,2.2,30.3c-1.9,6.6-1.5,14.4,2.2,23.9c25.1,64.3,42.6,89.7,67.1,199.3c1.6,7.3,2.1,15.6,3.1,24.9
		c0.2,1.9-2.5,3.9-3.4,5.8c-3.8,7.7,29.2,4.7,19.3,6.7c-2.8,0.6-8.4,1.3-14.4,2.4c-5.6,1-7.7,6.4-3,7.7c1.8,0.5,5.4,0.9,12.2,0.6
		c4.2-0.1,3,0.8,0.3,1.4c-3.6,0.8-12.7,1-12.5,6.5c0.2,10.3,32.5-1.5,22.7,3.8c-5.3,2.9-18.1,4.9-18,12.4c0.1,5.1,1.5,10.7,5.2,21.1
		c6.4,18.2,17.4,40.7,18.8,74.4c0.9,21.2,7.9,31.1,21.5,45.9c-14.4-9.7-29.6-25.4-31.2-37.7c-2.5-19.2-0.2-63.1-23.6-82.4
		c-2.7-11.8-1.6-21.1,0-31.9c0.2-1.9-7.9-5.1,0.6-10.8c-8.1-2.7-5.6-10.6-0.8-11.3c-10.8-4.5-3.8-10.2-4-12.4
		c-8.5-37-21.8-81.3-40-111.1c-19.7-32.2-45.7-56.6-50.7-150.8c-0.8-15.4-38.4-59.4-50-113.8
		C290.9,1389.6,241.3,1318.9,221.3,1301.2z"/>
	<path class="st22" d="M350.4,1193.4c9.4,2.1,17.7,5.9,23.9,11.3c1.5,45.4,20.4,87.1,24.8,133c2.3,24,3.8,56.2,3.8,101.5
		c0,13.7,8.9,28.2,14.5,43c5.4,14.4,6.1,28.8,17,44.3c19.7,28,50,45.7,47.1,155.8c-1.1,43.8-2.5,61.4,2.5,131.3
		c0.2,3.4,8.1,8.8,1.3,14.2c5.2,1.4,6.2,6.5,1.2,10.3c9.2,2.4,2,7.6,2.9,9.1c2,3.4,5.4,8.9,7.3,13.1c4,8.7,9.4,28.6,17.8,48.9
		c8.3,20.3,28.3,40.9,28.6,67c0.1,8.2-0.4,15-1.5,20.6c3.5-39.6-24-62.3-34.6-85.4c-5-11-13.7-56.5-21.9-60.7
		c-2.3-1.2-1.9-1.8-0.3-4.2c1-1.6,2.1-3.6,0.7-5.8c-1.7-2.5-5.5-1.5-1.3-4.7c2.6-2,1.2-3.9-0.7-5.6c-2-1.6-4.5-2.9-2.9-4.3
		c6.5-5.5-2.3-8.7-2.9-11.8c-14.4-74.6-4.9-130.4-18.1-199.6c-3.5-18.6-7.3-47.2-28.4-63.6c-6.5-5.1-15.9-6.7-14.9-12.2
		c1.7-9-8.9-39.9-18.1-59.7c-6.3-13.6-16.3-19.9-15.3-42.5C388.3,1316.6,350.1,1259.4,350.4,1193.4z"/>
	<path class="st22" d="M83.5,1477.7c9.5-50.3-28.1-101.1-36.9-225.8c-10.4,4.2-18.7,10.6-23.3,19.6c7.2,37,13.9,64.5,34.2,126.1
		c20.3,61.6,9.9,65.4,13.8,99.7c3.4,30.2,10.2,44.1,13,61.9c14.1,87.9,25.7,212,30.1,266.8c0.3,3.2-6.7,4.1-3.2,13.8
		c-6.4,6.5,0.7,11.4-0.4,13.4c-14.2,24.4-17.4,55.6-39.8,94.2c-28.2,4.8-42.8,21.4-41.7,31.5c8.5-18.5,39-28.8,57.8-21.7
		c-1.6-5.7-8.8-6.3-6.8-11.8c6-16.7,16.5-40.1,34.5-77.7c5.1-10.7,12.1-10.7,18.6-13.6c6.1-2.8,9.7-5.7,2.6-4.4
		c-7.7,1.3-14.3,1.3-16.5-1.7c-5.9-8.3,17.6-6.4,23.4-9.3c4.4-2.1-16.6,0.1-19.6-1c-6.2-2.3-4.7-6.2-2.2-8.7
		c2.2-2.2,4.7-3.1,4.6-5.5c-3.6-77.7-14.6-184.1-19.9-229c-4.1-34,16.3-26.7,2.6-38.7C99.8,1548.2,76,1517.2,83.5,1477.7z"/>
	<path class="st22" d="M186.5,1305.6c-1.5-8.2-5.4-15.6-10.9-22.3c-17.8,66.4-14,123.1-16.5,158.3c-1.3,18.8,0.9,33.7-0.4,49.6
		c-1.3,15.9-6.3,32.9-4.6,61.6c0.4,7.8,3.4,14.3,7.2,21.6c15.9,30.9,17.6,75.7,12.2,101.4c-7.5,35.2-15.1,15.4-15.7,26.9
		c-2.2,39.2,1,62.8,4.7,113.4c0.2,2.4-2.4,2.6-2.3,3.7c0.1,1.6,8.7,4.3,6.4,7.8c-1.8,2.7-1.4,2.2,0.5,4.1c1.7,1.7,2.3,4.6-0.5,6.7
		c-1.9,1.5-0.9,1.8,0.6,2.4c3.2,1.2,6.7,4.4,3.6,6.3c-1,0.6-3.3,0.7-5.3,0.8c-6.4,0.5-2.9,1.7,0.5,3.3c2.8,1.3,5.1,3.1,6,4.3
		c8.3,10.8,17.5,35.1,5.1,39.6c-49.9,18.3-68.6,60.9-69.1,81.4c0,0,13.4-61.1,83.4-78.1c0.4-14.1-3.6-34.6-18.5-48
		c2.7-3.3,3.1-8.9-3.3-10.9c0,0,6.5-5.8-0.4-9.4c2.1-1.9,2.1-4.1,1.3-6c-0.9-2.1-3-4.1-3-5.9c-2.2-20-4.5-62.1,8.2-102.6
		c17.4-55.8,15.2-122.5-1.4-164.5c-4.4-11.2,0.5-31.4,0.8-55.7C175.7,1428.4,165.6,1368.9,186.5,1305.6z"/>
	<path class="st22" d="M352.8,1031.2c-0.4-2.7,0.3-2.5,1.9-0.6c2.2,2.7,2.6,4.7,5.6,3.1c81.4-42.9,129.4-85.4,151.2-113.3
		c2.7,4.2,5.1,9.1,7,14.8c-15.2,15.2-71,63.1-160.9,109.4c0,0-0.7,13-9.4,20.3c-8.7,7.2-28.5,21.2-37,18.8c-1.1-0.3-2-0.7-2.6-1.2
		c3.3,0.4,8-1.2,13.8-4.3c15.9-8.7,25.1-16.7,29.2-26.8C353.1,1047.6,354,1039.4,352.8,1031.2z"/>
	<path class="st22" d="M333.7,1009.1c0,0,31.2-15.9,57.3-44.9c26.1-29,39.9-55.8,60.9-69.6c6,0,21.4-0.4,36.4,6.2
		c-7-1.4-27.5-5.2-35.6,4c-13.9,15.7-30,57.3-109.6,108.3c-1.2,0.7,1.3,2.6,2.4,4.4c1,1.8,1.4,3-0.4,2c-15.9-9.3-33.8-4.9-50.1,5.2
		c-9.1,5.7-15.2,12.2-16.2,14.9c-2.2-4.4,6.4-13,15.3-19.8c1.6-6.6,3.7-11.2,7-12.2C312.1,1004,324.8,1004.5,333.7,1009.1z"/>
	<path class="st3" d="M165.6,748.3c-9.8-16.3-12.5-34-8.1-43.4c3.4-2.2,7.1-4.8,8.5-5.9c-0.3-0.6-11.2-12.2-17.7,3.9
		c0,0-5.4-5.3-10.5-2.2c-5.1,3.1-6,10.9-6,10.9c-8.7-4.1-13.5-0.1-15.8,9.6c-10-2.4-13.9,4.7-14.7,17.5
		C124.5,732,138.9,745.1,165.6,748.3z"/>
	<path class="st0" d="M105.2,724.2c-2.3,3.1-3.5,8-3.9,14.4c10.5-3,19.2-2,28,0.4c-18.4-6.4-12.6-15.5-4.7-13c3,1.3,7.9,5.9,6.2,2.3
		c-1-2-5.4-7-4.1-10.2c1.1-2.7,5.4-2.8,9.3-0.4c2.2,1.5,8.2,9.4,8.3,7.1c0.3-6.4-9.3-12.2-3.9-16.1c2-1.4,5.4-1.6,7.6,1.5
		c0.8,1.2,3.1,5.4,3,0.9c-0.1-1.6-0.8-5.3,2.1-5c3.2,0.3-0.7,7.4,3,16.3c-1-7-0.5-13.3,1.5-17.7c3.4-2.2,7.1-4.8,8.5-5.9
		c-0.3-0.6-11.2-12.2-17.7,3.9c0,0-5.4-5.3-10.5-2.2c-5.1,3.1-6,10.9-6,10.9c-8.7-4.1-13.5-0.1-15.8,9.6
		C111.1,719.9,107.6,721.1,105.2,724.2"/>
	<path class="st0" d="M335.7,690.5c9.4-4,19.7-0.5,20.2,8.3c-16.7-2.9-33.1,10.4-51.9,23.3c9.3-8.9,22-18.9,23.2-23.3
		c2-7-6.2-7.6-13.8-1.6c-3.8,3-9.3,8.4-9,7.1c1.3-5.7,12.9-13.4,8.6-15.3c-2.6-1.2-7.4,0-12.4,3.9c-5,3.9-12.5,13.8-12.5,12.7
		c-0.2-8.1,16.2-18.9,10.3-20c-4.1-0.8-13.1,2.7-19.2,20.6c2.4-7.6,4.6-14.8,10.1-21.9c6.2-8.2,12.8-8.2,17-2.2
		c0,0,14.5-6.3,15.9,3.8C322.2,685.8,335.3,679.8,335.7,690.5"/>
	<path class="st12" d="M221.2,729.3c3.2-2,22.5-13.5,46.4-19.6c10-2.5-2.5,6.3-16.3,12.5C237.6,728.4,209,736.9,221.2,729.3z"/>
	<path class="st12" d="M203.6,730c-2-1.1-15.5-6.7-36.4-9.1c-13-1.5,1.6,4.7,15,7.8C195.6,731.8,213.7,735.4,203.6,730z"/>
</g>
</svg>
